<svg id="图层_1" data-name="图层 1" xmlns="http://www.w3.org/2000/svg" viewBox="0 0 30 30"><defs><style>.cls-1{fill:#808a9b;}</style></defs><title>123</title><g id="_0-1" data-name="0-1"><path class="cls-1" d="M15,30A15,15,0,1,1,30,15,15,15,0,0,1,15,30Zm9.64-19.49-6-3a.7.7,0,0,0-.76.29l-3.34,5.44,4.2,6.85Zm.07,12.81V12.25L19.05,21.5l4.58,2.28C24.22,24.09,24.71,23.87,24.71,23.32Zm-12.65.15V11l-.29-.45L6,7.65c-.4-.17-.72,0-.72.45V20.48a1.06,1.06,0,0,0,.54.87L11.16,24A.57.57,0,0,0,12.06,23.47Zm6.12-2.41L13,12.64v5.84Z"/></g></svg>