<svg id="图层_1" data-name="图层 1" xmlns="http://www.w3.org/2000/svg" viewBox="0 0 1991.84 500.01"><defs><style>.cls-1{fill:#fff;}</style></defs><title>IONChain_baise</title><path class="cls-1" d="M437.59,325.7l-10.8-18.84A21,21,0,0,0,410,273.39a22.11,22.11,0,0,0-2.3.23L265.14,24.94a49.63,49.63,0,0,0-86.1,0l-5.66,9.87a20.72,20.72,0,0,0-4-.41,21,21,0,0,0-15.69,34.78L6.58,325.7a49.63,49.63,0,0,0,43,74.31H65a20.79,20.79,0,0,0,38.69,0H394.54a49.63,49.63,0,0,0,43-74.31Zm-13.68,41.7a33.61,33.61,0,0,1-29.39,16.94H103.73a20.79,20.79,0,0,0-38.73,0H49.63a34,34,0,0,1-29.46-50.85L167.65,76.29c.57,0,1.12.18,1.71.18a21,21,0,0,0,17.12-33l6.15-10.71a34,34,0,0,1,58.92,0L394,281.15a20.77,20.77,0,0,0,19.49,34L424,333.53a33.61,33.61,0,0,1-.09,33.87Z" transform="translate(0 0)"/><path class="cls-1" d="M437.5,124.7A49.11,49.11,0,0,0,394.58,100H373.35a20.79,20.79,0,0,0-38.7,0h-285a49.61,49.61,0,0,0-43,74.28l9,15.69A21,21,0,0,0,33.2,222.3c.33,0,.63-.08,1-.09l145,252.85a49.6,49.6,0,0,0,86.07,0l12.39-21.61A20.88,20.88,0,0,0,296.85,420L437.76,174.24A49.13,49.13,0,0,0,437.5,124.7ZM424,166.45,283.24,412a20.89,20.89,0,0,0-19.33,33.72l-12.36,21.55a33.94,33.94,0,0,1-58.89,0L48.33,215.59A20.87,20.87,0,0,0,28.4,180.82l-8.24-14.37a33.93,33.93,0,0,1,29.44-50.8h285a20.79,20.79,0,0,0,38.73,0h21.21A33.93,33.93,0,0,1,424,166.47Z" transform="translate(0 0)"/><path class="cls-1" d="M218.71,194.29a28.06,28.06,0,1,0-1.65,39.65q.85-.8,1.65-1.65A33.22,33.22,0,0,1,218.71,194.29Z" transform="translate(0 0)"/><path class="cls-1" d="M229.48,235.91a28.12,28.12,0,0,0,4.76,2.74,33.23,33.23,0,0,1,36.11-11.76,27.94,27.94,0,1,0-40.82,9Z" transform="translate(0 0)"/><path class="cls-1" d="M232.91,255.31A33.22,33.22,0,0,1,255.24,286a27.94,27.94,0,1,0-21.19-36A26.88,26.88,0,0,0,232.91,255.31Z" transform="translate(0 0)"/><path class="cls-1" d="M171.78,233.29A27.93,27.93,0,1,0,210.11,250a28.54,28.54,0,0,0-2.2-5A33.25,33.25,0,0,1,171.78,233.29Z" transform="translate(0 0)"/><path class="cls-1" d="M216.66,259.24A33.24,33.24,0,0,1,194.36,290a27.94,27.94,0,1,0,24.41-31.08c-.71.09-1.41.2-2.11.34Z" transform="translate(0 0)"/><path class="cls-1" d="M628,131.62V360.54H590.44V131.62Z" transform="translate(0 0)"/><path class="cls-1" d="M857.19,161.11c19.24,21.48,28.86,50,28.86,85.29s-9.62,63.48-28.86,85Q826.89,365,774.47,365c-35.26,0-62.84-11.54-82.72-34-19.23-21.8-28.53-50-28.53-84.64,0-35,9.3-63.17,28.53-85,19.88-23.08,47.46-34.3,82.72-34.3C809.42,127.13,837,138.35,857.19,161.11ZM719.33,184.2c-12.51,15.39-18.6,35.91-18.6,62.2,0,26,6.09,46.49,18.6,61.88C732.15,324,750.75,332,774.47,332s42-7.69,54.83-22.76c12.5-15.07,18.92-35.91,18.92-62.84s-6.42-48.1-18.92-63.49c-12.83-15.39-31.1-22.76-54.83-22.76S732.47,168.17,719.33,184.2Z" transform="translate(0 0)"/><path class="cls-1" d="M958.83,131.62,1072,296.73h1.29V131.62h37.83V360.54h-36.55L960.11,193.17h-1.28V360.54H921.31V131.62Z" transform="translate(0 0)"/><path class="cls-1" d="M1322.08,148.29c16.68,13.46,26.62,32.06,30.14,55.14h-36.55c-3.85-15.07-10.9-26-21.48-33-10.26-7-23.4-10.26-39.44-10.26-24,0-42,8-54.18,24.69-11.22,14.75-16.67,35.27-16.67,61.56,0,26.93,5.45,47.77,16.35,62.2,11.86,15.39,30.46,23.4,55.47,23.4,16.35,0,29.81-4.17,40.07-11.86,10.9-8.66,18.6-21.8,23.09-39.12h36.55c-5.13,26.94-17,47.77-35.91,62.84Q1293.06,365,1256,365c-38.16,0-66.69-12.18-85.29-35.9-16.35-20.52-24.37-48.1-24.37-82.72,0-34,8.34-61.88,25.33-83,19.24-24.37,47.13-36.23,83.69-36.23C1282.33,127.13,1304.77,134.18,1322.08,148.29Z" transform="translate(0 0)"/><path class="cls-1" d="M1424,127.13V216.9a57.83,57.83,0,0,1,22.76-20.52c8-4.17,17.31-6.09,27.9-6.09,20.19,0,35.26,5.77,45.2,17.63,9.3,11.22,14.11,27.9,14.11,50v102.6h-36.55V264.35c0-14.11-2.89-25-8.34-32.38-6.41-8-15.71-11.86-28.21-11.86q-17.31,0-26.93,13.46c-6.74,9-9.94,20.2-9.94,34.31v92.66h-36.55V127.13Z" transform="translate(0 0)"/><path class="cls-1" d="M1702,208.56q15.39,15.87,15.39,46.17V360.54h-34V338.73a64.79,64.79,0,0,1-23.73,18.92c-10.58,4.81-23.08,7.37-37.51,7.37-17.32,0-30.78-4.48-40.72-13.14-10.26-9-15.39-20.2-15.39-34,0-18.59,7-33,21.8-43q20.2-14.43,56.75-15.39l36.23-1v-6.41c0-21.8-11.86-32.38-35.59-32.38-10.26,0-18.27,1.6-24.36,5.45a28.74,28.74,0,0,0-13.79,19.23l-36.23-2.88c3.53-18.28,12.5-31.74,26.93-40.08,12.18-7.7,28.86-11.22,50-11.22C1672.19,190.29,1690.47,196.38,1702,208.56Zm-54.82,77.27c-29.18.64-43.61,10.9-43.61,30.78A17.1,17.1,0,0,0,1611,331c5.13,3.85,11.54,6.09,19.55,6.09,14.11,0,26-4.17,35.59-12.18,9.62-8.34,14.75-18.92,14.75-31.74v-8.34Z" transform="translate(0 0)"/><path class="cls-1" d="M1798.51,133.86a24.76,24.76,0,0,1-.32,34.95,26.46,26.46,0,0,1-35.26,0,23.69,23.69,0,0,1-7.06-17.64c0-7,2.25-12.82,7.06-17.31a24.68,24.68,0,0,1,17.63-6.73A25.46,25.46,0,0,1,1798.51,133.86Zm.32,60.92V360.54h-36.55V194.78Z" transform="translate(0 0)"/><path class="cls-1" d="M1991.84,258.26V360.54h-36.55V261.46c0-27.25-12.5-40.71-37.51-40.71a33.41,33.41,0,0,0-23.72,9.62c-7.7,7-12.19,17.31-13.47,30.45v99.72H1844V194.78h36.55V214a66.32,66.32,0,0,1,21.8-17.63,59.66,59.66,0,0,1,27.25-6.09C1971,190.29,1991.84,212.73,1991.84,258.26Z" transform="translate(0 0)"/></svg>