<svg id="图层_1" data-name="图层 1" xmlns="http://www.w3.org/2000/svg" viewBox="0 0 1988.81 500.01"><defs><style>.cls-1{fill:#08aeb2;}</style></defs><title>IONChain_bule</title><path class="cls-1" d="M437.59,325.7l-10.8-18.84A21,21,0,0,0,410,273.39a22.11,22.11,0,0,0-2.3.23L265.14,24.94a49.63,49.63,0,0,0-86.1,0l-5.66,9.87a20.72,20.72,0,0,0-4-.41,21,21,0,0,0-15.69,34.78L6.58,325.7a49.63,49.63,0,0,0,43,74.31H65a20.79,20.79,0,0,0,38.69,0H394.54a49.63,49.63,0,0,0,43-74.31Zm-13.68,41.7a33.61,33.61,0,0,1-29.39,16.94H103.73a20.79,20.79,0,0,0-38.73,0H49.63a34,34,0,0,1-29.46-50.85L167.65,76.29c.57,0,1.12.18,1.71.18a21,21,0,0,0,17.12-33l6.15-10.71a34,34,0,0,1,58.92,0L394,281.15a20.77,20.77,0,0,0,19.49,34L424,333.53a33.61,33.61,0,0,1-.09,33.87Z" transform="translate(0 0)"/><path class="cls-1" d="M437.5,124.7A49.11,49.11,0,0,0,394.58,100H373.35a20.79,20.79,0,0,0-38.7,0h-285a49.61,49.61,0,0,0-43,74.28l9,15.69A21,21,0,0,0,33.2,222.3c.33,0,.63-.08,1-.09l145,252.85a49.6,49.6,0,0,0,86.07,0l12.39-21.61A20.88,20.88,0,0,0,296.85,420L437.76,174.24A49.13,49.13,0,0,0,437.5,124.7ZM424,166.45,283.24,412a20.89,20.89,0,0,0-19.33,33.72l-12.36,21.55a33.94,33.94,0,0,1-58.89,0L48.33,215.59A20.87,20.87,0,0,0,28.4,180.82l-8.24-14.37a33.93,33.93,0,0,1,29.44-50.8h285a20.79,20.79,0,0,0,38.73,0h21.21A33.93,33.93,0,0,1,424,166.47Z" transform="translate(0 0)"/><path class="cls-1" d="M218.71,194.29a28.06,28.06,0,1,0-1.65,39.65q.85-.8,1.65-1.65A33.22,33.22,0,0,1,218.71,194.29Z" transform="translate(0 0)"/><path class="cls-1" d="M229.48,235.91a28.12,28.12,0,0,0,4.76,2.74,33.23,33.23,0,0,1,36.11-11.76,27.94,27.94,0,1,0-40.82,9Z" transform="translate(0 0)"/><path class="cls-1" d="M232.91,255.31A33.22,33.22,0,0,1,255.24,286a27.94,27.94,0,1,0-21.19-36A26.88,26.88,0,0,0,232.91,255.31Z" transform="translate(0 0)"/><path class="cls-1" d="M171.78,233.29A27.93,27.93,0,1,0,210.11,250a28.54,28.54,0,0,0-2.2-5A33.25,33.25,0,0,1,171.78,233.29Z" transform="translate(0 0)"/><path class="cls-1" d="M216.66,259.24A33.24,33.24,0,0,1,194.36,290a27.94,27.94,0,1,0,24.41-31.08c-.71.09-1.41.2-2.11.34Z" transform="translate(0 0)"/><path class="cls-1" d="M628.47,132.14V360.46H591.05V132.14Z" transform="translate(0 0)"/><path class="cls-1" d="M857.11,161.55c19.18,21.43,28.78,49.89,28.78,85.07s-9.6,63.31-28.78,84.74q-30.23,33.57-82.51,33.57c-35.17,0-62.67-11.51-82.5-33.89-19.19-21.75-28.46-49.89-28.46-84.42,0-34.86,9.27-63,28.46-84.75,19.83-23,47.33-34.21,82.5-34.21C809.46,127.66,837,138.85,857.11,161.55Zm-137.51,23c-12.47,15.35-18.55,35.81-18.55,62,0,25.9,6.08,46.36,18.55,61.71C732.39,324,750.94,332,774.6,332s41.89-7.68,54.68-22.71c12.48-15,18.87-35.81,18.87-62.67s-6.39-48-18.87-63.32c-12.79-15.35-31-22.7-54.68-22.7S732.71,168.59,719.6,184.58Z" transform="translate(0 0)"/><path class="cls-1" d="M958.48,132.14l112.88,164.68h1.28V132.14h37.73V360.46h-36.45L959.76,193.53h-1.28V360.46H921.06V132.14Z" transform="translate(0 0)"/><path class="cls-1" d="M1320.79,148.76c16.63,13.43,26.54,32,30.06,55h-36.46c-3.83-15-10.87-25.91-21.42-32.94-10.23-7-23.35-10.23-39.33-10.23-24,0-41.89,8-54.05,24.62-11.19,14.71-16.63,35.17-16.63,61.4,0,26.86,5.44,47.64,16.31,62C1211.11,324,1229.65,332,1254.6,332c16.3,0,29.73-4.16,40-11.83,10.87-8.64,18.55-21.75,23-39h36.46c-5.12,26.86-17,47.65-35.82,62.68q-26.38,21.1-63.31,21.1c-38.06,0-66.52-12.15-85.07-35.81-16.31-20.47-24.3-48-24.3-82.5,0-33.9,8.32-61.72,25.26-82.83,19.19-24.3,47-36.13,83.47-36.13C1281.14,127.66,1303.52,134.69,1320.79,148.76Z" transform="translate(0 0)"/><path class="cls-1" d="M1422.48,127.66V217.2a57.71,57.71,0,0,1,22.71-20.47c8-4.16,17.26-6.08,27.82-6.08,20.14,0,35.17,5.76,45.09,17.59,9.27,11.19,14.07,27.82,14.07,49.89V360.46h-36.46V264.52c0-14.07-2.88-24.94-8.31-32.29-6.4-8-15.67-11.84-28.14-11.84q-17.27,0-26.86,13.43c-6.72,9-9.92,20.15-9.92,34.22v92.42H1386V127.66Z" transform="translate(0 0)"/><path class="cls-1" d="M1699.73,208.88q15.35,15.83,15.35,46.05V360.46h-33.9V338.71a64.53,64.53,0,0,1-23.66,18.87c-10.55,4.8-23,7.35-37.41,7.35-17.27,0-30.7-4.47-40.61-13.11-10.24-8.95-15.35-20.14-15.35-33.89,0-18.55,7-32.94,21.74-42.85q20.14-14.4,56.6-15.35l36.14-1v-6.4c0-21.74-11.84-32.3-35.5-32.3-10.23,0-18.23,1.6-24.3,5.44a28.69,28.69,0,0,0-13.75,19.19l-36.14-2.88c3.52-18.23,12.47-31.66,26.86-40,12.16-7.68,28.78-11.2,49.89-11.2C1670,190.65,1688.22,196.73,1699.73,208.88ZM1645.05,286c-29.1.64-43.49,10.87-43.49,30.7a17,17,0,0,0,7.36,14.39c5.11,3.84,11.51,6.07,19.5,6.07,14.07,0,25.9-4.15,35.5-12.15,9.59-8.31,14.71-18.87,14.71-31.66V285Z" transform="translate(0 0)"/><path class="cls-1" d="M1796,134.37a23.66,23.66,0,0,1,7,17.27,23.41,23.41,0,0,1-7.35,17.59,26.41,26.41,0,0,1-35.18,0c-4.8-4.8-7-10.55-7-17.59s2.23-12.79,7-17.27a24.67,24.67,0,0,1,17.59-6.71A25.46,25.46,0,0,1,1796,134.37Zm.32,60.76V360.46h-36.46V195.13Z" transform="translate(0 0)"/><path class="cls-1" d="M1988.81,258.45v102h-36.45V261.65c0-27.19-12.47-40.62-37.42-40.62a33.37,33.37,0,0,0-23.66,9.6c-7.67,7-12.15,17.27-13.43,30.38v99.45h-36.46V195.13h36.46v19.19c6.4-7.68,13.75-13.75,21.74-17.59a59.5,59.5,0,0,1,27.19-6.08C1968,190.65,1988.81,213,1988.81,258.45Z" transform="translate(0 0)"/></svg>