<svg id="图层_1" data-name="图层 1" xmlns="http://www.w3.org/2000/svg" viewBox="0 0 444.33 500.01"><defs><style>.cls-1{fill:#fff;}</style></defs><title>logo 白色</title><path class="cls-1" d="M437.59,325.7l-10.8-18.84A21,21,0,0,0,410,273.39a22.11,22.11,0,0,0-2.3.23L265.14,24.94a49.63,49.63,0,0,0-86.1,0l-5.66,9.87a20.72,20.72,0,0,0-4-.41,21,21,0,0,0-15.69,34.78L6.58,325.7a49.63,49.63,0,0,0,43,74.31H65a20.79,20.79,0,0,0,38.69,0H394.54a49.63,49.63,0,0,0,43-74.31Zm-13.68,41.7a33.61,33.61,0,0,1-29.39,16.94H103.73a20.79,20.79,0,0,0-38.73,0H49.63a34,34,0,0,1-29.46-50.85L167.65,76.29c.57,0,1.12.18,1.71.18a21,21,0,0,0,17.12-33l6.15-10.71a34,34,0,0,1,58.92,0L394,281.15a20.77,20.77,0,0,0,19.49,34L424,333.53a33.61,33.61,0,0,1-.09,33.87Z" transform="translate(0 0)"/><path class="cls-1" d="M437.5,124.7A49.11,49.11,0,0,0,394.58,100H373.35a20.79,20.79,0,0,0-38.7,0h-285a49.61,49.61,0,0,0-43,74.28l9,15.69A21,21,0,0,0,33.2,222.3c.33,0,.63-.08,1-.09l145,252.85a49.6,49.6,0,0,0,86.07,0l12.39-21.61A20.88,20.88,0,0,0,296.85,420L437.76,174.24A49.13,49.13,0,0,0,437.5,124.7ZM424,166.45,283.24,412a20.89,20.89,0,0,0-19.33,33.72l-12.36,21.55a33.94,33.94,0,0,1-58.89,0L48.33,215.59A20.87,20.87,0,0,0,28.4,180.82l-8.24-14.37a33.93,33.93,0,0,1,29.44-50.8h285a20.79,20.79,0,0,0,38.73,0h21.21A33.93,33.93,0,0,1,424,166.47Z" transform="translate(0 0)"/><path class="cls-1" d="M218.71,194.29a28.06,28.06,0,1,0-1.65,39.65q.85-.8,1.65-1.65A33.22,33.22,0,0,1,218.71,194.29Z" transform="translate(0 0)"/><path class="cls-1" d="M229.48,235.91a28.12,28.12,0,0,0,4.76,2.74,33.23,33.23,0,0,1,36.11-11.76,27.94,27.94,0,1,0-40.82,9Z" transform="translate(0 0)"/><path class="cls-1" d="M232.91,255.31A33.22,33.22,0,0,1,255.24,286a27.94,27.94,0,1,0-21.19-36A26.88,26.88,0,0,0,232.91,255.31Z" transform="translate(0 0)"/><path class="cls-1" d="M171.78,233.29A27.93,27.93,0,1,0,210.11,250a28.54,28.54,0,0,0-2.2-5A33.25,33.25,0,0,1,171.78,233.29Z" transform="translate(0 0)"/><path class="cls-1" d="M216.66,259.24A33.24,33.24,0,0,1,194.36,290a27.94,27.94,0,1,0,24.41-31.08c-.71.09-1.41.2-2.11.34Z" transform="translate(0 0)"/></svg>