<svg id="图层_1" data-name="图层 1" xmlns="http://www.w3.org/2000/svg" viewBox="0 0 252 48"><defs><style>.cls-1,.cls-3{fill:none;stroke:#08aeb2;}.cls-1{stroke-width:1.5px;}.cls-2{fill:#fff;stroke:#979797;stroke-opacity:0.06;opacity:0.9;isolation:isolate;}.cls-3{stroke-width:3px;}</style></defs><title>视频</title><g id="视频"><path id="Rectangle-4-Copy" class="cls-1" d="M24,.75H228A23.25,23.25,0,0,1,251.25,24h0A23.25,23.25,0,0,1,228,47.25H24A23.25,23.25,0,0,1,.75,24h0A23.25,23.25,0,0,1,24,.75Z"/><circle id="Oval" class="cls-2" cx="24" cy="24" r="22"/><path id="Triangle" class="cls-3" d="M28.61,22.51a2,2,0,0,1,0,3.46l-7.15,5C20.1,32,19,31.4,19,29.73v-11c0-1.66,1.09-2.23,2.46-1.27Z"/></g></svg>