<?xml version="1.0" encoding="UTF-8"?>
<svg width="20px" height="20px" viewBox="0 0 20 20" version="1.1" xmlns="http://www.w3.org/2000/svg" xmlns:xlink="http://www.w3.org/1999/xlink">
    <!-- Generator: Sketch 51 (57462) - http://www.bohemiancoding.com/sketch -->
    <title>icon_linkedin copy@1x</title>
    <desc>Created with Sketch.</desc>
    <defs></defs>
    <g id="Page-1" stroke="none" stroke-width="1" fill="none" fill-rule="evenodd">
        <g id="首页底部展开2-手机版-copy" transform="translate(-43.000000, -707.000000)">
            <rect fill="#FFFFFF" x="0" y="0" width="375" height="1996"></rect>
            <g id="icon_linkedin" transform="translate(43.000000, 707.000000)">
                <g>
                    <rect id="Rectangle" fill="#08AEB2" x="0.0819948347" y="0.0786557609" width="19.9180052" height="19.9213442" rx="4"></rect>
                    <path d="M7.20147829,14.0909091 L5.25207661,14.0909091 L5.25207661,7.91511097 L7.20147829,7.91511097 L7.20147829,14.0909091 Z M6.17681509,7.14253602 L6.16276888,7.14253602 C5.45739358,7.14253602 5,6.67044336 5,6.07237779 C5,5.46244423 5.47114238,5 6.19056389,5 C6.90945922,5 7.3518458,5.46126651 7.36596062,6.07067914 C7.3659835,6.66897119 6.90948209,7.14253602 6.17681509,7.14253602 Z M15,14.0909091 L12.7897143,14.0909091 L12.7897143,10.8949977 C12.7897143,10.0585076 12.4443471,9.48773393 11.6838165,9.48773395 C11.1022033,9.48773395 10.7791865,9.87285502 10.6284758,10.2443641 C10.5721995,10.3773808 10.5808011,10.5630108 10.5808011,10.7491617 L10.5808011,14.0908864 L8.39117286,14.0909091 C8.39117286,14.0909091 8.41963127,8.42978346 8.39117286,7.91508832 L10.5808011,7.91508832 L10.5808011,8.88430061 C10.7102595,8.46051796 11.409664,7.85565773 12.5267255,7.85565773 C13.9116714,7.85565773 15,8.74419481 15,10.656777 L15,14.0909091 Z" id="Shape" fill="#FFFFFF" fill-rule="nonzero"></path>
                </g>
            </g>
        </g>
    </g>
</svg>