<svg id="图层_1" data-name="图层 1" xmlns="http://www.w3.org/2000/svg" viewBox="0 0 2241.73 500.01"><defs><style>.cls-1{fill:#08aeb2;}</style></defs><title>IONChain_bule</title><path class="cls-1" d="M437.59,325.7l-10.8-18.84A21,21,0,0,0,410,273.39c-.77,0-1.54.12-2.3.23L265.14,24.94a49.64,49.64,0,0,0-86.1,0l-5.66,9.87a21.54,21.54,0,0,0-4-.41,21,21,0,0,0-15.69,34.78L6.58,325.7a49.63,49.63,0,0,0,43,74.31H65a20.79,20.79,0,0,0,38.69,0H394.54a49.63,49.63,0,0,0,43-74.31Zm-13.68,41.7a33.59,33.59,0,0,1-29.39,16.94H103.73a20.79,20.79,0,0,0-38.73,0H49.63a34,34,0,0,1-29.46-50.85L167.65,76.29c.57,0,1.12.18,1.71.18a21,21,0,0,0,17.12-33l6.15-10.71a34,34,0,0,1,58.92,0L394,281.15a20.77,20.77,0,0,0,19.49,34L424,333.53a33.61,33.61,0,0,1-.09,33.87Z" transform="translate(0 0)"/><path class="cls-1" d="M437.5,124.7A49.11,49.11,0,0,0,394.58,100H373.35a20.8,20.8,0,0,0-38.7,0h-285a49.61,49.61,0,0,0-43,74.28l9,15.69A21,21,0,0,0,33.2,222.3c.33,0,.63-.08,1-.09l145,252.85a49.59,49.59,0,0,0,86.07,0l12.39-21.61A20.88,20.88,0,0,0,296.85,420L437.76,174.24A49.13,49.13,0,0,0,437.5,124.7ZM424,166.45,283.24,412a20.89,20.89,0,0,0-19.33,33.72l-12.36,21.55a33.94,33.94,0,0,1-58.89,0L48.33,215.59A20.87,20.87,0,0,0,28.4,180.82l-8.24-14.37a33.93,33.93,0,0,1,29.44-50.8h285a20.79,20.79,0,0,0,38.73,0h21.21A33.93,33.93,0,0,1,424,166.47Z" transform="translate(0 0)"/><path class="cls-1" d="M218.71,194.29a28.06,28.06,0,1,0-1.65,39.65q.85-.8,1.65-1.65A33.22,33.22,0,0,1,218.71,194.29Z" transform="translate(0 0)"/><path class="cls-1" d="M229.48,235.91a27.46,27.46,0,0,0,4.76,2.74,33.23,33.23,0,0,1,36.11-11.76,27.94,27.94,0,1,0-40.82,9Z" transform="translate(0 0)"/><path class="cls-1" d="M232.91,255.31A33.23,33.23,0,0,1,255.24,286a27.94,27.94,0,1,0-21.19-36A26.88,26.88,0,0,0,232.91,255.31Z" transform="translate(0 0)"/><path class="cls-1" d="M171.78,233.29A27.93,27.93,0,1,0,210.11,250a28.87,28.87,0,0,0-2.2-5A33.23,33.23,0,0,1,171.78,233.29Z" transform="translate(0 0)"/><path class="cls-1" d="M216.66,259.24A33.23,33.23,0,0,1,194.36,290a27.94,27.94,0,1,0,24.41-31.08c-.71.09-1.41.2-2.11.34Z" transform="translate(0 0)"/><path class="cls-1" d="M628.35,135.72V364.29H590.9V135.72Z" transform="translate(0 0)"/><path class="cls-1" d="M857.23,165.18C876.44,186.62,886,215.11,886,250.32s-9.6,63.39-28.81,84.83Q827,368.77,774.64,368.77c-35.21,0-62.74-11.53-82.59-33.93-19.2-21.77-28.49-49.94-28.49-84.52,0-34.89,9.29-63.06,28.49-84.83,19.85-23,47.38-34.25,82.59-34.25C809.54,131.24,837.07,142.45,857.23,165.18Zm-137.65,23C707.1,203.59,701,224.08,701,250.32c0,25.93,6.08,46.42,18.56,61.79,12.81,15.68,31.38,23.69,55.06,23.69s41.94-7.69,54.74-22.73c12.49-15.05,18.89-35.86,18.89-62.75s-6.4-48-18.89-63.38c-12.8-15.36-31-22.73-54.74-22.73S732.71,172.22,719.58,188.22Z" transform="translate(0 0)"/><path class="cls-1" d="M958.71,135.72l113,164.86H1073V135.72h37.78V364.29h-36.5L960,197.19h-1.28v167.1H921.26V135.72Z" transform="translate(0 0)"/><path class="cls-1" d="M1321.4,152.37c16.65,13.45,26.57,32,30.09,55.06H1315c-3.84-15.05-10.88-25.93-21.45-33-10.24-7-23.37-10.25-39.37-10.25-24,0-41.94,8-54.1,24.65-11.2,14.73-16.65,35.22-16.65,61.46,0,26.89,5.45,47.7,16.33,62.11,11.84,15.36,30.41,23.37,55.38,23.37,16.32,0,29.77-4.17,40-11.85,10.89-8.64,18.57-21.77,23-39.05h36.49c-5.12,26.89-17,47.69-35.85,62.74q-26.41,21.14-63.38,21.13c-38.09,0-66.58-12.17-85.15-35.86-16.33-20.48-24.33-48-24.33-82.59,0-33.93,8.32-61.78,25.29-82.9,19.21-24.33,47.06-36.18,83.55-36.18C1281.71,131.24,1304.12,138.29,1321.4,152.37Z" transform="translate(0 0)"/><path class="cls-1" d="M1627.11,246.8h-35.53c-2.56-8.32-6.4-14.4-11.53-17.6-5.44-3.52-13.76-5.12-25-5.12-9.61,0-17,1.28-21.77,4.16-5.76,2.88-8.32,7.36-8.32,13.76,0,5.12,4.16,9.93,13.12,13.77,5.44,2.24,16.33,5.44,33,9.6,18.57,4.48,32.65,9.6,41.62,15.69,13.12,8.32,19.84,20.16,19.84,34.89,0,35.21-25,52.82-74.58,52.82-46.1,0-70.75-19.53-74.27-58.26h35.53c1.92,10.56,5.77,17.92,11.21,22.4,5.44,3.85,14.08,6.09,26.25,6.09,25.6,0,38.41-7.05,38.41-20.49q0-11.52-14.41-18.25c-5.12-2.56-16-5.44-32.65-9.28q-29.28-6.72-41.29-14.41-19.21-12-19.21-33.61c0-15.36,6.08-27.21,18.89-35.53,12.48-9,28.81-13.12,49.3-13.12C1599.26,194.31,1623.27,211.59,1627.11,246.8Z" transform="translate(0 0)"/><path class="cls-1" d="M1713.22,198.79H1750v30.09h-36.82v93.47c0,3.84.64,6.72,2.56,9,1.92,1.92,4.48,2.88,8.33,2.88h21.76v30.1H1718q-21.6,0-31.69-11.53c-6.4-7-9.6-17-9.6-30.41V228.88H1647V198.79h29.77V160.37l36.49-15Z" transform="translate(0 0)"/><path class="cls-1" d="M1914.58,219c15,16.33,22.72,37.14,22.72,62.75,0,25.28-7.68,46.09-22.4,62.1-15.37,16.64-35.86,25-60.83,25-25.28,0-45.45-8.33-60.82-25-15-16-22.41-36.82-22.41-62.1,0-25.61,7.37-46.42,22.73-62.75,15-16.64,35.22-24.64,60.5-24.64C1879,194.31,1899.21,202.31,1914.58,219ZM1818.86,242c-7,10.25-10.56,23.69-10.56,39.7s3.52,29.13,10.56,39.37c8.32,11.84,19.85,17.93,35.21,17.93,15,0,26.89-6.09,35.22-17.93,7-10.56,10.88-23.69,10.88-39.37,0-16-3.84-29.45-10.88-39.7-8.33-12.16-20.17-17.92-35.22-17.92C1838.71,224.08,1827.18,229.84,1818.86,242Z" transform="translate(0 0)"/><path class="cls-1" d="M2068.23,198.47V235a78.8,78.8,0,0,0-23.69-3.52c-9.6,0-18.25,3.52-25.93,11.2-9,8.65-13.12,19.85-13.12,33.93v87.72h-36.18V198.79h36.18v23.69c4.48-8.33,9.6-14.73,15.68-19.21,7.37-6.08,16-9,26.25-9C2055.42,194.31,2062.47,195.59,2068.23,198.47Z" transform="translate(0 0)"/><path class="cls-1" d="M2221.88,221.84c13.13,16.64,19.85,40,19.85,69.78H2117.85c1.28,15.36,5.44,27.21,12.48,35.21S2147.62,339,2160.74,339c11.21,0,20.17-2.56,27.21-7.69,5.44-4.16,10.25-10.88,14.73-20.16h36.49c-3.84,15.36-11.52,28.49-23.05,38.73-14.72,12.48-33,18.89-55.06,18.89-24.65,0-44.17-7.69-58.58-22.73-15.36-15.69-23.05-37.13-23.05-64.66,0-24.65,7.05-45.14,21.77-61.79,14.09-17,33.61-25.28,58.26-25.28C2186.67,194.31,2207.48,203.27,2221.88,221.84Zm-90,12.48q-10.08,10.08-13.44,29.77h85.15c-3.2-26.89-17.61-40-43.22-40C2148.26,224.08,2139,227.28,2131.93,234.32Z" transform="translate(0 0)"/></svg>