<?xml version="1.0" encoding="utf-8"?>
<!-- Generator: Adobe Illustrator 22.0.1, SVG Export Plug-In . SVG Version: 6.00 Build 0)  -->
<svg version="1.1" id="图层_1" xmlns="http://www.w3.org/2000/svg" xmlns:xlink="http://www.w3.org/1999/xlink" x="0px" y="0px"
	 viewBox="0 0 99 99" style="enable-background:new 0 0 99 99;" xml:space="preserve">
<style type="text/css">
	.st0{fill:#08AEB2;}
	.st1{fill:#FFFFFF;}
</style>
<title>Oval 2@1x</title>
<desc>Created with Sketch.</desc>
<g id="登录">
	<g id="IONChain_bule" transform="translate(1394.000000, 313.000000)">
		<g id="Oval-2" transform="translate(7.000000, 0.000000)">
			<circle class="st0" cx="-1351.5" cy="-263.5" r="49.5"/>
			<g id="形状" transform="translate(13.795082, 8.926230)">
				<path id="Shape" class="st1" d="M-1330.9-260.6l-1.7-3c0.8-1,0.9-2.4,0.3-3.5c-0.6-1.1-1.7-1.9-3-1.9c-0.1,0-0.2,0-0.4,0
					l-22.8-40c-1.4-2.5-4-4-6.9-4s-5.5,1.5-6.9,4l-0.9,1.6c-0.2,0-0.4-0.1-0.6-0.1c-1.3,0-2.5,0.8-3,2c-0.5,1.2-0.3,2.6,0.5,3.6
					l-23.6,41.3c-1.4,2.5-1.4,5.5,0,8c1.4,2.5,4,4,6.9,4h2.5c0.5,1.3,1.7,2.1,3.1,2.1c1.4,0,2.6-0.8,3.1-2.1h46.6
					c2.8,0,5.5-1.5,6.9-4C-1329.5-255.1-1329.5-258.1-1330.9-260.6L-1330.9-260.6z M-1333.1-253.9c-1,1.7-2.8,2.7-4.7,2.7h-46.6
					c-0.5-1.3-1.7-2.1-3.1-2.1s-2.6,0.8-3.1,2.1h-2.5c-1.9,0-3.7-1-4.7-2.7c-1-1.7-1-3.8,0-5.5l23.6-41.4c0.1,0,0.2,0,0.3,0
					c1.2,0,2.4-0.7,3-1.8c0.6-1.1,0.5-2.5-0.2-3.5l1-1.7c1-1.7,2.8-2.7,4.7-2.7c1.9,0,3.7,1,4.7,2.7l22.8,40
					c-0.9,1.1-1.1,2.6-0.4,3.8c0.7,1.2,2.1,1.9,3.5,1.6l1.7,3C-1332.1-257.6-1332.1-255.5-1333.1-253.9z"/>
				<path id="Shape_1_" class="st1" d="M-1330.9-292.9c-1.4-2.5-4-4-6.9-4h-3.4c-0.5-1.3-1.7-2.1-3.1-2.1c-1.4,0-2.6,0.8-3.1,2.1
					h-45.7c-2.8,0-5.5,1.5-6.9,4c-1.4,2.5-1.4,5.5,0,8l1.4,2.5c-0.7,1-0.7,2.4-0.1,3.4s1.7,1.8,2.9,1.8c0.1,0,0.1,0,0.2,0l23.2,40.7
					c1.4,2.5,4,4,6.9,4s5.5-1.5,6.9-4l2-3.5c1.3,0.2,2.7-0.5,3.3-1.7c0.7-1.2,0.6-2.6-0.3-3.7l22.6-39.6
					C-1329.5-287.4-1329.5-290.5-1330.9-292.9z M-1333.1-286.2l-22.5,39.5c-1.4-0.2-2.7,0.5-3.4,1.7s-0.6,2.7,0.3,3.8l-2,3.5
					c-1,1.7-2.8,2.7-4.7,2.7c-1.9,0-3.7-1-4.7-2.7l-23.1-40.5c1-1.1,1.2-2.7,0.5-4c-0.7-1.3-2.2-1.9-3.7-1.6l-1.3-2.3
					c-1-1.7-1-3.8,0-5.5s2.8-2.7,4.7-2.7h45.7c0.5,1.3,1.7,2.1,3.1,2.1s2.6-0.8,3.1-2.1h3.4c1.9,0,3.7,1,4.7,2.7
					C-1332.1-290-1332.1-287.9-1333.1-286.2L-1333.1-286.2z"/>
				<path id="Shape_2_" class="st1" d="M-1366-281.7c-1.7-1.8-4.5-2-6.4-0.3s-1.9,4.5-0.3,6.4c1.7,1.8,4.5,2,6.4,0.3
					c0.1-0.1,0.2-0.2,0.3-0.3C-1367.2-277.4-1367.2-279.9-1366-281.7z"/>
				<path id="Shape_3_" class="st1" d="M-1364.2-275c0.2,0.2,0.5,0.3,0.8,0.4c1.3-1.8,3.7-2.5,5.8-1.9c1.2-2.1,0.5-4.8-1.6-6
					s-4.7-0.7-6.1,1.3C-1366.7-279.2-1366.2-276.4-1364.2-275L-1364.2-275z"/>
				<path id="Shape_4_" class="st1" d="M-1363.7-271.9c2.1,0.7,3.5,2.7,3.6,4.9c2.4,0.5,4.7-1,5.2-3.4c0.6-2.3-0.8-4.7-3.1-5.4
					c-2.3-0.7-4.7,0.7-5.5,2.9C-1363.6-272.5-1363.7-272.2-1363.7-271.9z"/>
				<path id="Shape_5_" class="st1" d="M-1373.5-275.4c-2.2,1-3.2,3.6-2.2,5.8c0.9,2.2,3.4,3.3,5.7,2.5c2.3-0.8,3.4-3.3,2.7-5.6
					c-0.1-0.3-0.2-0.5-0.4-0.8C-1369.8-272.9-1372.1-273.7-1373.5-275.4z"/>
				<path id="Shape_6_" class="st1" d="M-1366.3-271.3c0,2.2-1.5,4.2-3.6,5c0.3,2.5,2.5,4.2,5,3.9s4.2-2.5,3.9-5s-2.5-4.2-5-3.9
					C-1366.1-271.3-1366.2-271.3-1366.3-271.3L-1366.3-271.3z"/>
			</g>
		</g>
	</g>
</g>
</svg>
