<?xml version="1.0" encoding="UTF-8"?>
<svg width="527px" height="346px" viewBox="0 0 527 346" version="1.1" xmlns="http://www.w3.org/2000/svg" xmlns:xlink="http://www.w3.org/1999/xlink">
    <!-- Generator: Sketch 51 (57462) - http://www.bohemiancoding.com/sketch -->
    <title>文案-英@1x</title>
    <desc>Created with Sketch.</desc>
    <defs>
        <polygon id="path-1" points="0 346 527 346 527 0 0 0"></polygon>
    </defs>
    <g id="Page-1" stroke="none" stroke-width="1" fill="none" fill-rule="evenodd">
        <g id="社区" transform="translate(-233.000000, -386.000000)">
            <g id="文案-英" transform="translate(233.000000, 386.000000)">
                <g>
                    <path d="M53.6004938,230 L53.6004938,226.500504 C59.5995062,221.886249 58.9990123,215.681497 58.9990123,208.523254 L53,208.523254 L53,188 L65,188 L65,205.021742 C65,217.908999 64.3995062,223.158243 53.6004938,230" id="Fill-1" fill="#FFFFFF"></path>
                    <path d="M239.600494,230 L239.600494,226.500504 C245.599506,221.886249 244.999012,215.681497 244.999012,208.523254 L239,208.523254 L239,188 L251,188 L251,205.021742 C251,217.908999 250.399506,223.158243 239.600494,230" id="Fill-3" fill="#FFFFFF"></path>
                    <mask id="mask-2" fill="white">
                        <use xlink:href="#path-1"></use>
                    </mask>
                    <g id="Clip-6"></g>
                    <polygon id="Fill-5" fill="#FFFFFF" mask="url(#mask-2)" points="428 209 436 209 436 150 428 150"></polygon>
                    <path d="M457.484279,164.793991 C457.484279,161.200269 457.484279,158.943699 456.596881,157.522599 C456.109919,156.771075 455.142031,155.767711 453.121741,155.767711 C452.71728,155.767711 451.423409,155.851658 450.373019,156.603182 C448.352729,157.940334 448.515721,160.364798 448.515721,164.793991 L448.515721,196.381974 C448.515721,199.557961 448.998659,202.564056 452.878259,202.564056 C457.727761,202.564056 457.484279,198.052915 457.484279,194.543139 L457.484279,164.793991 Z M464.032112,202.146321 C461.607361,209.081926 454.17213,208.999978 452.475811,208.999978 C451.82787,208.999978 449.644588,208.999978 447.7068,208.246455 C446.17146,207.662825 442.776809,205.656097 441.56544,201.061009 C441.08049,199.306121 441,198.220809 441,194.876928 L441,165.461568 C441,160.196904 441,155.100134 445.445041,151.592357 C446.817389,150.505046 449.24214,149 453.28272,149 C454.496101,149 457.88874,149 460.715939,151.340517 C462.172801,152.509776 462.97971,153.84493 463.303681,154.514505 C464.91951,157.438652 465,160.530693 465,167.134508 L465,195.212715 C465,197.469285 464.839021,199.89175 464.032112,202.146321 Z" id="Fill-7" fill="#FFFFFF" mask="url(#mask-2)"></path>
                    <polygon id="Fill-8" fill="#FFFFFF" mask="url(#mask-2)" points="487.619851 209 478.427414 165.712413 479.07765 209 472 209 472 150 480.13707 150 489.167454 190.197473 488.841323 150 496 150 496 209"></polygon>
                    <path d="M524.862233,203.847943 C523.463674,205.925065 520.502744,209 514.335163,209 C508.415349,209 505.452371,206.257007 504.05586,204.179885 C502,201.188432 502,197.531107 502,194.12423 L502,165.787915 C502,164.458159 502.081907,163.128404 502.163814,161.798648 C502.327627,159.554562 502.739209,152.158418 510.141535,149.747366 C511.785814,149.164977 513.184372,149 514.994512,149 C519.270047,149 521.573675,150.329756 523.052093,151.576029 C524.286838,152.573842 525.18986,153.820115 525.765255,155.233353 C526.918093,157.892864 527,160.552375 527,163.376863 L527,170.854502 L519.270047,170.854502 L519.270047,161.798648 C519.270047,160.552375 519.681628,155.730272 514.580883,155.730272 C512.938652,155.730272 512.113441,156.229179 511.456139,156.728086 C509.56614,158.389783 509.729953,160.884317 509.729953,163.128404 L509.729953,195.537468 C509.729953,196.201352 509.729953,196.867223 509.81186,197.531107 C509.893767,199.11131 510.141535,202.269728 514.417069,202.269728 C514.912605,202.269728 516.227209,202.351222 517.378,201.436891 C519.351953,200.025641 519.270047,197.531107 519.270047,195.370503 L519.270047,183.98708 L527,183.98708 L527,194.955079 C527,198.196979 526.75428,201.021467 524.862233,203.847943" id="Fill-9" fill="#FFFFFF" mask="url(#mask-2)"></path>
                    <path d="M55.3493834,48.9044302 C54.5461995,50.3173375 53.1127944,51.158595 51.5123908,51.158595 L13.5500207,51.158595 C13.1464406,50.1288147 12.1683057,49.3990491 11.0211841,49.3990491 C9.87406247,49.3990491 8.89791564,50.1288147 8.49433558,51.158595 L6.48836379,51.158595 C4.88796013,51.158595 3.45256703,50.3173375 2.65137116,48.9044302 C1.85017529,47.4935501 1.84619913,45.8069807 2.64143076,44.3900192 L21.8939886,10.1579316 C21.9675475,10.164013 22.0391184,10.1782029 22.1166535,10.1782029 C23.6216293,10.1782029 24.8423099,8.9254386 24.8423099,7.3807681 C24.8423099,6.78681999 24.6594066,6.23746867 24.3512543,5.78541943 L25.1544383,4.35629515 C25.9536461,2.93527937 27.3910273,2.08591331 28.9993832,2.08591331 C30.6077392,2.08591331 32.0451204,2.93527937 32.8463163,4.35629515 L51.4388318,37.4207578 C51.0511564,37.9032139 50.8086108,38.5154062 50.8086108,39.1904393 C50.8086108,40.737137 52.0292913,41.9899012 53.5342672,41.9899012 C53.6873493,41.9899012 53.8344671,41.96963 53.9835731,41.9432773 L55.3593238,44.3900192 C56.1525674,45.8069807 56.1505793,47.4935501 55.3493834,48.9044302 M57.1307023,43.3541575 L55.7211542,40.8466018 C56.0571396,40.3823898 56.2619117,39.8147943 56.2619117,39.1904393 C56.2619117,37.6437417 55.0412311,36.3909774 53.5342672,36.3909774 C53.4308871,36.3909774 53.3334712,36.4112487 53.2360553,36.4234115 L34.6196828,3.32246056 C33.4506923,1.2406015 31.3512808,0 28.9993832,0 C26.6494738,0 24.5500623,1.2406015 23.3810718,3.32246056 L22.6415063,4.6340115 C22.4705315,4.60157747 22.2955806,4.58130621 22.1166535,4.58130621 C20.6096895,4.58130621 19.389009,5.83407047 19.389009,7.3807681 C19.389009,8.08215391 19.6514354,8.71867168 20.068932,9.20923633 L0.868064223,43.3541575 C-0.29496204,45.4218266 -0.288997803,47.8868126 0.883968856,49.9504275 C2.05295936,52.0120153 4.15038279,53.2465355 6.48836379,53.2465355 L8.49632366,53.2465355 C8.89990372,54.2722615 9.87605055,55 11.0211841,55 C12.1663176,55 13.1444526,54.2722615 13.5480326,53.2465355 L51.5123908,53.2465355 C53.8503718,53.2465355 55.9458071,52.0120153 57.1187738,49.9504275 C58.2897524,47.8868126 58.2937285,45.4218266 57.1307023,43.3541575" id="Fill-10" fill="#FFFFFF" mask="url(#mask-2)"></path>
                    <path d="M55.3576132,22.6018723 L36.9817792,55.283208 C36.8485922,55.2609096 36.717393,55.2406384 36.5802303,55.2406384 C35.0734278,55.2406384 33.852878,56.4954298 33.852878,58.0401003 C33.852878,58.7009435 34.0834705,59.2989459 34.4552015,59.7753207 L32.8430421,62.6437049 C32.041932,64.0647206 30.6066927,64.9140867 28.9985091,64.9140867 C27.3943012,64.9140867 25.9550862,64.0647206 25.1579519,62.6437049 L6.31894514,29.1454371 C6.77615433,28.6427097 7.05843131,27.9757851 7.05843131,27.237911 C7.05843131,25.6912133 5.83788155,24.4384491 4.33306693,24.4384491 C4.12036527,24.4384491 3.91561506,24.468856 3.71682845,24.5154799 L2.64139291,22.6018723 C1.84624648,21.1889651 1.85022222,19.5023957 2.65133224,18.0894884 C3.45443013,16.6806354 4.8856937,15.8373507 6.48393802,15.8373507 L43.6908272,15.8373507 C44.094364,16.8691582 45.0704063,17.5968967 46.217405,17.5968967 C47.3644037,17.5968967 48.3444217,16.8691582 48.7459706,15.8373507 L51.5130802,15.8373507 C53.1133124,15.8373507 54.5465638,16.6806354 55.3476738,18.0894884 C56.1487839,19.5023957 56.1507717,21.1889651 55.3576132,22.6018723 M57.1168746,17.0455182 C55.9460215,14.9839304 53.8508107,13.7534645 51.5130802,13.7534645 L48.7439827,13.7534645 C48.3404459,12.7257113 47.3644037,12 46.217405,12 C45.0723941,12 44.0963519,12.7257113 43.6928151,13.7534645 L6.48393802,13.7534645 C4.14819539,13.7534645 2.05497242,14.9839304 0.882131442,17.0455182 C-0.288721672,19.107106 -0.29468527,21.572092 0.868216379,23.6397612 L2.04304522,25.7277016 C1.76871971,26.165561 1.60571469,26.6804511 1.60571469,27.237911 C1.60571469,28.7846086 2.82626446,30.0373728 4.33306693,30.0373728 C4.37679999,30.0373728 4.41456944,30.0252101 4.4583025,30.023183 L23.3827875,63.6815937 C24.5516527,65.7593985 26.6508393,67 28.9985091,67 C31.3481668,67 33.4493412,65.7593985 34.6162186,63.6815937 L36.2343416,60.805101 C36.34765,60.8192909 36.4609583,60.8395621 36.5802303,60.8395621 C38.0850449,60.8395621 39.3055947,59.5867979 39.3055947,58.0401003 C39.3055947,57.4015554 39.0889173,56.81977 38.7390528,56.3474495 L57.1327776,23.6397612 C58.2936913,21.572092 58.2897156,19.107106 57.1168746,17.0455182" id="Fill-11" fill="#FFFFFF" mask="url(#mask-2)"></path>
                    <path d="M28.996227,26.1226037 C28.322751,25.3850016 27.3945991,25 26.4570148,25 C25.7514685,25 25.0402627,25.2172781 24.4252677,25.6689879 C22.8821209,26.8011213 22.5368937,28.9948681 23.6612403,30.5558399 C24.2045487,31.3125015 25.0063059,31.8080481 25.9193659,31.9567121 C26.8343123,32.1015642 27.7492588,31.8804741 28.4963078,31.329655 C28.6755241,31.1981446 28.845308,31.0456687 29,30.8741333 C28.01714,29.4580136 28.0114805,27.5501591 28.996227,26.1226037" id="Fill-12" fill="#FFFFFF" mask="url(#mask-2)"></path>
                    <path d="M31.4402607,31.64 C31.6233735,31.776 31.8198383,31.898 32.0315625,32 C33.0730168,30.55 34.8869784,29.922 36.5540682,30.454 C37.414317,28.844 37.0023132,26.8 35.5564847,25.698 C34.9365714,25.226 34.2174721,25 33.504095,25 C32.4206773,25 31.3506117,25.524 30.6677534,26.512 C29.5328352,28.15 29.8799867,30.448 31.4402607,31.64" id="Fill-13" fill="#FFFFFF" mask="url(#mask-2)"></path>
                    <path d="M32,34.0858602 C33.6425249,34.6503632 34.7758288,36.1913036 34.808373,37.9324901 C36.5427874,38.2757689 38.2733731,37.2821674 38.8266245,35.5829373 C39.4277351,33.7463956 38.4150361,31.7687282 36.5734173,31.1718045 C34.7279697,30.5748808 32.7427735,31.5837391 32.1435774,33.4183736 C32.0746602,33.6319693 32.0268011,33.8551006 32,34.0858602" id="Fill-14" fill="#FFFFFF" mask="url(#mask-2)"></path>
                    <path d="M23.0317441,31 C21.4330664,31.7740265 20.6213421,33.6800919 21.1720189,35.4601529 C21.4635537,36.3921849 22.079016,37.1522109 22.9136058,37.5982262 C23.7443847,38.0422414 24.6933019,38.1222442 25.5812444,37.8182338 C26.469187,37.5162234 27.1932603,36.8682012 27.6162716,35.9921712 C28.0411883,35.1201413 28.1155011,34.1241071 27.8277772,33.1920752 C27.7572754,32.9680675 27.6658135,32.75006 27.5514861,32.5380527 C25.8956447,33.0660708 24.0816504,32.45805 23.0317441,31" id="Fill-15" fill="#FFFFFF" mask="url(#mask-2)"></path>
                    <path d="M28.8049781,35.069339 C28.7724289,36.8000982 27.6523523,38.3478695 26,38.9178001 C26.208698,40.6657143 27.6925602,42 29.4846827,42 C31.4223195,42 33,40.4293552 33,38.5003593 C33,36.346441 31.0068381,34.6290248 28.8049781,35.069339" id="Fill-16" fill="#FFFFFF" mask="url(#mask-2)"></path>
                    <path d="M201.73913,346 L30.2608696,346 C13.5488,346 0,332.568 0,316 C0,299.432 13.5488,286 30.2608696,286 L201.73913,286 C218.4512,286 232,299.432 232,316 C232,332.568 218.4512,346 201.73913,346" id="Fill-17" fill="#FFFFFF" mask="url(#mask-2)"></path>
                    <path d="M58.3370812,304 L58.3370812,307.039923 L46.7184488,307.039923 C45.8903167,307.039923 45.3244608,307.184682 45.0250115,307.478219 C44.6759982,307.826041 44.5025241,308.252274 44.5025241,308.754907 L44.5025241,310.487985 C44.5025241,310.982575 44.7028453,311.41484 45.1096833,311.778746 C45.512391,312.156726 45.9977054,312.343705 46.5635613,312.343705 L54.8510785,312.343705 C56.1005048,312.343705 57.1083066,312.74179 57.8703534,313.537961 C58.6241395,314.3281 59,315.458018 59,316.935759 L59,320.438104 C59,321.831403 58.6138137,322.91709 57.8435062,323.697176 C56.9761358,324.565725 55.8382285,325 54.425654,325 L41.1837999,325 L41.1837999,321.966108 L53.6078476,321.966108 C54.2088114,321.966108 54.6941257,321.795213 55.0617256,321.455433 C55.3529142,321.17999 55.4995411,320.598947 55.4995411,319.710292 L55.4995411,316.907611 C55.4995411,316.467305 55.2826985,316.077262 54.8510785,315.737482 C54.5578247,315.500239 54.1096833,315.379607 53.5087196,315.379607 L44.6284993,315.379607 C43.4720055,315.379607 42.5447453,315.037817 41.8487838,314.350215 C41.2829279,313.80134 41,312.960938 41,311.83303 L41,308.288463 C41,307.070081 41.1693437,306.23169 41.5100964,305.775299 C42.3754016,304.593107 43.5360257,304 44.9960991,304 L58.3370812,304 Z" id="Fill-18" fill="#169194" mask="url(#mask-2)"></path>
                    <path d="M62.202329,308 L65.1164483,308 L65.1164483,312.057234 L70,312.057234 L70,314.706647 L65.1164483,314.706647 L65.1164483,321.903774 C65.1164483,322.484551 65.2565502,322.870368 65.5407569,323.067381 C65.786936,323.256185 66.3333333,323.348535 67.1819505,323.348535 L69.863901,323.348535 L69.863901,326 L66.415393,326 C65.2465429,326 64.411936,325.860449 63.9115721,325.579295 C62.7707424,324.924638 62.202329,323.775396 62.202329,322.129518 L62.202329,314.706647 L59,314.706647 L59,312.057234 L62.202329,312.057234 L62.202329,308 Z" id="Fill-19" fill="#169194" mask="url(#mask-2)"></path>
                    <path d="M74.9977537,323.408002 L80.4582452,323.408002 C81.2609672,323.408002 81.6633192,323.008461 81.6633192,322.211387 L81.6633192,315.706296 C81.6633192,315.397103 81.5681818,315.136096 81.379889,314.925283 C81.179704,314.706439 80.7634778,314.596013 80.1331924,314.596013 L75.417944,314.596013 C74.7757664,314.596013 74.3615222,314.706439 74.1712474,314.925283 C73.9809725,315.136096 73.8858351,315.397103 73.8858351,315.706296 L73.8858351,322.211387 C73.8858351,323.008461 74.2564746,323.408002 74.9977537,323.408002 M86,323.271476 L86,326 L85.2943975,326 C84.6343816,326 84.0120243,325.787179 83.4253436,325.357522 C83.2707452,325.439839 83.1577696,325.502079 83.0864165,325.548258 C82.5611786,325.851427 82.047833,326 81.5424154,326 L74.1316068,326 C73.6499736,326 73.1088795,325.823319 72.5043605,325.46594 C71.5014535,324.871648 71,323.905923 71,322.568765 L71,315.706296 C71,314.553851 71.3210888,313.648358 71.9632664,312.989818 C72.5935518,312.32927 73.3625793,312 74.2663848,312 L80.9458245,312 C82.0101744,312 82.8783034,312.325255 83.5462474,312.977771 C84.2141913,313.626273 84.5491543,314.413308 84.5491543,315.336871 L84.5491543,322.211387 C84.5491543,322.879966 85.0307875,323.233329 86,323.271476" id="Fill-20" fill="#169194" mask="url(#mask-2)"></path>
                    <path d="M95.7374454,324.162136 L94.8552129,324.162136 C94.0896561,324.162136 93.4366812,324.019799 92.8962882,323.733091 C92.1204967,323.324379 91.6026201,322.694028 91.3447052,321.842038 L88,311 L90.9516921,311 L93.7089247,319.979452 C93.9954967,320.914812 94.5891103,321.382491 95.4856714,321.382491 C96.3719978,321.382491 96.9635644,320.914812 97.2624181,319.979452 L100.06059,311 L103,311 L98.1589793,326.136558 C97.7106987,327.535531 97.1866812,328.499358 96.5910207,329.028039 C95.8541212,329.676691 94.8367904,330 93.5410753,330 L90.8820961,330 L90.8820961,327.374893 L92.6731714,327.374893 C93.3814138,327.374893 93.9218068,327.248823 94.2963974,326.998716 C94.6955513,326.730308 95.0271561,326.219927 95.2891648,325.469606 L95.7374454,324.162136 Z" id="Fill-21" fill="#169194" mask="url(#mask-2)"></path>
                    <polygon id="Fill-22" fill="#169194" mask="url(#mask-2)" points="114 304 131 304 131 307.039686 124.141605 307.039686 124.141605 325 120.774974 325 120.774974 307.039686 114 307.039686"></polygon>
                    <path d="M146,312 L146,322.283043 C146,323.338127 145.738282,324.195887 145.208852,324.856321 C144.599508,325.619445 143.75242,326 142.667589,326 L136.304441,326 C135.229599,326 134.3925,325.619445 133.793146,324.856321 C133.263716,324.195887 133,323.338127 133,322.283043 L133,312 L135.908867,312 L135.908867,322.03538 C135.908867,322.945491 136.300446,323.396519 137.083602,323.396519 L141.658675,323.396519 C142.613647,323.396519 143.09313,322.901194 143.09313,321.910542 L143.09313,312 L146,312 Z" id="Fill-23" fill="#169194" mask="url(#mask-2)"></path>
                    <path d="M147,326 L147,315.600289 C147,314.510275 147.329674,313.6411 147.989021,312.996816 C148.676512,312.332272 149.470543,312 150.367094,312 L156.138395,312 C157.338488,312 158.285295,312.332272 158.982836,312.996816 C159.660275,313.65123 160,314.477858 160,315.474674 L160,326 L157.073141,326 L157.073141,316.01563 C157.073141,315.496961 156.980671,315.142402 156.797742,314.947902 C156.588681,314.727062 156.220813,314.61563 155.69816,314.61563 L151.671718,314.61563 C150.901809,314.61563 150.407299,314.745297 150.188186,315.002605 C150.013298,315.207236 149.926859,315.545586 149.926859,316.01563 L149.926859,326 L147,326 Z" id="Fill-24" fill="#169194" mask="url(#mask-2)"></path>
                    <path d="M163.909091,317.77373 L170.642358,317.77373 C171.609391,317.77373 172.090909,317.34339 172.090909,316.48271 L172.090909,315.883023 C172.090909,315.382951 171.985015,315.042266 171.777223,314.858973 C171.547453,314.66771 171.193806,314.576064 170.71029,314.576064 L165.357642,314.576064 C164.856144,314.576064 164.546454,314.601964 164.428571,314.657749 C164.082917,314.801195 163.909091,315.141881 163.909091,315.675822 L163.909091,317.77373 Z M163.909091,320.349794 L163.909091,322.120962 C163.909091,322.629002 163.991009,322.963711 164.154845,323.129074 C164.356643,323.326313 164.824176,323.427921 165.561439,323.427921 L174.548452,323.427921 L174.548452,326 L164.81019,326 C163.673327,326 162.884116,325.842607 162.448551,325.525829 C161.481518,324.824534 161,323.880176 161,322.692757 L161,315.540344 C161,314.279209 161.313686,313.37669 161.943057,312.832788 C162.598402,312.276932 163.591409,312 164.92008,312 L171.051948,312 C172.318681,312 173.351648,312.358617 174.152847,313.077843 C174.716284,313.575921 175,314.336986 175,315.365021 L175,317.148143 C175,318.018785 174.722278,318.769888 174.166833,319.395475 C173.609391,320.031023 172.838162,320.349794 171.845155,320.349794 L163.909091,320.349794 Z" id="Fill-25" fill="#169194" mask="url(#mask-2)"></path>
                    <path d="M180.234904,323.393646 L185.6279,323.393646 C186.168612,323.393646 186.547918,323.274717 186.757746,323.034844 C186.961522,322.807065 187.062401,322.444231 187.062401,321.948359 L187.062401,315.677385 C187.062401,314.897293 186.652832,314.508255 185.833694,314.508255 L180.234904,314.508255 C179.782966,314.508255 179.46217,314.617105 179.268482,314.838837 C179.048566,315.094836 178.937599,315.373008 178.937599,315.677385 L178.937599,321.948359 C178.937599,322.472452 179.030408,322.825206 179.214008,323.008639 C179.425854,323.220292 179.623577,323.345268 179.807177,323.381551 C179.825335,323.389614 179.968583,323.393646 180.234904,323.393646 Z M187.062401,311.901901 L187.062401,305 L190,305 L190,322.097524 C190,323.184008 189.844646,323.968132 189.529903,324.455942 C188.858049,325.48397 187.78873,326 186.317913,326 L179.544891,326 C178.507854,326 177.66047,325.68756 177.006773,325.06268 C176.334919,324.419658 176,323.583125 176,322.555097 L176,315.252064 C176,314.314744 176.322813,313.526589 176.966422,312.893646 C177.638276,312.232482 178.455397,311.901901 179.421819,311.901901 L187.062401,311.901901 Z" id="Fill-26" fill="#169194" mask="url(#mask-2)"></path>
                    <polygon id="Fill-27" fill="#FFFFFF" mask="url(#mask-2)" points="75 43 78 43 78 19 75 19"></polygon>
                    <path d="M87.3606803,39.5327087 L92.6433217,39.5327087 C94.058029,39.5327087 94.7683842,38.8420612 94.7683842,37.462774 L94.7683842,24.537226 C94.7683842,23.1579388 94.058029,22.4672913 92.6433217,22.4672913 L87.3606803,22.4672913 C85.943972,22.4672913 85.2356178,23.1579388 85.2356178,24.537226 L85.2356178,37.462774 C85.2356178,38.8420612 85.943972,39.5327087 87.3606803,39.5327087 M82,37.8382132 L82,24.240087 C82,22.7122302 82.3681841,21.4855279 83.0965483,20.5539568 C83.9149575,19.5179856 84.9914957,19 86.3301651,19 L93.7258629,19 C95.0545273,19 96.1190595,19.5179856 96.9174587,20.5539568 C97.6418209,21.4855279 98,22.7122302 98,24.240087 L98,37.8382132 C98,39.3439853 97.6418209,40.5526184 96.9174587,41.4621047 C96.1190595,42.4860298 95.0545273,43 93.7258629,43 L86.3301651,43 C85.0015008,43 83.9229615,42.4860298 83.0965483,41.4621047 C82.3681841,40.5526184 82,39.3439853 82,37.8382132" id="Fill-28" fill="#FFFFFF" mask="url(#mask-2)"></path>
                    <path d="M104.298751,44 L101,44 L101,24.0261476 C101,22.3618328 101.387848,21.0482278 102.169669,20.0874077 C102.763689,19.363161 103.553674,19 104.537584,19 C106.205331,19 107.34438,20.0376027 107.956772,22.1128082 L112.690562,38.1147174 C112.894693,38.7850087 113.074328,39.2332531 113.225384,39.4594505 C113.356028,39.6441438 113.556076,39.7354528 113.823487,39.7354528 C114.407301,39.7354528 114.701249,39.1149664 114.701249,37.8719183 L114.701249,19.1307379 L118,19.1307379 L118,38.0981157 C118,39.969951 117.583573,41.4288205 116.75072,42.4767992 C116.162824,43.232174 115.291186,43.6119366 114.127642,43.6119366 C113.011047,43.6119366 112.114914,43.2861293 111.441282,42.6386652 C110.786023,41.9891259 110.318564,41.2046983 110.042988,40.2874575 L105.533742,24.9828173 C105.207133,23.8705072 104.905019,23.3122769 104.629443,23.3122769 C104.411023,23.3122769 104.298751,23.4741429 104.298751,23.7999502 L104.298751,44 Z" id="Fill-29" fill="#FFFFFF" mask="url(#mask-2)"></path>
                    <path d="M137,19 L136.985912,22.4675814 L126.272956,22.4675814 C125.616855,22.4675814 125.101635,22.6924621 124.72327,23.1422237 C124.409308,23.5176943 124.252327,23.9734795 124.252327,24.5055635 L124.252327,37.0707772 C124.252327,37.9281352 124.427421,38.5545888 124.775597,38.9541538 C125.117736,39.3396637 125.55044,39.5344265 126.075723,39.5344265 L136.985912,39.5344265 L136.985912,43 L125.498113,43 C124.149686,43 123.04478,42.4859868 122.181384,41.4639839 C121.392453,40.532335 121,39.1208065 121,37.2273906 L121,24.3027692 C121,22.8069104 121.402516,21.5479796 122.205535,20.521961 C123.002516,19.5079896 123.992704,19 125.184151,19 L137,19 Z" id="Fill-30" fill="#FFFFFF" mask="url(#mask-2)"></path>
                    <polygon id="Fill-31" fill="#FFFFFF" mask="url(#mask-2)" points="151 43 154 43 154 19 151 19"></polygon>
                    <path d="M158,43 L158,31.1144594 C158,29.8706002 158.329007,28.875918 158.98913,28.1385161 C159.676671,27.3788301 160.469663,27 161.368105,27 L167.138384,27 C168.338417,27 169.289585,27.3788301 169.985561,28.1385161 C170.662557,28.8880729 171,29.8321094 171,30.9726513 L171,43 L168.07268,43 L168.07268,31.5885034 C168.07268,30.9969613 167.981992,30.5917954 167.798507,30.37098 C167.587605,30.1177513 167.220636,29.9901241 166.699708,29.9901241 L162.673589,29.9901241 C161.903796,29.9901241 161.408177,30.1380096 161.188838,30.4337807 C161.015899,30.6647252 160.92732,31.0516586 160.92732,31.5885034 L160.92732,43 L158,43 Z" id="Fill-32" fill="#FFFFFF" mask="url(#mask-2)"></path>
                    <path d="M187,27 L187,29.9425974 L177.707965,29.9425974 C176.960402,29.9425974 176.454327,30.0880339 176.189741,30.3769145 C176.00705,30.5741502 175.916754,30.9227992 175.916754,31.4208691 L175.916754,37.3977089 C175.916754,38.5890923 175.969252,39.2804134 176.080546,39.4676877 C176.307335,39.8621591 176.750412,40.0593948 177.40768,40.0593948 L187,40.0593948 L187,43 L176.504725,43 C175.444278,43 174.59382,42.6374051 173.944953,41.9102229 C173.314984,41.2169095 173,40.2765534 173,39.0931391 L173,30.6259494 C173,29.6397709 173.314984,28.7990288 173.944953,28.1057154 C174.619019,27.3685718 175.435878,27 176.39343,27 L187,27 Z" id="Fill-33" fill="#FFFFFF" mask="url(#mask-2)"></path>
                    <path d="M191.909418,33.5996016 L198.644258,33.5996016 C199.608474,33.5996016 200.090582,33.1075697 200.090582,32.1215139 L200.090582,31.436255 C200.090582,30.8665339 199.987872,30.4780876 199.776164,30.2689243 C199.549783,30.0517928 199.195538,29.9422311 198.711334,29.9422311 L193.355742,29.9422311 C192.856865,29.9422311 192.546639,29.9741036 192.429256,30.0358566 C192.0813,30.2011952 191.909418,30.5896414 191.909418,31.2031873 L191.909418,33.5996016 Z M191.909418,36.5418327 L191.909418,38.563745 C191.909418,39.1454183 191.991166,39.5298805 192.154664,39.7151394 C192.355892,39.9442231 192.825423,40.0577689 193.561162,40.0577689 L202.549334,40.0577689 L202.549334,43 L192.81075,43 C191.672556,43 190.88651,42.8167331 190.44842,42.4541833 C189.482108,41.6553785 189,40.5776892 189,39.2171315 L189,31.0478088 C189,29.6055777 189.314418,28.5737052 189.943255,27.9501992 C190.597245,27.3187251 191.590807,27 192.919748,27 L199.053002,27 C200.31906,27 201.352448,27.4123506 202.155263,28.2310757 C202.717024,28.8007968 203,29.6713147 203,30.8446215 L203,32.8844622 C203,33.8804781 202.723312,34.7350598 202.167839,35.4521912 C201.612367,36.1772908 200.838898,36.5418327 199.845336,36.5418327 L191.909418,36.5418327 Z" id="Fill-34" fill="#FFFFFF" mask="url(#mask-2)"></path>
                    <path d="M206,43 L206,31.1144594 C206,29.8706002 206.329007,28.875918 206.98913,28.1385161 C207.676671,27.3788301 208.469663,27 209.368105,27 L215.138384,27 C216.338417,27 217.289585,27.3788301 217.985561,28.1385161 C218.662557,28.8880729 219,29.8321094 219,30.9726513 L219,43 L216.07268,43 L216.07268,31.5885034 C216.07268,30.9969613 215.981992,30.5917954 215.798507,30.37098 C215.587605,30.1177513 215.220636,29.9901241 214.699708,29.9901241 L210.673589,29.9901241 C209.903796,29.9901241 209.408177,30.1380096 209.188838,30.4337807 C209.015899,30.6647252 208.92732,31.0516586 208.92732,31.5885034 L208.92732,43 L206,43 Z" id="Fill-35" fill="#FFFFFF" mask="url(#mask-2)"></path>
                    <path d="M224.199847,23 L227.114144,23 L227.114144,27.505637 L232,27.505637 L232,30.450863 L227.114144,30.450863 L227.114144,38.4484685 C227.114144,39.0929861 227.25482,39.5239948 227.538271,39.74349 C227.783928,39.9510127 228.331934,40.054774 229.180187,40.054774 L231.861424,40.054774 L231.861424,43 L228.413819,43 C227.246421,43 226.412865,42.844358 225.908952,42.5330739 C224.768849,41.8067445 224.199847,40.5276863 224.199847,38.6978948 L224.199847,30.450863 L221,30.450863 L221,27.505637 L224.199847,27.505637 L224.199847,23 Z" id="Fill-36" fill="#FFFFFF" mask="url(#mask-2)"></path>
                    <path d="M235,43 L238,43 L238,26.9429674 L235,26.9429674 L235,43 Z M235,23.1667366 L238,23.1667366 L238,19 L235,19 L235,23.1667366 Z" id="Fill-37" fill="#FFFFFF" mask="url(#mask-2)"></path>
                    <path d="M241,27 L243.715092,27 L246.469676,38.2700952 C246.615797,38.8633651 246.795487,39.2534603 247.008745,39.4444444 C247.257546,39.655746 247.630748,39.7613968 248.12835,39.7613968 C248.625952,39.7613968 248.973484,39.5968254 249.170945,39.2697143 C249.307193,39.0259048 249.516502,38.3269841 249.800846,37.1749841 L252.284908,27 L255,27 L252.348096,37.999873 C251.945275,39.6923175 251.647109,40.7406984 251.447673,41.1429841 C250.847391,42.3803175 249.933145,43 248.706911,43 L247.036389,43 C245.567278,43 244.546403,41.7931429 243.971791,39.3814603 L241,27 Z" id="Fill-38" fill="#FFFFFF" mask="url(#mask-2)"></path>
                    <path d="M261.909418,33.5996016 L268.644258,33.5996016 C269.608474,33.5996016 270.090582,33.1075697 270.090582,32.1215139 L270.090582,31.436255 C270.090582,30.8665339 269.987872,30.4780876 269.776164,30.2689243 C269.549783,30.0517928 269.195538,29.9422311 268.711334,29.9422311 L263.355742,29.9422311 C262.856865,29.9422311 262.546639,29.9741036 262.429256,30.0358566 C262.0813,30.2011952 261.909418,30.5896414 261.909418,31.2031873 L261.909418,33.5996016 Z M261.909418,36.5418327 L261.909418,38.563745 C261.909418,39.1454183 261.991166,39.5298805 262.154664,39.7151394 C262.355892,39.9442231 262.825423,40.0577689 263.561162,40.0577689 L272.549334,40.0577689 L272.549334,43 L262.81075,43 C261.672556,43 260.88651,42.8167331 260.44842,42.4541833 C259.482108,41.6553785 259,40.5776892 259,39.2171315 L259,31.0478088 C259,29.6055777 259.314418,28.5737052 259.943255,27.9501992 C260.597245,27.3187251 261.590807,27 262.919748,27 L269.053002,27 C270.31906,27 271.352448,27.4123506 272.155263,28.2310757 C272.717024,28.8007968 273,29.6713147 273,30.8446215 L273,32.8844622 C273,33.8804781 272.723312,34.7350598 272.167839,35.4521912 C271.612367,36.1772908 270.838898,36.5418327 269.845336,36.5418327 L261.909418,36.5418327 Z" id="Fill-39" fill="#FFFFFF" mask="url(#mask-2)"></path>
                    <path d="M288.388285,30.764076 L295.873542,30.764076 C296.339012,30.764076 296.752064,30.6235255 297.116892,30.3404166 C297.446075,30.0673471 297.609619,29.6135698 297.609619,28.975069 L297.609619,24.2224546 C297.609619,23.7425751 297.458655,23.3229315 297.158826,22.9675395 C296.886253,22.6322262 296.57594,22.4655735 296.229983,22.4655735 L290.285808,22.4655735 C289.021491,22.4655735 288.388285,23.0619091 288.388285,24.2545804 L288.388285,30.764076 Z M288.388285,43 L285,43 L285,23.7526144 C285,22.3611646 285.45918,21.1885719 286.379636,20.2388522 C287.172192,19.41362 288.073778,19 289.084393,19 L295.930153,19 C297.332853,19 298.471367,19.3353133 299.345695,20.0039321 C300.446468,20.8512507 301,22.0358906 301,23.5638752 L301,29.4469171 C301,30.5853761 300.597432,31.6214339 299.794391,32.5530829 C298.821517,33.6714632 297.492203,34.2316573 295.806447,34.2316573 L288.388285,34.2316573 L288.388285,43 Z" id="Fill-40" fill="#FFFFFF" mask="url(#mask-2)"></path>
                    <path d="M304,43 L304,27 L306.95389,27 L306.95389,29.2374722 C308.026484,29.1249074 308.764956,28.919526 309.173563,28.6213281 C309.558761,28.3428783 309.880114,27.8037522 310.129109,27 L313,27 C312.602034,28.4811158 311.955072,29.6956307 311.056987,30.64157 C310.446205,31.2991854 309.67581,31.7474698 308.743675,31.9844483 C308.381887,32.0673908 307.783873,32.1700815 306.95389,32.2925204 L306.95389,43 L304,43 Z" id="Fill-41" fill="#FFFFFF" mask="url(#mask-2)"></path>
                    <path d="M317.920686,31.8303038 L317.920686,38.2652854 C317.920686,39.4184568 318.373098,39.9980933 319.280026,39.9980933 L323.722078,39.9980933 C324.626902,39.9980933 325.077209,39.4184568 325.077209,38.2652854 L325.077209,31.8303038 C325.077209,30.6120503 324.56167,30.0039405 323.528488,30.0039405 L319.456782,30.0039405 C318.943347,30.0039405 318.556167,30.1463074 318.291033,30.4330749 C318.044837,30.6954366 317.920686,31.1632134 317.920686,31.8303038 M315,38.6944197 L315,30.7666201 C315,29.717173 315.3472,28.8121266 316.041599,28.0494471 C316.681288,27.3498157 317.636614,27 318.90968,27 L324.03561,27 C325.317093,27 326.287148,27.3498157 326.943671,28.0494471 C327.646488,28.8019575 328,29.7070039 328,30.7666201 L328,38.6944197 C328,40.0082624 327.633862,41.0882166 326.903691,41.9363163 C326.297669,42.6440829 325.342344,43 324.03561,43 L318.90968,43 C317.611363,43 316.658142,42.6440829 316.056329,41.9363163 C315.351408,41.1004195 315,40.0184314 315,38.6944197" id="Fill-42" fill="#FFFFFF" mask="url(#mask-2)"></path>
                    <path d="M335.143564,38.4209237 L340.462011,38.4209237 C341.135471,38.4209237 341.573955,38.2861451 341.773265,38.0165881 C341.985164,37.73459 342.090064,37.4235627 342.090064,37.0772856 L342.090064,31.6343073 C342.090064,30.5871819 341.647385,30.0625825 340.764124,30.0625825 L335.361756,30.0625825 C334.851941,30.0625825 334.495279,30.1745523 334.295969,30.402639 C334.04211,30.6929312 333.914132,31.1366635 333.914132,31.729689 L333.914132,36.6065975 C333.914132,37.2970782 334.004346,37.7636192 334.186872,38 C334.413457,38.2819981 334.734452,38.4209237 335.143564,38.4209237 Z M331.49513,49 L331.49513,45.9374175 L340.682302,45.9374175 C341.227784,45.9374175 341.609621,45.7964185 341.829912,45.5164939 C342.01034,45.2904807 342.102652,44.9006598 342.102652,44.3491046 L342.090064,41.4835061 L334.692492,41.4835061 C333.45257,41.4835061 332.527349,41.1102733 331.916829,40.3638077 C331.306309,39.6297832 331,38.6365693 331,37.3841659 L331,31.1802074 C331,29.9070688 331.312603,28.9014138 331.931515,28.1673893 C332.577701,27.3898209 333.402218,27 334.405065,27 L341.557171,27 C342.55792,27 343.384535,27.3794533 344.028623,28.134213 C344.676907,28.8889727 345,29.7163054 345,30.6120641 L345,44.6082941 C345,45.8275212 344.846845,46.7087653 344.53634,47.2499529 C343.860782,48.4152686 342.885209,49 341.609621,49 L331.49513,49 Z" id="Fill-43" fill="#FFFFFF" mask="url(#mask-2)"></path>
                    <path d="M347,43 L347,27 L349.95389,27 L349.95389,29.2374722 C351.026484,29.1249074 351.764956,28.919526 352.173563,28.6213281 C352.558761,28.3428783 352.880114,27.8037522 353.129109,27 L356,27 C355.602034,28.4811158 354.955072,29.6956307 354.056987,30.64157 C353.446205,31.2991854 352.67581,31.7474698 351.743675,31.9844483 C351.381887,32.0673908 350.783873,32.1700815 349.95389,32.2925204 L349.95389,43 L347,43 Z" id="Fill-44" fill="#FFFFFF" mask="url(#mask-2)"></path>
                    <path d="M361.996396,40.0345087 L367.458691,40.0345087 C368.261297,40.0345087 368.6626,39.5787426 368.6626,38.6692182 L368.6626,31.2344083 C368.6626,30.8790312 368.569032,30.5818798 368.377738,30.3409462 C368.180205,30.0899736 367.764347,29.9634835 367.132243,29.9634835 L362.416413,29.9634835 C361.775991,29.9634835 361.360133,30.0899736 361.170918,30.3409462 C360.981702,30.5818798 360.886055,30.8790312 360.886055,31.2344083 L360.886055,38.6692182 C360.886055,39.5787426 361.258248,40.0345087 361.996396,40.0345087 M373,39.8779019 L373,43 L372.295121,43 C371.635986,43 371.012199,42.753043 370.425839,42.2611369 C370.269892,42.3555026 370.159689,42.4277827 370.086914,42.4819927 C369.562933,42.8273309 369.047269,43 368.539922,43 L361.129332,43 C360.653174,43 360.11048,42.7952064 359.505406,42.3876271 C358.501109,41.7069896 358,40.6047183 358,39.0767976 L358,31.2344083 C358,29.9173046 358.320211,28.88129 358.962711,28.1283724 C359.594816,27.3754549 360.362074,27 361.264486,27 L367.945245,27 C369.011921,27 369.878985,27.3694315 370.546437,28.114318 C371.215969,28.8571966 371.550735,29.7546744 371.550735,30.8107667 L371.550735,38.6692182 C371.550735,39.4321747 372.03313,39.8357385 373,39.8779019" id="Fill-45" fill="#FFFFFF" mask="url(#mask-2)"></path>
                    <path d="M375,43 L375,31.0516586 C375,29.8260319 375.305078,28.8576855 375.919328,28.1385161 C376.570434,27.3788301 377.46724,27 378.615889,27 L391.103604,27 C392.18059,27 392.970925,27.1884021 393.478706,27.569258 C394.494267,28.3390732 395,29.4735376 395,30.9726513 L395,43 L392.158067,43 L392.158067,31.6209167 C392.158067,30.5350722 391.764947,29.9901241 390.984848,29.9901241 L387.823505,29.9901241 C387.297297,29.9901241 386.914414,30.1380096 386.674857,30.4337807 C386.496724,30.644467 386.406634,31.0131679 386.406634,31.5419093 L386.406634,43 L383.566749,43 L383.566749,31.3980755 C383.566749,30.4601165 383.210483,29.9901241 382.497952,29.9901241 L379.322277,29.9901241 C378.744881,29.9901241 378.339476,30.1238288 378.110156,30.3851608 C377.932023,30.5978729 377.841933,30.9625222 377.841933,31.4791086 L377.841933,43 L375,43 Z" id="Fill-46" fill="#FFFFFF" mask="url(#mask-2)"></path>
                    <polygon id="Fill-47" fill="#FFFFFF" mask="url(#mask-2)" points="22.2549389 109 22.2549389 109 40 109 40 96 1 96 1 109"></polygon>
                    <path d="M42.9937689,188.043963 L42.9937689,146.61136 C42.9937689,142.324882 42.6850789,140.737819 41.9082432,138.517138 C39.5797803,131.054522 32.9030817,128.514015 25.7643702,128.514015 C18.7789816,128.514015 15.0542587,131.21343 12.8832073,133.118308 L12.8832073,111 L0.774791423,111 L0.774791423,152.484901 L12.2617387,152.484901 L12.2617387,150.105313 C12.2617387,147.088083 12.7257958,145.50102 13.3472644,144.231771 C14.277423,142.324882 16.452563,140.263108 21.2628116,140.263108 C29.4911374,140.263108 29.6465045,146.61136 29.6465045,149.626579 L29.6465045,185.662363 C29.6465045,189.156315 29.9551945,193.758597 26.5412059,196.140197 C24.9875345,197.250537 22.816483,197.72726 20.9541216,197.72726 C19.245083,197.72726 17.3847659,197.250537 15.9864616,196.140197 C13.5026315,194.394226 13.0365301,191.535904 13.0365301,188.677581 L13.0365301,173.122755 L0,173.122755 L0,189.631026 C0,192.964059 0,195.822382 1.3942157,198.996508 C4.34414716,205.982401 12.1063715,207.887279 13.968733,208.364001 C17.2273544,208.99762 20.332653,208.99762 21.5735459,208.99762 C24.3681102,208.99762 38.0261089,209.474342 41.9082432,196.934734 C43.1491361,193.122967 42.9937689,189.472118 42.9937689,188.043963" id="Fill-48" fill="#FFFFFF" mask="url(#mask-2)"></path>
                    <path d="M97,197.332836 C87.767396,196.941171 88.3334585,189.479355 88.3334585,186.376321 L88.3334585,114.840999 C88.3334585,108.873161 90.8332238,105.148309 97,104.85557 L97,94 C83.519861,94.3533057 78.0844211,101.298287 76.0970044,107.350918 C75.4689642,109.581791 75,112.131649 75,117.069854 L75,182.074067 C75,188.926179 75,192.114006 76.0970044,195.61678 C79.8817729,208.380201 92.9838482,208.973754 97,209 L97,197.332836 Z" id="Fill-49" fill="#FFFFFF" mask="url(#mask-2)"></path>
                    <path d="M118.770663,107.196291 C116.972225,101.135368 112.077153,94.3352593 99,94 L99,104.861594 C105.948693,105.423052 106.777028,110.593316 106.777028,116.75926 L106.777028,187.208145 C106.777028,188.484554 107.238789,193.745702 102.93307,196.29448 C101.626772,197.033666 100.407561,197.29218 99,197.372965 L99,209 C104.350757,208.77784 109.810879,207.392371 114.003183,203.625753 C118.464847,199.481463 120,195.018071 120,183.70206 L120,117.876117 C120,112.138336 119.540264,110.066191 118.770663,107.196291" id="Fill-50" fill="#FFFFFF" mask="url(#mask-2)"></path>
                    <path d="M152,197.34334 C142.632813,197.056667 143.205729,189.504266 143.205729,186.377115 L143.205729,114.844305 C143.205729,108.808037 145.730655,105.055052 152,104.845095 L152,94 C138.49349,94.2826346 133.065104,101.269767 131.086496,107.354487 C130.466518,109.585282 130,112.13505 130,117.073081 L130,182.077031 C130,188.926884 130,192.114599 131.086496,195.619268 C134.90253,208.60633 148.284226,208.991925 152,209 L152,197.34334 Z" id="Fill-51" fill="#FFFFFF" mask="url(#mask-2)"></path>
                    <path d="M173.758449,107.191622 C171.948281,101.162378 167.047531,94.4019496 154,94 L154,104.872837 C160.82546,105.517169 161.643615,110.647581 161.643615,116.755598 L161.643615,187.211908 C161.643615,188.488452 162.109964,193.750154 157.761469,196.299201 C156.5056,197.002108 155.331548,197.270747 154,197.36568 L154,209 C159.332327,208.749539 164.764878,207.349785 168.943606,203.631246 C173.44755,199.48652 175,195.022657 175,183.705454 L175,117.872574 C175,112.134188 174.533652,110.061825 173.758449,107.191622" id="Fill-52" fill="#FFFFFF" mask="url(#mask-2)"></path>
                    <path d="M205,197.319492 C196.362226,196.782411 196.895718,189.449031 196.895718,186.375957 L196.895718,114.83108 C196.895718,108.95953 199.241484,105.264573 205,104.870848 L205,94 C192.168221,94.4442025 186.97117,101.331361 185.06099,107.342229 C184.455566,109.573337 184,112.123464 184,117.062188 L184,182.07325 C184,188.926083 184,192.114246 185.06099,195.617389 C188.633587,208.067175 200.8,208.939427 205,209 L205,197.319492 Z" id="Fill-53" fill="#FFFFFF" mask="url(#mask-2)"></path>
                    <path d="M226.78704,107.204302 C224.996574,101.101932 220.114759,94.2423178 207,94 L207,104.857858 C214.099914,105.304126 214.951185,110.520018 214.951185,116.765759 L214.951185,187.203512 C214.951185,188.479719 215.406794,193.740035 211.158436,196.288411 C209.785612,197.075944 208.502712,197.312204 207,197.374802 L207,209 C212.365401,208.814223 217.872681,207.451185 222.083072,203.618525 C226.4833,199.47489 228,195.012204 228,183.697981 L228,117.882441 C228,112.145566 227.544391,110.073749 226.78704,107.204302" id="Fill-54" fill="#FFFFFF" mask="url(#mask-2)"></path>
                    <path d="M285,197.366387 C284.943999,197.366387 284.892145,197.370424 284.836144,197.370424 C274.757958,197.370424 275.386419,189.567587 275.386419,186.380656 L275.386419,114.863403 C275.386419,108.651006 278.062043,104.826284 284.836144,104.826284 C284.892145,104.826284 284.943999,104.832339 285,104.834357 L285,94 C270.78393,94.0524764 265.142303,101.187248 263.101362,107.375426 C262.472901,109.607691 262,112.154814 262,117.09365 L262,182.07961 C262,188.927779 262,192.114711 263.101362,195.618519 C267.04013,208.840552 281.057084,209 284.520877,209 C284.680584,209 284.840292,208.98789 285,208.985872 L285,197.366387 Z" id="Fill-55" fill="#FFFFFF" mask="url(#mask-2)"></path>
                    <path d="M304.777442,107.176115 C303.02719,101.248884 298.346425,94.6123256 286,94 L286,104.95113 C292.082578,105.876691 292.847936,110.850069 292.847936,116.744965 L292.847936,187.237181 C292.847936,188.514375 293.30715,193.778758 289.025176,196.329104 C288.01007,196.907075 287.037261,197.175851 286,197.313271 L286,209 C291.033233,208.662514 296.096677,207.22567 300.036254,203.664886 C304.471299,199.518047 306,195.05191 306,183.728939 L306,117.86251 C306,112.1212 305.540785,110.047781 304.777442,107.176115" id="Fill-56" fill="#FFFFFF" mask="url(#mask-2)"></path>
                    <path d="M337,197.319492 C328.362226,196.782411 328.895718,189.449031 328.895718,186.375957 L328.895718,114.83108 C328.895718,108.95953 331.241484,105.264573 337,104.870848 L337,94 C324.168221,94.4442025 318.97117,101.331361 317.06099,107.342229 C316.455566,109.573337 316,112.123464 316,117.062188 L316,182.07325 C316,188.926083 316,192.114246 317.06099,195.617389 C320.633587,208.067175 332.8,208.939427 337,209 L337,197.319492 Z" id="Fill-57" fill="#FFFFFF" mask="url(#mask-2)"></path>
                    <path d="M359.78704,107.204302 C357.996574,101.101932 353.114759,94.2423178 340,94 L340,104.857858 C347.099914,105.304126 347.951185,110.520018 347.951185,116.765759 L347.951185,187.203512 C347.951185,188.479719 348.406794,193.740035 344.158436,196.288411 C342.785612,197.075944 341.502712,197.312204 340,197.374802 L340,209 C345.365401,208.814223 350.872681,207.451185 355.083072,203.618525 C359.4833,199.47489 361,195.012204 361,183.697981 L361,117.882441 C361,112.145566 360.544391,110.073749 359.78704,107.204302" id="Fill-58" fill="#FFFFFF" mask="url(#mask-2)"></path>
                    <path d="M391,197.319492 C382.362226,196.782411 382.895718,189.449031 382.895718,186.375957 L382.895718,114.83108 C382.895718,108.95953 385.241484,105.264573 391,104.870848 L391,94 C378.168221,94.4442025 372.97117,101.331361 371.06099,107.342229 C370.455566,109.573337 370,112.123464 370,117.062188 L370,182.07325 C370,188.926083 370,192.114246 371.06099,195.617389 C374.633587,208.067175 386.8,208.939427 391,209 L391,197.319492 Z" id="Fill-59" fill="#FFFFFF" mask="url(#mask-2)"></path>
                    <path d="M413.78704,107.204302 C411.996574,101.101932 407.114759,94.2423178 394,94 L394,104.857858 C401.099914,105.304126 401.951185,110.520018 401.951185,116.765759 L401.951185,187.203512 C401.951185,188.479719 402.406794,193.740035 398.158436,196.288411 C396.785612,197.075944 395.502712,197.312204 394,197.374802 L394,209 C399.365401,208.814223 404.872681,207.451185 409.083072,203.618525 C413.4833,199.47489 415,195.012204 415,183.697981 L415,117.882441 C415,112.145566 414.544391,110.073749 413.78704,107.204302" id="Fill-60" fill="#FFFFFF" mask="url(#mask-2)"></path>
                </g>
            </g>
        </g>
    </g>
</svg>