<?xml version="1.0" encoding="UTF-8"?>
<svg width="527px" height="346px" viewBox="0 0 527 346" version="1.1" xmlns="http://www.w3.org/2000/svg" xmlns:xlink="http://www.w3.org/1999/xlink">
    <!-- Generator: Sketch 51 (57462) - http://www.bohemiancoding.com/sketch -->
    <title>Group 52@1x</title>
    <desc>Created with Sketch.</desc>
    <defs>
        <polygon id="path-1" points="0 344.98544 525.813749 344.98544 525.813749 0.28244422 0 0.28244422"></polygon>
    </defs>
    <g id="Group-52" stroke="none" stroke-width="1" fill="none" fill-rule="evenodd">
        <g transform="translate(0.000000, 0.346008)">
            <polygon id="Fill-1" fill="#FFFFFF" points="76.7842129 48.3037924 80.6655779 48.3037924 80.6655779 19.4279058 76.7842129 19.4279058"></polygon>
            <g id="Group-51" transform="translate(0.000000, 0.732116)">
                <path d="M91.0434703,43.5052867 L97.3835008,43.5052867 C99.0847289,43.5052867 99.9343411,42.6740937 99.9343411,41.0117077 L99.9343411,25.4409613 C99.9343411,23.7785754 99.0847289,22.9473824 97.3835008,22.9473824 L91.0434703,22.9473824 C89.3422422,22.9473824 88.49263,23.7785754 88.49263,25.4409613 L88.49263,41.0117077 C88.49263,42.6740937 89.3422422,43.5052867 91.0434703,43.5052867 M84.6092612,41.4656359 L84.6092612,25.0818537 C84.6092612,23.2439488 85.0480939,21.7631341 85.9237555,20.6414271 C86.9056186,19.3946376 88.2000749,18.7712428 89.8071243,18.7712428 L98.6839684,18.7712428 C100.278995,18.7712428 101.559425,19.3946376 102.519246,20.6414271 C103.384889,21.7631341 103.81771,23.2439488 103.81771,25.0818537 L103.81771,41.4656359 C103.81771,43.2793313 103.384889,44.733919 102.519246,45.8293991 C101.559425,47.0661013 100.278995,47.6814262 98.6839684,47.6814262 L89.8071243,47.6814262 C88.2100939,47.6814262 86.9156376,47.0661013 85.9237555,45.8293991 C85.0480939,44.733919 84.6092612,43.2793313 84.6092612,41.4656359" id="Fill-2" fill="#FFFFFF"></path>
                <path d="M111.408113,47.7766502 L107.526748,47.7766502 L107.526748,24.4971942 C107.526748,22.5563989 107.985619,21.0251477 108.90336,19.9054581 C109.602687,19.0621604 110.532451,18.6384941 111.690649,18.6384941 C113.652371,18.6384941 114.992915,19.8469518 115.71228,22.2658848 L121.286858,40.9172906 C121.525311,41.6980471 121.73571,42.220569 121.912044,42.4868735 C122.068341,42.6987067 122.302786,42.8076494 122.617383,42.8076494 C123.304687,42.8076494 123.649341,42.0833818 123.649341,40.6348464 L123.649341,18.7898035 L127.53271,18.7898035 L127.53271,40.8991335 C127.53271,43.0779889 127.041778,44.7787066 126.059915,45.9992691 C125.372611,46.882916 124.34466,47.322722 122.976063,47.322722 C121.661569,47.322722 120.607569,46.9454573 119.814063,46.1889102 C119.0426,45.4343807 118.495562,44.5204719 118.170946,43.4492013 L112.864877,25.6128488 C112.478143,24.3136054 112.12347,23.6660012 111.798854,23.6660012 C111.53836,23.6660012 111.408113,23.8556423 111.408113,24.2308896 L111.408113,47.7766502 Z" id="Fill-4" fill="#FFFFFF"></path>
                <path d="M150.183891,18.6947812 L150.167861,22.8709207 L137.377591,22.8709207 C136.596108,22.8709207 135.978937,23.1412602 135.532089,23.6839566 C135.155374,24.1358673 134.967017,24.6866335 134.967017,25.3281854 L134.967017,40.4631607 C134.967017,41.498117 135.177416,42.2526465 135.594207,42.7307843 C136.000979,43.1988347 136.51796,43.4308424 137.143146,43.4308424 L150.167861,43.4308424 L150.167861,47.606982 L136.453838,47.606982 C134.848792,47.606982 133.526283,46.9876221 132.494325,45.7549549 C131.554541,44.6332478 131.085652,42.9345476 131.085652,40.6528018 L131.085652,25.0820554 C131.085652,23.2804648 131.56456,21.7633359 132.524382,20.5286511 C133.474184,19.3060711 134.660435,18.6947812 136.079127,18.6947812 L150.183891,18.6947812 Z" id="Fill-6" fill="#FFFFFF"></path>
                <path d="M153.798149,47.5874126 L153.798149,18.8083641 L157.132476,18.8083641 L157.132476,28.3872581 L165.931172,28.3872581 C167.193568,28.3872581 168.179438,28.8432037 168.888784,29.7490427 C169.588111,30.6447944 169.938777,31.7523792 169.938777,33.0758321 L169.938777,47.5874126 L166.60445,47.5874126 L166.60445,33.888868 C166.60445,33.2069669 166.494241,32.7429514 166.275826,32.4907691 C165.983271,32.1377138 165.570488,31.9601774 165.037476,31.9601774 L158.541149,31.9601774 C157.601366,31.9601774 157.132476,32.4847167 157.132476,33.5277429 L157.132476,47.5874126 L153.798149,47.5874126 Z" id="Fill-8" fill="#FFFFFF"></path>
                <path d="M178.154967,44.0548424 L184.462937,44.0548424 C185.392701,44.0548424 185.857583,43.5060936 185.857583,42.4106136 L185.857583,33.4530969 C185.857583,33.0253956 185.747374,32.6642705 185.52896,32.3757739 C185.298522,32.0751726 184.81761,31.9218457 184.088226,31.9218457 L178.639887,31.9218457 C177.898481,31.9218457 177.419572,32.0751726 177.199154,32.3757739 C176.980739,32.6642705 176.87053,33.0253956 176.87053,33.4530969 L176.87053,42.4106136 C176.87053,43.5060936 177.299344,44.0548424 178.154967,44.0548424 M190.867089,43.8652013 L190.867089,47.6257443 L190.051541,47.6257443 C189.2921,47.6257443 188.570732,47.3291779 187.891443,46.7380625 C187.715108,46.8510402 187.584861,46.9398084 187.500701,47.0023496 C186.895553,47.4179461 186.300424,47.6257443 185.715313,47.6257443 L177.153066,47.6257443 C176.600017,47.6257443 175.972827,47.3796144 175.275503,46.8873544 C174.115302,46.0702837 173.536203,44.7407784 173.536203,42.9028735 L173.536203,33.4530969 C173.536203,31.8653569 173.906906,30.6185674 174.648313,29.7127284 C175.377697,28.8028545 176.267386,28.3509438 177.309363,28.3509438 L185.028009,28.3509438 C186.258344,28.3509438 187.260245,28.7988196 188.033713,29.6925538 C188.805176,30.586288 189.19191,31.6696634 189.19191,32.9426798 L189.19191,42.4106136 C189.19191,43.3305747 189.748967,43.8147648 190.867089,43.8652013" id="Fill-10" fill="#FFFFFF"></path>
                <mask id="mask-2" fill="white">
                    <use xlink:href="#path-1"></use>
                </mask>
                <g id="Clip-13"></g>
                <path d="M194.76208,47.5878161 L198.096407,47.5878161 L198.096407,28.2948584 L194.76208,28.2948584 L194.76208,47.5878161 Z M194.76208,23.7596113 L198.096407,23.7596113 L198.096407,18.7522787 L194.76208,18.7522787 L194.76208,23.7596113 Z" id="Fill-12" fill="#FFFFFF" mask="url(#mask-2)"></path>
                <path d="M202.149698,47.5500896 L202.149698,33.359285 C202.149698,31.872418 202.524409,30.6881697 203.275835,29.8065403 C204.059322,28.8986838 204.961033,28.4447556 205.984976,28.4447556 L212.559451,28.4447556 C213.928048,28.4447556 215.008097,28.8986838 215.799599,29.8065403 C216.573067,30.7002745 216.959801,31.8280339 216.959801,33.1898185 L216.959801,47.5500896 L213.625474,47.5500896 L213.625474,33.9261909 C213.625474,33.2200804 213.521276,32.7338728 213.310877,32.4695858 C213.070421,32.1689844 212.65363,32.017675 212.0585,32.017675 L207.471797,32.017675 C206.596135,32.017675 206.031063,32.1952114 205.780588,32.5462492 C205.584215,32.822641 205.484025,33.2846391 205.484025,33.9261909 L205.484025,47.5500896 L202.149698,47.5500896 Z" id="Fill-14" fill="#FFFFFF" mask="url(#mask-2)"></path>
                <path d="M248.301673,26.7232581 L248.267608,34.1535585 L258.885757,33.7278748 L258.885757,26.3742377 L248.301673,26.7232581 Z M246.183654,22.1960808 C245.959228,21.3447132 244.676795,20.9190294 243.779091,20.6486899 C243.3623,20.570009 243.167932,20.4166822 243.167932,20.2230061 C243.167932,20.0293301 243.458483,19.7973223 244.13176,19.641978 C245.416198,19.641978 246.66657,19.8739858 247.7887,20.1846744 C248.333734,20.4166822 248.461977,20.6486899 248.461977,20.9593786 C248.461977,21.2277006 248.333734,21.6170701 248.333734,22.1194173 L248.301673,25.6015511 L258.885757,25.2525307 L258.885757,20.1443252 C258.853696,19.3716386 257.988053,18.7906104 256.639494,18.1732681 C256.32089,18.0179238 256.126521,17.8625794 256.126521,17.7072351 C256.126521,17.5155765 256.47919,17.3582148 257.216589,17.3219005 C258.276601,17.4348782 259.462852,17.7475843 260.584981,18.1732681 C261.033833,18.3649267 261.162076,18.5989519 261.162076,18.9076231 C261.162076,19.2162942 261.033833,19.5653146 261.003776,19.9909984 L260.969711,31.173772 C260.809407,33.2255275 260.77935,34.6942375 260.106072,35.817962 C259.879643,36.0883014 259.689281,36.27996 259.528977,36.27996 C259.238426,36.27996 259.014,35.8542762 258.885757,34.8495818 L253.721958,35.0432578 C254.715844,35.2752656 254.94027,35.5072733 254.94027,35.8542762 C254.94027,36.0883014 254.846091,36.3586409 254.846091,36.7076613 L254.747905,43.1695815 C256.160586,43.1695815 257.635384,43.0545864 261.196141,42.8588929 C263.280095,42.51189 263.119791,41.9712111 264.372167,41.9712111 C265.782844,41.9712111 268.123285,42.3968948 268.123285,43.633597 C268.123285,44.0976125 267.640369,44.4849646 266.806787,44.4849646 L266.486179,44.4849646 C263.761008,44.174276 260.456738,44.0209491 257.026228,44.0209491 C253.241046,44.0209491 249.295559,44.2146251 245.832989,44.4849646 C244.548551,44.8723167 244.260004,45.2980005 243.650848,45.2980005 C242.913449,45.2980005 239.320631,43.4802702 239.320631,42.8205612 C239.320631,42.6652169 239.480935,42.5502217 239.833605,42.5502217 C239.961848,42.5502217 240.090091,42.5502217 240.218335,42.5885534 C242.689023,43.0545864 245.125646,43.246245 248.461977,43.246245 C249.776471,43.246245 251.219209,43.2079132 252.854312,43.1695815 L252.854312,37.2483402 C252.792194,36.5926661 252.311281,36.2032966 251.283331,35.5859542 C250.996787,35.4285925 250.770357,35.2752656 250.706236,35.1602704 L248.011122,35.2752656 C247.594331,36.8226564 247.273722,37.5590289 246.856932,37.5590289 C246.410084,37.5590289 246.343958,36.7843247 246.343958,35.5456051 L246.183654,22.1960808 Z" id="Fill-15" fill="#FFFFFF" mask="url(#mask-2)"></path>
                <path d="M294.152476,16.8566745 C294.120416,16.5076542 293.254773,15.73295 291.395244,14.7665873 C290.914332,14.5729113 290.657845,14.3409035 290.657845,14.1472275 C290.657845,13.9152197 291.042575,13.7618929 291.812035,13.7215437 C293.318895,13.9152197 294.473085,14.3409035 295.501035,14.7282556 C296.174313,15.0389442 296.334617,15.3072662 296.334617,15.6562866 C296.334617,15.9286435 296.20437,16.2756464 296.20437,16.7396619 L296.174313,27.4584201 C296.621161,27.4200883 296.943773,27.4584201 297.424686,27.3817566 C298.869427,26.9944046 298.290328,26.2983813 300.53659,26.2983813 C301.27399,26.2983813 302.524362,26.2983813 302.524362,27.3414075 C302.524362,27.8074404 302.171693,28.2714559 301.624655,28.3118051 L296.142252,28.465132 C296.110191,31.7152579 295.917826,33.3776439 295.597218,34.4630367 C295.306667,35.2357234 294.92394,35.8167515 294.633389,35.8167515 C294.376902,35.8167515 294.152476,35.352736 294.152476,34.0756846 L294.152476,16.8566745 Z M285.23756,42.512697 C285.23756,44.8327745 286.744419,47.1932012 289.726077,47.1932012 C292.709739,47.1932012 294.216598,44.8327745 294.216598,42.512697 C294.216598,40.1119211 292.709739,37.7514944 289.726077,37.7514944 C286.744419,37.7514944 285.23756,40.1119211 285.23756,42.512697 Z M289.373408,35.8550832 C289.373408,35.546412 289.247168,35.15906 288.988678,34.8503888 C288.796313,34.6950445 288.70013,34.5013684 288.70013,34.3460241 C288.70013,34.1926972 288.830378,34.0756846 289.086864,34.0756846 C289.694016,34.0756846 291.200876,34.8503888 291.200876,35.3930852 C291.200876,35.7400881 290.85021,36.0507767 290.721967,36.5127748 C294.28072,37.2874789 295.947883,40.0352577 295.947883,42.706373 C295.947883,45.6841421 293.76975,48.9746172 289.629895,48.9746172 C285.654351,48.9746172 283.47221,45.9161498 283.47221,42.6660238 C283.47221,39.9202625 285.23756,37.0938029 288.892495,36.4764605 C289.213104,36.4361113 289.373408,36.1657719 289.373408,35.8550832 Z M273.272857,32.4112812 C278.949629,27.9224356 282.542446,20.6494969 282.542446,20.0281196 C282.542446,19.642785 282.157716,19.0234252 280.777096,17.8230372 C280.360305,17.4356852 280.16794,17.1653457 280.16794,16.9736871 C280.16794,16.7800111 280.39437,16.6629985 280.747039,16.6629985 C280.9374,16.6629985 281.131769,16.7013302 281.388256,16.7396619 C281.484438,16.7800111 285.077256,18.5594097 285.077256,19.7194484 C285.077256,20.4174892 284.273731,21.3071884 283.151602,23.4719216 C284.339857,24.9809808 285.01113,25.6790215 285.878777,26.3750447 C287.385636,27.730777 287.225332,26.4133764 289.343351,30.2828623 C289.533712,30.6318826 289.629895,30.980903 289.629895,31.2895742 C289.629895,31.8322705 289.343351,32.1812909 288.92656,32.1812909 C288.636009,32.1812909 288.28334,31.9855974 287.932674,31.5235994 C286.680298,29.8975276 284.177549,26.4133764 282.638629,24.2103115 C279.913457,27.9627847 277.218343,30.8638904 273.625526,32.9156459 C273.176674,33.1859853 272.888127,33.3009805 272.727822,33.3009805 C272.63164,33.3009805 272.599579,33.2646662 272.599579,33.1859853 C272.599579,33.0326585 272.824005,32.7603016 273.272857,32.4112812 Z" id="Fill-16" fill="#FFFFFF" mask="url(#mask-2)"></path>
                <path d="M348.560317,17.0497453 C348.498199,16.2750412 347.021397,15.3086785 345.769021,14.572306 C345.482477,14.4189792 345.191925,14.1869714 345.191925,13.9549637 C345.191925,13.7996193 345.450416,13.6462925 346.187815,13.6462925 C346.668728,13.6462925 350.710397,14.6509869 350.710397,15.8493574 C350.710397,16.1217143 350.582154,16.3920538 350.582154,16.6644107 L350.355724,42.9761072 C350.261545,47.2692594 349.844754,48.6249916 349.395903,49.4380275 C349.267659,49.6700352 349.137412,49.7870479 349.011173,49.7870479 C348.754686,49.7870479 348.594382,49.0506754 348.560317,47.8523049 L348.560317,17.0497453 Z M342.787363,27.3811514 C341.92172,27.498164 340.703408,27.6898226 339.835762,27.7685035 C339.324792,27.8471844 339.22861,28.1558555 338.875941,28.1558555 C338.61745,28.1558555 338.234724,28.0005112 337.401142,27.498164 C335.186941,33.5727322 331.85061,38.4872616 327.360089,42.5504235 C326.977363,42.8590946 326.686811,43.014439 326.560572,43.014439 C326.494446,43.014439 326.462386,42.9761072 326.462386,42.9377755 C326.462386,42.7824312 326.62269,42.47376 327.00742,42.0077271 C331.658245,36.9782025 335.379306,29.5095703 336.469374,23.0476501 C335.53961,23.0859818 333.295351,23.2029944 331.658245,23.3179895 C330.856724,23.4733339 330.822659,23.8606859 330.405868,23.8606859 C329.989078,23.8606859 327.424211,22.7773106 327.424211,22.1962825 C327.424211,22.0429556 327.554458,21.9642747 327.841002,21.9642747 C327.971249,21.9642747 328.097488,21.9642747 328.257792,22.0026065 C329.478108,22.1579508 330.568176,22.2346142 331.786488,22.2346142 C332.844496,22.2346142 334.032751,22.1962825 335.53961,22.0792699 C335.860218,22.0429556 337.431199,21.7705987 337.783868,21.7705987 C339.034241,21.8089304 339.418971,22.0792699 339.418971,22.4282903 C339.418971,22.8156423 338.841876,23.3583387 338.555332,23.7436733 C338.296842,24.7503852 338.008294,25.7550797 337.657629,26.7234599 C337.978237,26.7617916 338.330906,26.8021407 338.715637,26.8021407 C340.126313,26.8021407 341.857598,26.5297838 342.787363,26.3381252 L342.787363,18.7141488 C342.757306,17.9394446 341.376686,17.1264088 340.50904,16.700725 C340.190435,16.5857298 339.869827,16.4303855 339.869827,16.2750412 C339.869827,16.1217143 340.126313,15.9280383 340.831652,15.772694 C344.296226,16.5857298 344.775135,17.0093962 344.775135,17.5924417 C344.775135,17.8627812 344.713017,18.0947889 344.713017,18.4417918 L344.552713,42.0077271 C344.454526,44.5234981 344.101857,46.651917 343.398522,47.0776008 C343.364458,47.1159325 343.300336,47.1159325 343.268275,47.1159325 C342.947667,47.1159325 342.883545,46.1092206 342.787363,44.2511411 L342.787363,35.5074751 C342.210268,35.586156 340.222496,35.7778146 339.132427,35.854478 C338.491211,35.9714906 338.395028,36.3205109 338.008294,36.3205109 C337.497325,36.3205109 335.828157,35.2754673 335.828157,34.9667962 C335.828157,34.8497835 335.956401,34.7711027 336.277009,34.7711027 C336.6938,34.7711027 337.335017,34.8497835 337.751808,34.8497835 C339.388914,34.8497835 341.312564,34.658125 342.787363,34.4624315 L342.787363,27.3811514 Z" id="Fill-17" fill="#FFFFFF" mask="url(#mask-2)"></path>
                <path d="M367.598443,26.4139817 C367.598443,27.9230408 368.690515,29.4320999 370.808534,29.4320999 C372.986667,29.4320999 374.076735,27.9230408 374.076735,26.4139817 C374.076735,24.9049226 372.986667,23.3958635 370.808534,23.3958635 C368.690515,23.3958635 367.598443,24.9049226 367.598443,26.4139817 Z M369.011123,17.6299665 C368.466089,17.6299665 366.316009,15.9292488 366.316009,15.4248841 C366.316009,15.3078715 366.382135,15.231208 366.604557,15.231208 C366.764861,15.231208 366.989287,15.3078715 367.341956,15.3865524 C368.530211,15.6165427 369.363792,15.697241 372.858424,15.7335553 C373.659944,15.8122362 374.1108,16.1995882 374.1108,16.5849228 C374.1108,17.0489383 373.595823,17.4746221 372.441633,17.5149713 L369.011123,17.6299665 Z M380.941762,39.4548348 C378.95399,39.5698299 373.820249,39.8038552 369.81064,39.957182 C368.594332,40.0358629 368.399963,40.6148736 367.726686,40.6148736 C366.893104,40.6148736 364.456481,39.1461636 364.456481,38.7204798 C364.456481,38.6034672 364.584724,38.5268038 364.873271,38.5268038 C365.001515,38.5268038 365.129758,38.5268038 365.322123,38.5631181 C366.508374,38.7567941 368.335842,38.835475 370.325617,38.835475 C373.437522,38.835475 377.062401,38.6801307 379.627268,38.5268038 C380.428789,38.5268038 380.364667,38.0607708 381.358553,38.0607708 C381.4888,38.0607708 381.649104,38.10112 381.807405,38.10112 C383.025716,38.2181326 383.316268,38.4097912 383.316268,38.7204798 C383.316268,39.029151 382.995659,39.4548348 382.995659,39.957182 C382.995659,42.472953 382.995659,49.7862409 381.454735,49.7862409 C381.166188,49.7862409 380.941762,49.3605571 380.941762,48.3941944 L380.941762,39.4548348 Z M370.227431,31.0178225 C367.50226,30.747483 365.867157,28.7360767 365.867157,26.4906451 C365.867157,24.5559022 367.215716,22.6615085 370.069131,22.2358247 C370.165313,22.0804804 370.227431,21.8868043 370.227431,21.6931283 C370.227431,21.4611205 370.165313,21.1907811 370.03707,20.8417607 C369.011123,20.803429 367.245773,20.9184242 365.835097,21.0757859 C365.129758,21.2674445 364.969454,21.5781332 364.584724,21.5781332 C364.03969,21.5781332 361.921671,20.3394135 361.921671,19.8350488 C361.921671,19.7200537 362.049914,19.6433902 362.276344,19.6433902 C362.466705,19.6433902 362.693135,19.681722 363.013743,19.7583854 C363.847325,19.875398 364.905332,19.9117123 366.155705,19.9117123 C368.690515,19.9117123 373.243154,19.6433902 373.820249,19.5263776 C375.329112,19.3730508 374.687895,18.7516735 376.771849,18.7516735 C377.124519,18.7516735 378.793686,18.7516735 378.793686,19.7987346 C378.793686,20.2244184 378.408956,20.609753 377.701614,20.609753 L374.527591,20.609753 C373.533705,20.609753 372.505754,20.609753 371.255382,20.6501021 C371.447747,21.0757859 371.479808,21.3441079 371.479808,21.537784 C371.479808,21.6547966 371.385629,22.1188121 371.415686,22.2358247 C374.303165,22.584845 375.617659,24.519588 375.617659,26.4906451 C375.617659,28.4657372 374.333222,30.3601309 372.153085,30.9028273 L372.153085,33.2249223 C374.591713,32.7992385 378.857808,31.9095392 381.550918,31.0965034 L381.550918,16.7019354 C381.518857,16.0422264 380.524971,15.4248841 378.663439,14.4201896 C378.246648,14.2244961 377.92604,14.0308201 377.92604,13.8391615 C377.92604,13.6454855 378.216591,13.4518095 379.050173,13.3731286 C379.176412,13.3731286 383.572754,14.0711693 383.572754,15.1141954 C383.572754,15.3078715 383.476572,16.0825756 383.476572,16.2762517 L383.476572,29.1234287 C383.442507,31.5221871 383.380389,33.7272695 382.803294,35.1596652 C382.578868,35.8173567 382.288317,36.2047088 382.03183,36.2047088 C381.775344,36.2047088 381.550918,35.7406933 381.550918,34.6936322 L381.550918,31.7541949 C376.355059,33.6506061 370.710348,35.119316 366.542439,35.8173567 C365.770975,36.0876962 365.642732,36.51338 365.129758,36.51338 C364.456481,36.51338 360.799541,34.657318 360.799541,33.9996264 C360.799541,33.9209456 360.895724,33.8442821 361.122154,33.8442821 C361.248393,33.8442821 361.440758,33.8826138 361.665184,33.9209456 C362.562887,34.0359407 363.462595,34.0762899 364.390355,34.0762899 C366.283948,34.0762899 368.273724,33.8442821 370.293557,33.4185983 L370.227431,31.0178225 Z" id="Fill-18" fill="#FFFFFF" mask="url(#mask-2)"></path>
                <path d="M55.5224532,229.63744 L55.5224532,226.135131 C61.6080008,221.517168 60.9988449,215.30743 60.9988449,208.143435 L54.9132973,208.143435 L54.9132973,187.603687 L67.0863962,187.603687 L67.0863962,204.639109 C67.0863962,217.536722 66.4772403,222.790185 55.5224532,229.63744" id="Fill-19" fill="#FFFFFF" mask="url(#mask-2)"></path>
                <path d="M239.917349,229.63744 L239.917349,226.135131 C246.002896,221.517168 245.39374,215.30743 245.39374,208.143435 L239.308193,208.143435 L239.308193,187.603687 L251.481292,187.603687 L251.481292,204.639109 C251.481292,217.536722 250.872136,222.790185 239.917349,229.63744" id="Fill-20" fill="#FFFFFF" mask="url(#mask-2)"></path>
                <polygon id="Fill-21" fill="#FFFFFF" mask="url(#mask-2)" points="426.308833 208.853378 433.710878 208.853378 433.710878 149.302032 426.308833 149.302032"></polygon>
                <path d="M456.323987,164.822745 C456.323987,161.195355 456.323987,158.917644 455.440311,157.483231 C454.95539,156.724666 453.991562,155.711902 451.979744,155.711902 C451.57698,155.711902 450.288535,155.796635 449.24255,156.5552 C447.230733,157.904879 447.393041,160.352057 447.393041,164.822745 L447.393041,196.706663 C447.393041,199.912405 447.873953,202.946663 451.737284,202.946663 C456.566448,202.946663 456.323987,198.393258 456.323987,194.850601 L456.323987,164.822745 Z M462.84436,202.525014 C460.429778,209.525596 453.025729,209.44288 451.336524,209.44288 C450.691299,209.44288 448.517174,209.44288 446.587512,208.682298 C445.058611,208.0932 441.678197,206.067671 440.471908,201.429534 C439.988991,199.658205 439.908839,198.562725 439.908839,195.187516 L439.908839,165.496577 C439.908839,160.18259 439.908839,155.038071 444.335238,151.497431 C445.701832,150.399933 448.116413,148.880787 452.140048,148.880787 C453.348341,148.880787 456.726752,148.880787 459.542094,151.243231 C460.992847,152.423444 461.796371,153.771107 462.118984,154.446955 C463.728037,157.398497 463.808189,160.519506 463.808189,167.18519 L463.808189,195.52645 C463.808189,197.80416 463.647885,200.24932 462.84436,202.525014 Z" id="Fill-22" fill="#FFFFFF" mask="url(#mask-2)"></path>
                <polygon id="Fill-23" fill="#FFFFFF" mask="url(#mask-2)" points="485.70013 208.852168 476.606875 165.160064 477.250095 208.852168 470.24881 208.852168 470.24881 149.300822 478.298084 149.300822 487.231035 189.873934 486.908422 149.300822 493.98986 149.300822 493.98986 208.852168"></polygon>
                <path d="M522.721579,204.381883 C521.352982,206.490127 518.455484,209.611136 512.420032,209.611136 C506.627039,209.611136 503.727537,206.827043 502.360944,204.718798 C500.349127,201.682523 500.349127,197.970399 500.349127,194.512475 L500.349127,165.751583 C500.349127,164.401903 500.429279,163.052224 500.509431,161.702544 C500.669735,159.424833 501.072499,151.917869 508.316244,149.470692 C509.925298,148.879576 511.293895,148.712127 513.065256,148.712127 C517.249195,148.712127 519.503473,150.061807 520.950218,151.326754 C522.158511,152.339518 523.042187,153.604464 523.605256,155.038878 C524.733397,157.738237 524.813549,160.437597 524.813549,163.304406 L524.813549,170.894086 L517.249195,170.894086 L517.249195,161.702544 C517.249195,160.437597 517.651959,155.543242 512.660488,155.543242 C511.053438,155.543242 510.245906,156.049624 509.602686,156.556007 C507.753176,158.242602 507.91348,160.774513 507.91348,163.052224 L507.91348,195.946888 C507.91348,196.620719 507.91348,197.296568 507.993632,197.970399 C508.073784,199.574279 508.316244,202.780021 512.500184,202.780021 C512.985104,202.780021 514.271545,202.862736 515.397682,201.934705 C517.329347,200.50231 517.249195,197.970399 517.249195,195.777421 L517.249195,184.223435 L524.813549,184.223435 L524.813549,195.355773 C524.813549,198.646248 524.573092,201.513057 522.721579,204.381883" id="Fill-24" fill="#FFFFFF" mask="url(#mask-2)"></path>
                <path d="M58.3902951,48.9528287 C57.5827627,50.3569799 56.1360175,51.1962428 54.5249605,51.1962428 L16.2603521,51.1962428 C15.8535802,50.1713737 14.8697133,49.4450886 13.7135194,49.4450886 C12.5573255,49.4450886 11.5714548,50.1713737 11.1666867,51.1962428 L9.14284639,51.1962428 C7.53178935,51.1962428 6.08504411,50.3569799 5.27751179,48.9528287 C4.46797567,47.5486774 4.46396806,45.8701518 5.26749278,44.4599481 L24.6703103,10.3891054 C24.7464548,10.3971752 24.8185916,10.4112974 24.8967399,10.4112974 C26.4136183,10.4112974 27.6439529,9.16450795 27.6439529,7.62720441 C27.6439529,7.03608901 27.459603,6.48734024 27.1490137,6.03744694 L27.956546,4.61715601 C28.7640783,3.20291745 30.2128274,2.35760225 31.8339034,2.35760225 C33.4549795,2.35760225 34.9037285,3.20291745 35.709257,4.61715601 L54.448816,37.5239251 C54.0580745,38.0040802 53.8136106,38.6133528 53.8136106,39.2851665 C53.8136106,40.8244875 55.045949,42.071277 56.5628274,42.071277 C56.7171202,42.071277 56.8654015,42.049085 57.0136829,42.0248755 L58.4003141,44.4599481 C59.201835,45.8701518 59.1978274,47.5486774 58.3902951,48.9528287 M60.1877057,43.4290267 L58.7670099,40.9334303 C59.1036487,40.4714322 59.3100403,39.9045263 59.3100403,39.2851665 C59.3100403,37.7458455 58.0797057,36.499056 56.5628274,36.499056 C56.4586297,36.499056 56.3604433,36.5192306 56.2602532,36.5313354 L37.4986525,3.58623461 C36.3204167,1.51632197 34.2023977,0.281637236 31.8339034,0.281637236 C29.4654091,0.281637236 27.3473901,1.51632197 26.1691544,3.58623461 L25.4237399,4.89354785 C25.2534167,4.86126851 25.0770821,4.84109393 24.8967399,4.84109393 C23.3778578,4.84109393 22.1475232,6.08788341 22.1475232,7.62720441 C22.1475232,8.32524512 22.4100213,8.95872716 22.8308198,9.44695217 L3.48010114,43.4290267 C2.305873,45.4848171 2.31188441,47.9400644 3.49412776,49.9938374 C4.6743673,52.0455929 6.7863749,53.2722078 9.14284639,53.2722078 L11.1666867,53.2722078 C11.5734586,54.2930419 12.5573255,55.019327 13.7135194,55.019327 C14.8677095,55.019327 15.8515764,54.2930419 16.2583483,53.2722078 L54.5249605,53.2722078 C56.8814319,53.2722078 58.9934395,52.0455929 60.1736791,49.9938374 C61.3539186,47.9400644 61.35993,45.4848171 60.1877057,43.4290267" id="Fill-25" fill="#FFFFFF" mask="url(#mask-2)"></path>
                <path d="M58.402919,22.3318557 L39.8797707,54.8553076 C39.745516,54.835133 39.613265,54.8149585 39.4750027,54.8149585 C37.9561205,54.8149585 36.7257859,56.0617479 36.7257859,57.5990515 C36.7257859,58.256743 36.958227,58.8518933 37.332938,59.3280136 L35.7078544,62.1827177 C34.9003221,63.5969562 33.4535768,64.4422714 31.8345046,64.4422714 C30.2134285,64.4422714 28.7646795,63.5969562 27.959151,62.1827177 L8.97312433,28.842195 C9.43199506,28.3438827 9.71853878,27.6801388 9.71853878,26.9457838 C9.71853878,25.4064628 8.48620038,24.1576559 6.96932205,24.1576559 C6.75491521,24.1576559 6.55052738,24.1899352 6.34814335,24.2363368 L5.26408631,22.3318557 C4.4625654,20.925687 4.466573,19.2471614 5.27410532,17.8409926 C6.08163764,16.4388588 7.52637909,15.599596 9.13943992,15.599596 L46.6426034,15.599596 C47.0473715,16.624465 48.035246,17.3507502 49.1894361,17.3507502 C50.34563,17.3507502 51.3335046,16.624465 51.7382726,15.599596 L54.5275654,15.599596 C56.1406262,15.599596 57.5853677,16.4388588 58.3929,17.8409926 C59.2004323,19.2471614 59.2044399,20.925687 58.402919,22.3318557 M60.176284,16.8020014 C58.9960445,14.7502459 56.8840369,13.5256484 54.5275654,13.5256484 L51.7362688,13.5256484 C51.329497,12.5027969 50.34563,11.7805467 49.1894361,11.7805467 C48.0372498,11.7805467 47.0513791,12.5027969 46.6446072,13.5256484 L9.13943992,13.5256484 C6.78296844,13.5256484 4.67296464,14.7502459 3.49072129,16.8020014 C2.31048175,18.8537569 2.30447034,21.3069867 3.47669468,23.3647946 L4.66094183,25.4427771 C4.38441711,25.8785481 4.22010532,26.3909827 4.22010532,26.9457838 C4.22010532,28.4851048 5.45244373,29.7318943 6.96932205,29.7318943 C7.0134057,29.7318943 7.05348175,29.7197895 7.0955616,29.7177721 L26.1717593,63.2156565 C27.3499951,65.2835517 29.4660103,66.516219 31.8345046,66.516219 C34.2009951,66.516219 36.3190141,65.2835517 37.495246,63.2156565 L39.1263411,60.3528826 C39.2405578,60.3670048 39.3547745,60.3871794 39.4750027,60.3871794 C40.991881,60.3871794 42.2222156,59.1383725 42.2222156,57.5990515 C42.2222156,56.9655694 42.0038011,56.3865588 41.6511319,55.9164909 L60.1903106,23.3647946 C61.362535,21.3069867 61.3585274,18.8537569 60.176284,16.8020014" id="Fill-26" fill="#FFFFFF" mask="url(#mask-2)"></path>
                <path d="M31.3898608,26.0219895 C30.6745034,25.2412329 29.6886327,24.8337063 28.692743,24.8337063 C27.9433209,24.8337063 27.1858837,25.0636966 26.5346479,25.5418343 C24.8935338,26.7402048 24.5288418,29.0622997 25.7211042,30.7145984 C26.2981992,31.5155295 27.151819,32.0400688 28.1216593,32.1954131 C29.0935034,32.3507574 30.0653475,32.1167322 30.8588532,31.5336867 C31.0492144,31.394482 31.2275529,31.2330853 31.3918646,31.051514 C30.3498875,29.5505247 30.3418722,27.533066 31.3898608,26.0219895" id="Fill-27" fill="#FFFFFF" mask="url(#mask-2)"></path>
                <path d="M32.806549,31.5344936 C32.9969103,31.6716808 33.2053057,31.7947458 33.425724,31.8956188 C34.5218038,30.4329612 36.425416,29.8014966 38.178743,30.3381406 C39.080454,28.7140864 38.6496365,26.6522436 37.1307544,25.5406238 C36.4795186,25.0645036 35.7240852,24.8365307 34.9746631,24.8365307 C33.8344996,24.8365307 32.7123703,25.3630874 31.9930053,26.3617295 C30.800743,28.0120107 31.165435,30.3320883 32.806549,31.5344936" id="Fill-28" fill="#FFFFFF" mask="url(#mask-2)"></path>
                <path d="M33.2576049,34.1035256 C34.9768673,34.7006933 36.1631183,36.3287825 36.1971829,38.1727398 C38.0146316,38.5358824 39.8260688,37.4847864 40.4051677,35.6872307 C41.030354,33.7444179 39.9723464,31.6502958 38.0446886,31.0208487 C36.1130232,30.3893841 34.0350802,31.4566197 33.4078901,33.397415 C33.3357532,33.6233704 33.2856582,33.8594131 33.2576049,34.1035256" id="Fill-29" fill="#FFFFFF" mask="url(#mask-2)"></path>
                <path d="M25.2141422,31.1876925 C23.5349559,31.9664316 22.6813361,33.8910872 23.260435,35.6866254 C23.5650129,36.6267612 24.2142449,37.3933955 25.0899065,37.8432888 C25.9655681,38.2911646 26.9614578,38.371863 27.8952297,38.0652092 C28.8310053,37.7585555 29.5904464,37.1069164 30.0372943,36.2232694 C30.4821384,35.3436574 30.5602867,34.338963 30.2577125,33.3988272 C30.1855757,33.1728719 30.0873894,32.9529689 29.969165,32.7391182 C28.2278608,33.2717273 26.3182373,32.6584199 25.2141422,31.1876925" id="Fill-30" fill="#FFFFFF" mask="url(#mask-2)"></path>
                <path d="M31.1197483,34.6236264 C31.0876875,36.4534615 29.9154631,38.0936554 28.1861817,38.6968756 C28.4025924,40.5468852 29.9555392,41.9570888 31.8331019,41.9570888 C33.8609498,41.9570888 35.5120829,40.2967203 35.5120829,38.2550521 C35.5120829,35.9753238 33.4261247,34.155576 31.1197483,34.6236264" id="Fill-31" fill="#FFFFFF" mask="url(#mask-2)"></path>
                <path d="M199.380429,344.985238 L29.0572346,344.985238 C12.4577365,344.985238 -0.99979962,331.435985 -0.99979962,314.723357 C-0.99979962,298.010729 12.4577365,284.461477 29.0572346,284.461477 L199.380429,284.461477 C215.979927,284.461477 229.437463,298.010729 229.437463,314.723357 C229.437463,331.435985 215.979927,344.985238 199.380429,344.985238" id="Fill-32" fill="#FFFFFF" mask="url(#mask-2)"></path>
                <polygon id="Fill-33" fill="#FFFFFF" mask="url(#mask-2)" points="24.2356856 109.269599 24.2356856 109.269599 41.6807882 109.269599 41.6807882 96.3740027 3.34003536 96.3740027 3.34003536 109.269599"></polygon>
                <path d="M44.7227605,188.559358 L44.7227605,147.003743 C44.7227605,142.704539 44.4201863,141.112764 43.6587414,138.885489 C41.3764106,131.400717 34.8319924,128.852667 27.8347148,128.852667 C20.9877224,128.852667 17.3367947,131.560097 15.2087567,133.47063 L15.2087567,111.286654 L3.34023574,111.286654 L3.34023574,152.894722 L14.5996008,152.894722 L14.5996008,150.508069 C14.5996008,147.481881 15.0544639,145.890106 15.6636198,144.617089 C16.5753498,142.704539 18.7073954,140.636643 23.4223422,140.636643 C31.4876464,140.636643 31.6399354,147.003743 31.6399354,150.027914 L31.6399354,186.170686 C31.6399354,189.675012 31.9425095,194.290958 28.5961597,196.679629 C27.07327,197.793266 24.9452319,198.271404 23.1197681,198.271404 C21.4445894,198.271404 19.6211293,197.793266 18.2505285,196.679629 C15.8159087,194.928475 15.3590418,192.061666 15.3590418,189.194857 L15.3590418,173.593849 L2.58079468,173.593849 L2.58079468,190.151133 C2.58079468,193.494062 2.58079468,196.36087 3.94738783,199.54442 C6.83887452,206.551054 14.4473118,208.461588 16.2727757,208.939726 C19.4668365,209.575225 22.5106122,209.575225 23.7269202,209.575225 C26.4661179,209.575225 39.8535209,210.053363 43.6587414,197.476525 C44.8750494,193.653441 44.7227605,189.991753 44.7227605,188.559358" id="Fill-34" fill="#FFFFFF" mask="url(#mask-2)"></path>
                <path d="M98.7705179,197.596564 C89.8155255,197.205177 90.3645673,189.74865 90.3645673,186.647815 L90.3645673,115.163201 C90.3645673,109.199593 92.7891681,105.477382 98.7705179,105.18485 L98.7705179,94.3369746 C85.695708,94.6900299 80.4237042,101.630088 78.4960464,107.678429 C77.8868905,109.907721 77.4320274,112.455771 77.4320274,117.390475 L77.4320274,182.348611 C77.4320274,189.195866 77.4320274,192.381433 78.4960464,195.881724 C82.1670122,208.636098 94.8751262,209.229231 98.7705179,209.255458 L98.7705179,197.596564 Z" id="Fill-35" fill="#FFFFFF" mask="url(#mask-2)"></path>
                <path d="M120.335037,107.518243 C118.557665,101.463849 113.712471,94.6710658 100.773919,94.3361677 L100.773919,105.186061 C107.648965,105.746914 108.46852,110.911608 108.46852,117.07091 L108.46852,187.443905 C108.46852,188.718939 108.925387,193.974419 104.665303,196.520451 C103.372851,197.258841 102.166562,197.517076 100.773919,197.597774 L100.773919,209.212284 C106.067965,208.990364 111.47222,207.606387 115.618087,203.843827 C120.032463,199.704001 121.551345,195.245418 121.551345,183.941596 L121.551345,118.186565 C121.551345,112.454964 121.096482,110.385052 120.335037,107.518243" id="Fill-36" fill="#FFFFFF" mask="url(#mask-2)"></path>
                <path d="M152.985793,197.606449 C143.81439,197.321988 144.375455,189.772657 144.375455,186.647614 L144.375455,115.162999 C144.375455,109.130798 146.848147,105.380342 152.985793,105.170526 L152.985793,94.332738 C139.760698,94.6151822 134.444611,101.597607 132.506934,107.678227 C131.897778,109.907519 131.442915,112.45557 131.442915,117.390274 L131.442915,182.350427 C131.442915,189.195664 131.442915,192.381231 132.506934,195.88354 C136.244025,208.861852 149.348892,209.247186 152.985793,209.255256 L152.985793,197.606449 Z" id="Fill-37" fill="#FFFFFF" mask="url(#mask-2)"></path>
                <path d="M174.347528,107.518243 C172.574163,101.498146 167.773052,94.7436943 154.988794,94.3442375 L154.988794,105.2022 C161.677486,105.84577 162.479007,110.970115 162.479007,117.07091 L162.479007,187.443905 C162.479007,188.718939 162.935874,193.974419 158.67579,196.520451 C157.445456,197.222527 156.295273,197.490849 154.988794,197.58567 L154.988794,209.206232 C160.216714,208.956067 165.536809,207.557968 169.630577,203.843827 C174.04295,199.704001 175.563836,195.245418 175.563836,183.941596 L175.563836,118.186565 C175.563836,112.454964 175.106969,110.385052 174.347528,107.518243" id="Fill-38" fill="#FFFFFF" mask="url(#mask-2)"></path>
                <path d="M206.510157,197.582643 C197.84772,197.045999 198.382735,189.718589 198.382735,186.648017 L198.382735,115.161385 C198.382735,109.294615 200.737203,105.602666 206.510157,105.209261 L206.510157,94.3472637 C193.641739,94.7911046 188.429849,101.672656 186.514214,107.678631 C185.907062,109.907923 185.450195,112.455973 185.450195,117.390677 L185.450195,182.348813 C185.450195,189.196068 185.450195,192.381635 186.514214,195.881926 C190.097013,208.321576 202.298165,209.195136 206.510157,209.253642 L206.510157,197.582643 Z" id="Fill-39" fill="#FFFFFF" mask="url(#mask-2)"></path>
                <path d="M228.356411,107.518243 C226.561005,101.421483 221.665716,94.5681754 208.514761,94.3280978 L208.514761,105.173956 C215.636275,105.619814 216.48789,110.83091 216.48789,117.07091 L216.48789,187.443905 C216.48789,188.718939 216.944757,193.974419 212.684674,196.520451 C211.310065,197.30726 210.021621,197.543303 208.514761,197.605844 L208.514761,209.220354 C213.89497,209.034748 219.417449,207.674981 223.639461,203.843827 C228.051833,199.704001 229.572719,195.245418 229.572719,183.941596 L229.572719,118.186565 C229.572719,112.454964 229.115852,110.385052 228.356411,107.518243" id="Fill-40" fill="#FFFFFF" mask="url(#mask-2)"></path>
                <path d="M284.046084,197.630054 C283.991982,197.630054 283.94389,197.634089 283.887784,197.634089 C274.151309,197.634089 274.758461,189.834593 274.758461,186.649026 L274.758461,115.162394 C274.758461,108.952656 277.343366,105.129572 283.887784,105.129572 C283.94389,105.129572 283.991982,105.135624 284.046084,105.137642 L284.046084,94.3099407 C270.312024,94.3603772 264.861681,101.494111 262.88994,107.677622 C262.282788,109.908931 261.825921,112.454964 261.825921,117.391686 L261.825921,182.349821 C261.825921,189.195059 261.825921,192.380626 262.88994,195.882934 C266.69516,209.099307 280.236856,209.258686 283.583206,209.258686 C283.737499,209.258686 283.891792,209.246581 284.046084,209.244564 L284.046084,197.630054 Z" id="Fill-41" fill="#FFFFFF" mask="url(#mask-2)"></path>
                <path d="M304.731736,107.518243 C302.990432,101.601036 298.331592,94.9757021 286.050287,94.3644121 L286.050287,105.297021 C292.10177,106.221017 292.863215,111.185983 292.863215,117.07091 L292.863215,187.443905 C292.863215,188.718939 293.320082,193.974419 289.059998,196.520451 C288.050082,197.097445 287.084249,197.365767 286.050287,197.502954 L286.050287,209.169918 C291.055786,208.833002 296.095348,207.398589 300.014786,203.843827 C304.427158,199.704001 305.948044,195.245418 305.948044,183.941596 L305.948044,118.186565 C305.948044,112.454964 305.491177,110.385052 304.731736,107.518243" id="Fill-42" fill="#FFFFFF" mask="url(#mask-2)"></path>
                <path d="M358.740419,107.518243 C356.945013,101.421483 352.049724,94.5681754 338.898769,94.3280978 L338.898769,105.173956 C346.020283,105.619814 346.871898,110.83091 346.871898,117.07091 L346.871898,187.443905 C346.871898,188.718939 347.328765,193.974419 343.068682,196.520451 C341.694073,197.30726 340.405629,197.543303 338.898769,197.605844 L338.898769,209.220354 C344.278978,209.034748 349.801457,207.674981 354.023469,203.843827 C358.435841,199.704001 359.956727,195.245418 359.956727,183.941596 L359.956727,118.186565 C359.956727,112.454964 359.49986,110.385052 358.740419,107.518243" id="Fill-43" fill="#FFFFFF" mask="url(#mask-2)"></path>
                <path d="M336.894366,197.582643 C328.231929,197.045999 328.766944,189.718589 328.766944,186.648017 L328.766944,115.161385 C328.766944,109.294615 331.121411,105.602666 336.894366,105.209261 L336.894366,94.3472637 C324.025948,94.7911046 318.814058,101.672656 316.898423,107.678631 C316.291271,109.907923 315.834404,112.455973 315.834404,117.390677 L315.834404,182.348813 C315.834404,189.196068 315.834404,192.381635 316.898423,195.881926 C320.481221,208.321576 332.682373,209.195136 336.894366,209.253642 L336.894366,197.582643 Z" id="Fill-44" fill="#FFFFFF" mask="url(#mask-2)"></path>
                <path d="M390.903049,197.582643 C382.240612,197.045999 382.775627,189.718589 382.775627,186.648017 L382.775627,115.161385 C382.775627,109.294615 385.130095,105.602666 390.903049,105.209261 L390.903049,94.3472637 C378.034631,94.7911046 372.822741,101.672656 370.907106,107.678631 C370.299954,109.907923 369.843087,112.455973 369.843087,117.390677 L369.843087,182.348813 C369.843087,189.196068 369.843087,192.381635 370.907106,195.881926 C374.489905,208.321576 386.691057,209.195136 390.903049,209.253642 L390.903049,197.582643 Z" id="Fill-45" fill="#FFFFFF" mask="url(#mask-2)"></path>
                <path d="M412.749303,107.518243 C410.953896,101.421483 406.058607,94.5681754 392.907653,94.3280978 L392.907653,105.173956 C400.029166,105.619814 400.880782,110.83091 400.880782,117.07091 L400.880782,187.443905 C400.880782,188.718939 401.337649,193.974419 397.077565,196.520451 C395.702957,197.30726 394.414512,197.543303 392.907653,197.605844 L392.907653,209.220354 C398.287862,209.034748 403.810341,207.674981 408.032352,203.843827 C412.444725,199.704001 413.965611,195.245418 413.965611,183.941596 L413.965611,118.186565 C413.965611,112.454964 413.508744,110.385052 412.749303,107.518243" id="Fill-46" fill="#FFFFFF" mask="url(#mask-2)"></path>
                <path d="M70.3249414,317.763466 C68.6136943,317.848199 64.1211696,318.017666 61.0333103,318.158888 C59.9953407,318.215377 59.8270213,318.610799 59.2379034,318.610799 C58.4524129,318.610799 56.3464167,317.509266 56.3464167,317.255066 C56.3464167,317.170333 56.4586297,317.113844 56.739162,317.113844 C56.8233217,317.113844 56.9655916,317.113844 57.133911,317.140071 C58.1718806,317.309538 59.6306487,317.368044 61.2877932,317.368044 C63.8967437,317.368044 66.9004433,317.224804 69.2008084,317.113844 C69.904143,317.0856 69.8199833,316.801138 70.7176867,316.801138 L71.0823787,316.801138 C72.1504053,316.859644 72.4309376,317.029111 72.4309376,317.255066 C72.4309376,317.479004 72.1504053,317.79171 72.1504053,318.158888 C72.1504053,321.83268 72.1203483,323.470857 71.7015536,325.224028 C71.475124,326.014872 71.0823787,326.495027 70.7737932,326.495027 C70.5213141,326.495027 70.3249414,326.184339 70.3249414,325.478228 L70.3249414,317.763466 Z M67.8823065,301.202147 C69.3711316,301.08917 68.697854,300.863214 70.5774205,300.83497 C71.6714966,300.863214 72.0081354,301.004436 72.0081354,301.202147 C72.0081354,301.456347 71.4190175,301.767036 71.0823787,301.966764 C69.3711316,303.548452 67.3773483,304.960673 66.0027399,305.838267 C66.7040707,306.261934 68.8942266,306.572622 72.5411468,306.572622 C73.3005878,306.572622 75.7131658,307.109266 75.7131658,308.013088 C75.7131658,308.29755 75.4887399,308.493243 74.9557285,308.493243 C74.647143,308.493243 67.1809757,307.109266 64.8806106,306.403156 C62.1013369,307.843621 54.9437551,310.302904 53.5951962,310.302904 C53.4268768,310.302904 53.3427171,310.274659 53.3427171,310.21817 C53.3427171,310.133437 53.5951962,309.963971 54.1863179,309.794504 C58.7329452,308.267288 65.3294624,305.442846 68.5575878,301.882031 C66.5357513,301.966764 62.8026677,302.164475 60.1356068,302.305697 C59.5184357,302.444902 59.434276,302.729364 59.0134776,302.729364 C58.5085194,302.729364 56.0939376,301.767036 56.0939376,301.371614 C56.0939376,301.286881 56.1780973,301.258636 56.4025232,301.258636 C56.5427894,301.258636 56.7111087,301.258636 56.9074814,301.286881 C57.7791354,301.428103 59.0134776,301.486609 60.4722456,301.486609 C62.5221354,301.486609 65.04893,301.371614 67.6298274,301.202147 L67.8823065,301.202147 Z M76.6409262,313.383563 C75.2102114,313.268568 73.5250137,313.212079 71.869873,313.212079 C66.9284966,313.212079 60.8088844,313.496541 57.5527057,313.835474 C56.7111087,313.920207 56.626949,314.287385 56.1500441,314.287385 C55.4487133,314.287385 52.5291734,312.957879 52.5291734,312.592719 C52.5291734,312.479742 52.6694395,312.423253 52.9219186,312.423253 C53.0621848,312.423253 53.2305042,312.44948 53.4268768,312.479742 C54.2123673,312.649208 55.7853521,312.733941 57.7510821,312.733941 C62.0171772,312.733941 68.1347856,312.423253 72.204508,312.280013 C73.6652798,312.223524 73.3847475,311.715125 74.9276753,311.715125 C76.248181,311.715125 77.6227894,311.83012 77.6227894,312.649208 C77.6227894,313.042613 77.2580973,313.383563 76.6970327,313.383563 L76.6409262,313.383563 Z" id="Fill-47" fill="#169194" mask="url(#mask-2)"></path>
                <path d="M100.203036,302.671866 C100.14693,302.135222 99.3053327,301.455338 97.7042947,300.751245 C97.3115494,300.610023 97.0871236,300.440557 97.0871236,300.297317 C97.0871236,300.127851 97.3676559,299.988646 98.0128802,299.932157 C99.7822376,300.212584 100.764101,300.610023 101.437378,300.835979 C101.858177,301.005445 101.942337,301.201139 101.942337,301.455338 C101.942337,301.683311 101.858177,301.909267 101.858177,302.219955 L101.830124,318.86399 C101.830124,324.064998 101.661804,324.771109 101.156846,325.844397 C100.960473,326.18333 100.764101,326.352796 100.595781,326.352796 C100.371356,326.352796 100.203036,326.013863 100.203036,325.140304 L100.203036,302.671866 Z M81.5656711,317.480013 C87.1222148,312.874155 89.5367966,307.166764 89.5367966,306.404165 C89.5367966,305.978481 88.3305076,305.102904 87.5149601,304.707482 C87.3466407,304.594504 87.0941616,304.425038 87.0941616,304.283816 C87.0941616,304.142593 87.2905342,304.029616 87.8816559,304.029616 C88.7232529,304.029616 90.7150323,304.933437 91.528576,305.52657 C91.7550057,305.639548 91.8391654,305.809014 91.8391654,306.006725 C91.8391654,306.488898 90.4345,309.115629 90.0978612,309.767268 C91.1077776,310.840556 92.035538,311.857356 92.9051882,312.619955 C93.7467852,313.410799 94.7005951,313.015377 95.7686217,315.446415 C95.9649943,315.898325 96.049154,316.265503 96.049154,316.547947 C96.049154,317.001875 95.8227243,317.256075 95.5161426,317.256075 C95.1514506,317.256075 94.6444886,316.943369 94.1956369,316.237258 C93.5784658,315.446415 90.9955646,312.168044 89.592903,310.499606 C86.8136293,314.542593 81.9584163,318.186124 81.1168194,318.186124 C81.0607129,318.186124 81.0326597,318.159897 81.0326597,318.129635 C81.0326597,318.016657 81.2009791,317.790702 81.5656711,317.480013 Z" id="Fill-48" fill="#169194" mask="url(#mask-2)"></path>
                <path d="M119.745919,309.652273 C124.713345,307.701391 129.29003,303.775416 129.935254,302.332933 C129.907201,302.050489 129.065604,301.4856 128.053684,300.892467 C127.212087,300.440557 127.634889,300.242846 128.474482,300.242846 C128.925338,300.242846 132.462049,301.400867 132.462049,302.078733 C132.462049,302.474155 130.861011,304.16882 130.580478,304.453282 C131.337916,304.818442 134.313562,305.752525 135.606014,305.752525 C136.139026,305.752525 136.445608,305.639548 136.86841,305.639548 C137.6539,305.639548 140.882026,306.658364 140.882026,307.646919 C140.882026,307.929363 140.601494,308.127074 140.068482,308.127074 C139.785946,308.127074 139.449307,308.096813 139.030513,307.957608 C136.054866,307.082031 131.506235,305.809014 130.047467,304.933437 C125.41668,308.605212 120.194771,310.132428 119.381227,310.132428 C119.184855,310.132428 119.100695,310.106201 119.100695,310.047695 C119.100695,309.936735 119.325121,309.793495 119.745919,309.652273 Z M129.823041,314.231904 C127.829258,314.258131 124.601132,314.45786 123.142364,314.597064 C122.384927,314.766531 122.300767,315.161953 121.739703,315.161953 C120.982265,315.161953 117.8383,313.808238 117.8383,313.35431 C117.8383,313.269577 117.950513,313.213088 118.146885,313.213088 C118.287151,313.213088 118.511577,313.241332 118.764056,313.297821 C120.587516,313.495532 122.833779,313.580265 125.218303,313.580265 C129.402243,313.580265 134.03303,313.35431 137.625847,313.128355 C139.114672,312.930644 138.69187,312.506977 140.038425,312.506977 C140.797866,312.506977 143.014071,312.506977 143.014071,313.439043 C143.014071,313.777976 142.677433,314.116909 142.116368,314.173398 C140.377068,314.116909 138.804083,314.088665 136.896463,314.088665 C135.407638,314.088665 133.696391,314.116909 131.562341,314.173398 C131.562341,320.873379 131.562341,323.50011 131.001277,325.251264 C130.748798,325.902903 130.496319,326.268063 130.271893,326.268063 C130.019414,326.268063 129.851094,325.787908 129.823041,324.686376 L129.823041,314.231904 Z" id="Fill-49" fill="#169194" mask="url(#mask-2)"></path>
                <path d="M157.371114,321.181646 C157.371114,322.878329 158.689616,324.601239 161.300571,324.601239 C163.937575,324.601239 165.230027,322.878329 165.230027,321.181646 C165.230027,319.430492 163.937575,317.705565 161.300571,317.705565 C158.689616,317.705565 157.371114,319.430492 157.371114,321.181646 Z M161.020038,316.321588 C161.020038,316.095633 160.879772,315.813189 160.655346,315.587233 C160.487027,315.474256 160.402867,315.333033 160.402867,315.220056 C160.402867,315.105061 160.513076,315.020327 160.739506,315.020327 C161.300571,315.020327 162.591019,315.587233 162.591019,315.982655 C162.591019,316.236855 162.282434,316.46281 162.172225,316.801743 C165.286133,317.366632 166.746905,319.374003 166.746905,321.322868 C166.746905,323.612684 164.781175,325.9025 161.216411,325.9025 C157.6797,325.9025 155.85624,323.612684 155.85624,321.351113 C155.85624,319.317514 157.371114,317.22541 160.597236,316.773499 C160.879772,316.745255 161.020038,316.547544 161.020038,316.321588 Z M165.734985,312.704285 C165.117814,312.760774 163.769255,312.901996 162.33854,313.043218 C161.751426,313.156195 161.721369,313.353906 161.440837,313.353906 C161.300571,313.353906 160.543133,313.18444 159.308791,312.56508 C156.220932,314.003528 153.076966,315.105061 151.111236,315.2483 L151.05513,315.2483 C150.578225,315.2483 149.904947,314.596661 149.904947,313.384168 L149.848841,309.680114 C149.764681,309.201976 149.428042,308.947777 148.247803,308.550337 C148.023377,308.493848 147.883111,308.409115 147.883111,308.296137 C147.883111,308.154915 148.107537,307.985449 148.642552,307.92896 C149.820787,307.92896 151.195396,308.098426 151.868673,308.409115 C152.600061,308.409115 154.058829,308.324382 155.77208,308.239649 C156.66778,308.154915 156.557571,308.098426 157.483327,307.957204 C157.539434,307.335827 157.623594,305.384945 157.623594,303.605546 C155.85624,303.690279 153.834403,303.859746 151.868673,303.99895 C151.167343,304.14219 150.999023,304.368145 150.634331,304.368145 C150.10132,304.368145 148.079483,303.464324 148.079483,303.066884 C148.079483,303.010396 148.163643,302.955924 148.360016,302.955924 C148.474232,302.955924 148.612495,302.982151 148.810871,303.010396 C149.820787,303.151618 150.942917,303.210124 152.121152,303.210124 C153.469711,303.210124 154.900426,303.125391 156.445358,303.010396 C157.567487,302.925662 157.034476,302.671463 158.268818,302.671463 C159.056312,302.671463 159.982069,302.756196 159.982069,303.066884 C159.982069,303.321084 159.531213,303.660017 159.334841,303.99895 C158.916046,305.415206 158.54935,306.996894 158.352978,307.900716 C159.026255,307.957204 159.362894,308.18316 159.362894,308.409115 C159.362894,308.804537 158.54935,308.804537 158.158609,308.804537 C157.258902,308.804537 153.385552,309.03251 152.06705,309.086981 C151.84062,309.28671 151.646251,309.117243 151.646251,309.708359 C151.616194,311.263819 151.616194,312.619551 151.588141,313.269173 C151.616194,313.638368 151.700354,313.777573 152.06705,313.777573 C152.654164,313.777573 156.49946,313.156195 161.496943,310.868397 C161.721369,310.75542 161.919746,310.698931 162.029955,310.698931 C162.142168,310.698931 162.198274,310.75542 162.198274,310.809891 C162.198274,311.20733 160.374814,312.111152 160.092278,312.195885 C160.991985,312.252374 164.668962,312.167641 165.734985,311.913441 L165.734985,306.573228 C164.220111,306.684188 163.20819,306.712432 162.394647,306.827427 C161.805529,306.966632 161.751426,307.166361 161.440837,307.166361 C161.132251,307.166361 159.419,306.573228 159.419,306.177806 C159.419,306.093073 159.531213,306.034566 159.755639,306.034566 C160.206495,306.034566 160.935879,306.093073 161.38473,306.093073 C162.591019,306.093073 164.248164,306.034566 165.734985,305.8651 L165.734985,302.532258 C165.706932,301.993596 165.005601,301.485197 163.124031,300.666109 C162.955711,300.581375 162.733289,300.440153 162.733289,300.327176 C162.733289,300.185953 162.955711,300.042714 163.685095,299.988242 C167.083544,300.581375 167.588502,300.976797 167.588502,301.485197 C167.588502,301.71317 167.504343,301.967369 167.504343,302.247796 L167.39213,313.947039 C167.251863,316.236855 166.688795,317.170938 166.267997,317.170938 C165.987464,317.170938 165.763038,316.773499 165.763038,316.123877 L165.734985,312.704285 Z" id="Fill-50" fill="#169194" mask="url(#mask-2)"></path>
            </g>
        </g>
    </g>
</svg>