<?xml version="1.0" encoding="UTF-8"?>
<svg width="528px" height="346px" viewBox="0 0 528 346" version="1.1" xmlns="http://www.w3.org/2000/svg" xmlns:xlink="http://www.w3.org/1999/xlink">
    <!-- Generator: Sketch 51 (57462) - http://www.bohemiancoding.com/sketch -->
    <title>文案-中@1x</title>
    <desc>Created with Sketch.</desc>
    <defs>
        <polygon id="path-1" points="0 346 528 346 528 0 0 0"></polygon>
    </defs>
    <g id="Page-1" stroke="none" stroke-width="1" fill="none" fill-rule="evenodd">
        <g id="社区" transform="translate(-234.000000, -735.000000)">
            <g id="文案-中" transform="translate(234.000000, 735.000000)">
                <g>
                    <path d="M82.0214711,26.0842277 C84.0079651,25.9456474 85.4903034,25.7207055 86.4624602,25.4073935 C85.6248788,25.1061319 84.6266103,24.7305592 83.4656462,24.2786669 C82.8791384,24.0396661 82.3970772,23.8589092 82.0214711,23.7323793 L82.0214711,20.8161677 C84.8555894,21.9207933 87.922704,23.0876797 91.216789,24.3168267 L93.3981161,23.4893617 C96.6721153,22.2341053 99.0322067,21.3443796 100.476382,20.8161677 L100.476382,23.7143036 C100.130905,23.8649344 99.4178557,24.1400866 98.3412523,24.5417687 C97.4414046,24.8791816 96.6560465,25.1884767 95.9871866,25.4636289 C97.7868818,25.8392017 99.2772545,26.066152 100.460313,26.1404632 L100.428176,28.9442039 C98.5541626,28.7674638 96.9392575,28.5304713 95.5794431,28.2292098 C95.077296,28.1167388 93.6210694,27.7572334 91.216789,27.1567188 C88.8828093,27.745183 87.1634575,28.146865 86.0547167,28.3597565 C85.7092395,28.4360761 84.379554,28.6308919 82.0676687,28.9442039 L82.0214711,26.0842277 Z M77.3454772,47.8855206 L77.3454772,38.3315132 C77.3454772,37.1144166 77.6005679,36.1985816 78.1147666,35.584008 C78.6570855,34.9312747 79.3058595,34.6059123 80.0590802,34.6059123 L86.0225793,34.6059123 L86.4785289,32.7240319 L80.7661033,32.7240319 C79.6774484,32.7240319 78.8619615,32.4046947 78.317634,31.7660202 C77.8034354,31.1494383 77.5483446,30.3420574 77.5483446,29.3378523 L77.5483446,22.3787109 L80.4045574,22.3787109 L80.4045574,28.0223436 C80.4045574,28.661018 80.4869095,29.0807757 80.655631,29.2816168 C80.8223438,29.4824578 81.0794431,29.5828783 81.4249203,29.5828783 L100.711387,29.5828783 C101.326015,29.5828783 101.717689,29.5648026 101.880385,29.5266428 C102.041072,29.488483 102.189708,29.3900709 102.326292,29.2253813 C102.515099,28.97433 102.609503,28.6369171 102.609503,28.2091257 L102.609503,22.3787109 L105.449647,22.3787109 L105.449647,28.8678843 C105.449647,30.2095023 105.182505,31.1936233 104.650229,31.8202473 C104.125987,32.4227704 103.451101,32.7240319 102.625571,32.7240319 L89.5215404,32.7240319 L89.035462,34.6059123 L102.750104,34.6059123 C103.567599,34.6059123 104.230434,34.8127785 104.744632,35.226511 C105.098144,35.5157221 105.381355,35.9113789 105.590248,36.411473 C105.767004,36.8513149 105.85739,37.2570137 105.85739,37.6345949 L105.85739,44.4812653 C105.85739,45.6099918 105.564136,46.4957007 104.979637,47.1343752 C104.455395,47.7107889 103.754398,48 102.876645,48 L101.573071,48 L101.58914,44.6519802 L102.185691,44.6519802 C102.404627,44.6519802 102.609503,44.4953242 102.79831,44.1800038 C102.932885,43.9550618 103.001177,43.6477751 103.001177,43.2581435 L103.001177,39.0083475 C103.001177,38.7452457 102.906774,38.5122701 102.719975,38.3114291 C102.541211,38.124647 102.336335,38.0302517 102.107356,38.0302517 L88.0793739,38.0302517 L87.3884194,40.9263792 C87.3361961,41.1513212 87.3100845,41.4083977 87.3100845,41.6976087 C87.3100845,42.0872403 87.3924366,42.3804682 87.5611581,42.5813092 C87.7057764,42.7580493 87.8524034,42.8383857 88.0010389,42.8263353 L88.4248511,42.8082596 L95.5794431,42.8263353 C95.9550492,42.8263353 96.1438565,42.5190485 96.1438565,41.904475 C96.1438565,41.6152639 95.9811608,40.8701437 95.6577781,39.667106 L98.4818534,39.667106 L98.9217343,41.6594489 C99.0040864,42.0249796 99.0482754,42.3945271 99.0482754,42.7700998 C99.0482754,43.7984058 98.7972018,44.6198456 98.2950547,45.2344191 C97.8853027,45.7365217 97.3409752,45.987573 96.6620723,45.987573 L86.902341,45.987573 C85.028328,45.987573 84.0923258,44.9833679 84.0923258,42.976966 C84.0923258,42.5009728 84.1284804,42.1113412 84.2027982,41.8100797 L85.1448262,38.0302517 L81.1899155,38.0302517 C80.5310985,38.0302517 80.20169,38.5062449 80.20169,39.4582313 L80.20169,47.8855206 L77.3454772,47.8855206 Z M77,20.3100483 L77,17.1869704 L90.0558249,17.1869704 L90.0558249,16 L92.9582352,16 L92.9582352,17.1869704 L106,17.1869704 L106,20.3100483 L77,20.3100483 Z" id="Fill-1" fill="#FFFFFF"></path>
                    <path d="M111,32.9786086 L111,29.4997804 L125.907478,29.4997804 L133.618518,21.753215 C134.057032,21.3135939 134.275288,20.9261652 134.275288,20.5889216 C134.275288,20.3881814 134.221225,20.1994856 134.103086,20.0228342 C133.864807,19.6594944 133.474349,19.4788282 132.929711,19.4788282 L112.469723,19.4788282 L112.469723,16 L133.806739,16 C135.11227,16 136.105434,16.2950881 136.794242,16.883257 C137.651246,17.6099366 138.075744,18.61966 138.075744,19.9104197 C138.075744,21.0265353 137.701305,22.0723919 136.950425,23.0499969 C136.511911,23.6140769 135.941241,24.248416 135.230408,24.9489994 L130.552924,29.4997804 L140,29.4997804 L140,32.9786086 L129.349513,32.9786086 L129.365532,42.3431403 C129.365532,44.0474249 128.927018,45.4325325 128.051992,46.4964557 C127.237037,47.5001568 126.023614,48 124.405717,48 L118.35262,48 L118.35262,44.5051126 L123.969205,44.5051126 C124.854243,44.517157 125.460954,44.2983502 125.783332,43.8466846 C126.073673,43.4331598 126.221846,42.8068503 126.221846,41.9657487 L126.221846,32.960542 L111,32.9786086 Z" id="Fill-3" fill="#FFFFFF"></path>
                    <path d="M163.107396,26.5684492 L163.107396,22.8749922 C163.664701,22.1896906 164.030873,21.2513852 164.207923,20.0560916 C164.356806,19.0480608 164.47551,17.3686733 164.570071,15.0179294 L167.398848,15 L167.366657,17.2571126 L174,17.2571126 L174,20.7095188 L172.474955,20.7095188 L172.474955,31.5129801 C172.474955,33.7641163 172.193284,35.8299819 171.625919,37.7085849 C171.386499,38.5413061 170.994172,39.5931644 170.446927,40.8601756 C171.352296,41.9678142 172.535313,42.834402 174,43.4559547 L174,46.7768785 C173.006105,46.4900081 172.144998,46.1294279 171.422714,45.6951379 C170.605869,45.1970989 169.704523,44.4380875 168.718676,43.4181037 C167.328431,45.0217892 165.586097,46.1473573 163.499722,46.7948079 L163.499722,43.4559547 C164.926183,42.9081118 166.109199,42.0435162 167.052796,40.8601756 C166.322464,39.2823881 165.811433,37.8579966 165.527751,36.5889933 C165.205842,35.1446803 165.040863,33.5788458 165.040863,31.8855133 L165.040863,25.5604184 L167.634244,25.5783478 L167.618149,31.9791446 C167.618149,34.0948142 167.988345,36.035174 168.718676,37.8022163 C169.09692,36.9057461 169.362495,36.0232211 169.521437,35.1526489 C169.708547,34.0948142 169.803108,32.6584698 169.803108,30.8416236 L169.803108,20.7095188 L166.926044,20.7095188 C166.674553,22.1657847 166.278202,23.3650626 165.732968,24.3113366 C165.209865,25.1938617 164.332663,25.9468966 163.107396,26.5684492 Z M159.8541,25.1679636 L154.037602,25.1679636 L154.007423,25.8213908 L154.007423,26.0086534 C154.007423,26.3951317 154.053698,26.6361825 154.148259,26.7357903 C154.242819,26.8234452 154.52449,26.8672726 154.997294,26.8672726 L158.864229,26.8672726 C159.314902,26.8672726 159.586513,26.8114922 159.681074,26.6979394 C159.775635,26.5863786 159.829957,26.3254062 159.838005,25.9150221 L159.8541,25.1679636 Z M154.037602,22.1837141 L159.8541,22.1837141 L159.838005,21.1577538 C159.829957,20.8589305 159.787706,20.6656913 159.713265,20.5780365 C159.640835,20.4923738 159.43763,20.4485463 159.099625,20.4485463 L154.745803,20.4485463 C154.242819,20.4485463 153.999376,20.7214717 154.007423,21.2693146 L154.037602,22.1837141 Z M151.303386,47 L151.319481,43.1929901 C151.633343,43.0057274 151.876786,42.7587001 152.041765,42.4479238 C152.242958,42.0733985 152.387817,41.3084106 152.482378,40.1529602 L152.922992,35.1885078 L151.617247,35.1885078 L151.617247,31.8297329 L155.468087,31.8297329 L155.468087,30.2061259 L153.613085,30.2260474 C153.01554,30.2380004 152.572915,30.144369 152.277161,29.9451535 C151.70376,29.5606674 151.414042,28.7319305 151.414042,27.4649194 L151.428125,19.7194173 C151.440197,17.9165162 152.073956,17.0080931 153.331414,16.9961402 L154.18045,16.9782108 L154.18045,15.4103841 L157.087693,15.4103841 L157.087693,16.9782108 L159.79173,16.9961402 C160.954627,16.9961402 161.705078,17.2312146 162.039059,17.7053477 C162.312682,18.0918259 162.447482,18.7133786 162.447482,19.5700056 L162.447482,27.2597273 C162.447482,28.7259541 162.155751,29.6343771 161.566255,29.9830044 C161.276537,30.156322 160.719231,30.2380004 159.900375,30.2260474 L158.423616,30.2061259 L158.423616,31.8297329 L162.274455,31.8297329 L162.274455,35.1885078 L155.84633,35.1885078 L155.735674,36.4196601 L159.367212,36.4017307 C160.50999,36.4017307 161.284584,36.5630953 161.693007,36.8878167 C162.101429,37.2224989 162.306646,38.0990475 162.306646,39.5174625 L162.306646,43.7348565 C162.306646,44.9660088 162.14368,45.7927535 161.817747,46.2170827 C161.453587,46.7011766 160.683017,46.9442196 159.508048,46.9442196 L155.84633,46.9442196 L155.84633,43.5475938 L158.815943,43.5475938 C159.206258,43.5475938 159.445678,43.5177115 159.540239,43.4559547 C159.689122,43.3543547 159.759539,43.0495549 159.759539,42.5415551 L159.759539,40.6749051 C159.759539,40.3501837 159.713265,40.1390151 159.618704,40.0394073 C159.461773,39.8780427 159.174067,39.7983565 158.753573,39.7983565 L155.421812,39.7983565 C155.287013,41.8761751 154.965103,43.3922057 154.46212,44.3504327 C153.876648,45.4939302 152.824407,46.3784474 151.303386,47 Z M145,46.6633257 L150.548911,46.6633257 L150.548911,43.2109195 L145,43.2109195 L145,46.6633257 Z M145,32.240117 L150.548911,32.240117 L150.548911,28.8076324 L145,28.8076324 L145,32.240117 Z M145,19.4225861 L150.548911,19.4225861 L150.548911,15.9701799 L145,15.9701799 L145,19.4225861 Z" id="Fill-5" fill="#FFFFFF"></path>
                    <path d="M195.755377,47.6828721 L195.755377,43.442533 C196.391147,43.1074545 196.880047,42.4592371 197.218052,41.4998753 C197.469543,40.7778609 197.660677,39.4953877 197.7995,37.6504612 L198.883932,22.1271503 L196.006868,22.1271503 L196.006868,18.6148093 L199.103233,18.6148093 L199.276259,16 L202.294158,16 L202.105037,18.6148093 L203.473151,18.6148093 C205.00222,18.6148093 206.153046,19.1254051 206.931664,20.1465969 C207.402456,20.7449514 207.724365,21.4729494 207.905439,22.3325854 C207.967809,22.6317627 208,23.1982049 208,24.0319122 L208,42.377462 C208,45.951633 206.412585,47.7387185 203.237755,47.7387185 L200.831483,47.7387185 L200.831483,44.1904762 L203.267934,44.1904762 C203.905717,44.1904762 204.376509,43.9591124 204.682323,43.4983795 C204.923755,43.1493393 205.044471,42.5769135 205.044471,41.781102 L205.044471,24.6861132 C205.044471,23.7147843 204.895588,23.0545999 204.603857,22.7055597 C204.277924,22.3206183 203.853406,22.1271503 203.332316,22.1271503 L201.823366,22.1271503 L200.706743,37.9675891 C200.537741,40.3729743 200.171569,42.2398404 199.606216,43.5721765 C198.71493,45.6404887 197.429305,47.0107205 195.755377,47.6828721 M183.637505,48 L183.637505,43.7596609 C184.158596,43.6100723 184.615305,43.04363 185.003608,42.0603341 C185.337588,41.2006981 185.572985,39.7806033 185.711808,37.8000499 L186.576939,24.8177512 L184.029832,24.8177512 L184.029832,21.3792072 L195.330859,21.3792072 L195.330859,24.8177512 L189.546552,24.8177512 L189.327251,27.3946647 L191.842167,27.3946647 C193.149924,27.3946647 194.077425,27.7377213 194.62467,28.4218399 C195.095463,29.0201945 195.330859,29.8299676 195.330859,30.8511593 L195.330859,43.5721765 C195.330859,44.8925455 195.145761,45.8339566 194.781601,46.3944154 C194.214236,47.2660184 193.421535,47.7008227 192.40752,47.7008227 L189.311156,47.6828721 L189.311156,44.1904762 L191.290898,44.1904762 C191.739559,44.1904762 192.029277,44.1206682 192.156029,43.9850411 C192.288816,43.8474196 192.361246,43.5721765 192.361246,43.1613064 L192.361246,31.9162304 C192.361246,31.2440788 192.023241,30.9070057 191.353268,30.9070057 L189.105939,30.9070057 L188.602955,37.9137372 C188.478216,39.5811518 188.329333,40.8157567 188.164354,41.6115682 C187.480297,44.9483919 185.971347,47.078534 183.637505,48 M179,47.7008227 L179.016095,44.1904762 C179.462745,44.1266517 179.692105,43.8214909 179.692105,43.2749938 L179.692105,21.4350536 C179.692105,20.0289205 179.871167,18.9758165 180.241363,18.2777362 C181.046136,16.7958115 182.120508,16.0558464 183.464479,16.0558464 L195.284584,16.0558464 L195.284584,19.4923959 L184.470445,19.4923959 C183.9232,19.4923959 183.482586,19.6858639 183.148606,20.0727998 C182.810601,20.4697083 182.645622,21.0241835 182.645622,21.7342309 L182.645622,43.1074545 C182.645622,44.5514834 182.229152,45.7083022 181.40426,46.5799053 C180.814763,47.2041885 180.014014,47.5771628 179,47.7008227" id="Fill-7" fill="#FFFFFF"></path>
                    <path d="M223.476609,31.6800805 L223.476609,28.193159 L231.754236,28.193159 L231.754236,16 L234.722373,16 L234.722373,28.193159 L243,28.193159 L243,31.6800805 L234.722373,31.6800805 L234.722373,47.943662 L231.754236,47.943662 L231.754236,31.6800805 L223.476609,31.6800805 Z M214,28.0804829 L214,24.5754527 L216.984313,24.5754527 C218.057938,24.5754527 218.848498,24.8953722 219.353971,25.5352113 C219.819006,26.1146881 220.049501,27.0442656 220.049501,28.3259557 L220.049501,42.8933602 C220.049501,43.5975855 220.120268,44.0362173 220.253713,44.2132797 C220.41142,44.4144869 220.759186,44.5130785 221.297009,44.5130785 L222.813428,44.5130785 L222.813428,48 L220.459946,48 C219.428781,48 218.721118,47.8370221 218.343024,47.5110664 C217.534268,46.7947686 217.125845,45.8148893 217.125845,44.5714286 L217.125845,29.7947686 C217.125845,28.9778672 217.008576,28.4708249 216.763927,28.2696177 C216.616329,28.1428571 216.317088,28.0804829 215.862163,28.0804829 L214,28.0804829 Z M214,19.7706237 L220.538799,19.7706237 L220.538799,16.3018109 L214,16.3018109 L214,19.7706237 Z" id="Fill-9" fill="#FFFFFF"></path>
                    <mask id="mask-2" fill="white">
                        <use xlink:href="#path-1"></use>
                    </mask>
                    <g id="Clip-12"></g>
                    <path d="M268.751425,42.4323374 L271.663516,42.4323374 L271.663516,17.46824 L268.751425,17.46824 L268.751425,42.4323374 Z M268.751425,48 L268.751425,44.4629676 L272.292286,44.4629676 C272.836414,44.4629676 273.277762,44.2560884 273.616331,43.8423299 C273.930716,43.4546824 274.087908,42.9907105 274.087908,42.4504143 L274.087908,16 L277,16 L277,42.9766508 C277,44.483053 276.611049,45.6861662 275.835163,46.5900075 C275.049201,47.5179513 274.095969,47.9879488 272.985546,48 L268.751425,48 Z M259.604031,19.8945518 L265.099722,19.8945518 L265.099722,16.3575195 L259.604031,16.3575195 L259.604031,19.8945518 Z M248,25.4441376 L248,21.9071052 L252.203892,21.9071052 L250.535233,16.056239 L253.90278,16.056239 L255.508965,21.9071052 L265.821195,21.9071052 L265.821195,25.4441376 L256.500486,25.4441376 L258.941001,34.2475521 C259.225156,34.0105448 259.438777,33.8337936 259.587908,33.7213156 C260.531063,32.9319608 261.186032,32.2731609 261.55483,31.7469244 C261.953857,31.1564148 262.25615,30.3911624 262.467755,29.4511675 L265.476581,29.4511675 C265.337526,30.7044941 264.932453,31.9779061 264.263377,33.2693949 C263.7918,34.161185 263.070327,35.0328898 262.107019,35.8845092 C261.873245,36.0853628 261.637457,36.2801908 261.397637,36.4689932 C261.083252,36.7301029 260.617721,37.1257846 260.013134,37.6520211 C260.768867,39.6987196 261.595136,41.2352498 262.5,42.2616119 C263.326268,43.2156666 264.452814,43.9668592 265.869562,44.5192066 L265.885685,47.887522 C264.065879,47.5239769 262.536275,46.7888526 261.286796,45.6861662 C260.279152,44.7963846 259.422655,43.7057494 258.721334,42.4122521 C258.406949,41.8478534 258.001876,40.9460206 257.508131,39.7027366 L248.235789,47.3974391 L248.235789,43.0891288 L256.359416,36.3545067 L253.225643,25.4441376 L248,25.4441376 Z" id="Fill-11" fill="#FFFFFF" mask="url(#mask-2)"></path>
                    <path d="M54.6004938,230 L54.6004938,226.500504 C60.5995062,221.886249 59.9990123,215.681497 59.9990123,208.523254 L54,208.523254 L54,188 L66,188 L66,205.021742 C66,217.908999 65.3995062,223.158243 54.6004938,230" id="Fill-13" fill="#FFFFFF" mask="url(#mask-2)"></path>
                    <path d="M240.600494,230 L240.600494,226.500504 C246.599506,221.886249 245.999012,215.681497 245.999012,208.523254 L240,208.523254 L240,188 L252,188 L252,205.021742 C252,217.908999 251.399506,223.158243 240.600494,230" id="Fill-14" fill="#FFFFFF" mask="url(#mask-2)"></path>
                    <polygon id="Fill-15" fill="#FFFFFF" mask="url(#mask-2)" points="429 209 436 209 436 149 429 149"></polygon>
                    <path d="M458.484279,165.057224 C458.484279,161.403606 458.484279,159.109427 457.596881,157.664643 C457.109919,156.900593 456.142031,155.880506 454.121741,155.880506 C453.71728,155.880506 452.423409,155.965852 451.373019,156.729902 C449.352729,158.08934 449.515721,160.554211 449.515721,165.057224 L449.515721,197.171673 C449.515721,200.400594 449.998659,203.456791 453.878259,203.456791 C458.727761,203.456791 458.484279,198.870464 458.484279,195.302191 L458.484279,165.057224 Z M465.032112,203.032093 C462.607361,210.083291 455.17213,209.999977 453.475811,209.999977 C452.82787,209.999977 450.644588,209.999977 448.7068,209.233896 C447.17146,208.640539 443.776809,206.600365 442.56544,201.928692 C442.08049,200.144556 442,199.041155 442,195.641543 L442,165.735928 C442,160.38352 442,155.201803 446.445041,151.635563 C447.817389,150.53013 450.24214,149 454.28272,149 C455.496101,149 458.88874,149 461.715939,151.379525 C463.172801,152.568272 463.97971,153.925679 464.303681,154.606414 C465.91951,157.579297 466,160.722871 466,167.43675 L466,195.982927 C466,198.277106 465.839021,200.739946 465.032112,203.032093 Z" id="Fill-16" fill="#FFFFFF" mask="url(#mask-2)"></path>
                    <polygon id="Fill-17" fill="#FFFFFF" mask="url(#mask-2)" points="488.619851 209 479.427414 164.978725 480.07765 209 473 209 473 149 481.13707 149 490.167454 189.878786 489.841323 149 497 149 497 209"></polygon>
                    <path d="M525.862233,204.762075 C524.463674,206.873816 521.502744,210 515.335163,210 C509.415349,210 506.452371,207.21129 505.05586,205.099549 C503,202.058239 503,198.339959 503,194.8763 L503,166.067714 C503,164.715795 503.081907,163.363877 503.163814,162.011959 C503.327627,159.730471 503.739209,152.211058 511.141535,149.759822 C512.785814,149.167727 514.184372,149 515.994512,149 C520.270047,149 522.573675,150.351918 524.052093,151.618962 C525.286838,152.633406 526.18986,153.900451 526.765255,155.337242 C527.918093,158.041079 528,160.744915 528,163.616478 L528,171.218744 L520.270047,171.218744 L520.270047,162.011959 C520.270047,160.744915 520.681628,155.842444 515.580883,155.842444 C513.938652,155.842444 513.113441,156.349665 512.456139,156.856887 C510.56614,158.54628 510.729953,161.082389 510.729953,163.363877 L510.729953,196.313092 C510.729953,196.988041 510.729953,197.66501 510.81186,198.339959 C510.893767,199.946498 511.141535,203.157556 515.417069,203.157556 C515.912605,203.157556 517.227209,203.240409 518.378,202.310839 C520.351953,200.876068 520.270047,198.339959 520.270047,196.143345 L520.270047,184.570198 L528,184.570198 L528,195.720996 C528,199.016928 527.75428,201.888491 525.862233,204.762075" id="Fill-18" fill="#FFFFFF" mask="url(#mask-2)"></path>
                    <path d="M58.3036831,48.9062327 C57.4866512,50.3191921 56.0285323,51.1604806 54.4005354,51.1604806 L15.7836417,51.1604806 C15.3731034,50.1306623 14.3781041,49.4008699 13.2112045,49.4008699 C12.0443049,49.4008699 11.051328,50.1306623 10.6407896,51.1604806 L8.60023213,51.1604806 C6.9722353,51.1604806 5.51209405,50.3191921 4.69708446,48.9062327 C3.88207486,47.4953006 3.87803015,45.8066418 4.68697267,44.3916553 L24.2714712,10.1562788 C24.3462983,10.1623604 24.4191032,10.178578 24.4979751,10.178578 C26.0288988,10.178578 27.2706256,8.92576757 27.2706256,7.38104014 C27.2706256,6.78504294 27.0845688,6.23769857 26.7711036,5.78360547 L27.5881355,4.35645571 C28.4011227,2.93538756 29.8632864,2.0859902 31.4993726,2.0859902 C33.1354589,2.0859902 34.5976225,2.93538756 35.4126321,4.35645571 L54.3257083,37.4201098 C53.9313488,37.904611 53.6846213,38.5168258 53.6846213,39.1918838 C53.6846213,40.7386385 54.9263481,41.9914489 56.4572718,41.9914489 C56.6129932,41.9914489 56.7626476,41.9711769 56.9143243,41.9448233 L58.3137949,44.3916553 C59.1207151,45.8066418 59.1186927,47.4953006 58.3036831,48.9062327 M60.1157144,43.3557554 L58.6818637,40.8481073 C59.023642,40.3838782 59.2319447,39.8142346 59.2319447,39.1918838 C59.2319447,37.6451292 57.9902179,36.3923187 56.4572718,36.3923187 C56.3521093,36.3923187 56.2530138,36.4125908 56.1539184,36.4227268 L37.2165739,3.32055582 C36.0274284,1.24064723 33.8918201,0 31.4993726,0 C29.1089475,0 26.9733392,1.24064723 25.7841937,3.32055582 L25.0318771,4.6341823 C24.8579545,4.60174708 24.6799871,4.57944786 24.4979751,4.57944786 C22.965029,4.57944786 21.7233022,5.8342855 21.7233022,7.38104014 C21.7233022,8.08245181 21.9902532,8.71899303 22.4149481,9.20957576 L2.88303085,43.3557554 C1.69995241,45.4235008 1.70601948,47.8885776 2.8992097,49.9522686 C4.08835521,52.0139324 6.22194111,53.2464708 8.60023213,53.2464708 L10.642812,53.2464708 C11.0533503,54.2742619 12.0463273,55 13.2112045,55 C14.3760817,55 15.3710811,54.2742619 15.7816194,53.2464708 L54.4005354,53.2464708 C56.7788265,53.2464708 58.91039,52.0139324 60.1035802,49.9522686 C61.2947481,47.8885776 61.2987928,45.4235008 60.1157144,43.3557554" id="Fill-19" fill="#FFFFFF" mask="url(#mask-2)"></path>
                    <path d="M58.3120548,22.6035086 L39.6193961,55.2836398 C39.4839128,55.2613423 39.3504515,55.2410718 39.2109239,55.2410718 C37.6781421,55.2410718 36.4365483,56.4937898 36.4365483,58.0404305 C36.4365483,58.6992223 36.6711165,59.2972027 37.0492567,59.7755869 L35.4093014,62.6438654 C34.5943792,64.0648288 33.1343943,64.9141636 31.4984834,64.9141636 C29.8666167,64.9141636 28.4025876,64.0648288 27.5917096,62.6438654 L8.42789247,29.1448052 C8.89298458,28.6441234 9.1801284,27.9772233 9.1801284,27.2393764 C9.1801284,25.6927358 7.93853468,24.4400177 6.40777499,24.4400177 C6.19140605,24.4400177 5.98312567,24.4704235 5.7809117,24.5170457 L4.68693417,22.6035086 C3.87807832,21.1886264 3.8821226,19.5041462 4.69704487,18.0933181 C5.51398927,16.68249 6.9699298,15.8392364 8.59573005,15.8392364 L46.4441173,15.8392364 C46.8546117,16.8689787 47.8474822,17.5987174 49.0142568,17.5987174 C50.1810313,17.5987174 51.1779462,16.8689787 51.5864184,15.8392364 L54.4012367,15.8392364 C56.0290591,15.8392364 57.4870218,16.68249 58.3019441,18.0933181 C59.1168663,19.5041462 59.1188885,21.1886264 58.3120548,22.6035086 M60.1016483,17.0473593 C58.9106081,14.9858475 56.7792729,13.7533999 54.4012367,13.7533999 L51.5843962,13.7533999 C51.1739019,12.7277116 50.1810313,12 49.0142568,12 C47.8495044,12 46.8566338,12.7277116 46.4461395,13.7533999 L8.59573005,13.7533999 C6.219716,13.7533999 4.09040298,14.9858475 2.8973406,17.0473593 C1.70630037,19.1088711 1.70023395,21.5737663 2.88318563,23.6413592 L4.07827014,25.7292227 C3.79921488,26.1650389 3.63339943,26.6819371 3.63339943,27.2393764 C3.63339943,28.78399 4.87499315,30.0387351 6.40777499,30.0387351 C6.45226206,30.0387351 6.49068271,30.0285999 6.53516978,30.0265728 L25.785939,63.681716 C26.9749571,65.7594442 29.1103365,67 31.4984834,67 C33.8886524,67 36.026054,65.7594442 37.21305,63.681716 L38.8590716,60.8033023 C38.9743336,60.8195187 39.0895955,60.8397892 39.2109239,60.8397892 C40.7416836,60.8397892 41.9832773,59.5870711 41.9832773,58.0404305 C41.9832773,57.4019091 41.7628641,56.8201452 41.4069675,56.3478421 L60.1178254,23.6413592 C61.298755,21.5737663 61.2947107,19.1088711 60.1016483,17.0473593" id="Fill-20" fill="#FFFFFF" mask="url(#mask-2)"></path>
                    <path d="M29.996227,26.121003 C29.322751,25.3832 28.3945991,25 27.4570148,25 C26.7514685,25 26.0402627,25.2173373 25.4252677,25.6672637 C23.8821209,26.8016119 23.5368937,28.9940496 24.6612403,30.5554466 C25.2045487,31.3123142 26.0063059,31.8079958 26.9193659,31.9567003 C27.8343123,32.1015918 28.7492588,31.8804416 29.4963078,31.3294725 C29.6755241,31.1998327 29.845308,31.0454088 30,30.8757332 C29.01714,29.4573213 29.0114805,27.5508537 29.996227,26.121003" id="Fill-21" fill="#FFFFFF" mask="url(#mask-2)"></path>
                    <path d="M32.4402607,31.64 C32.6233735,31.778 32.8198383,31.898 33.0315625,32 C34.0730168,30.55 35.8869784,29.922 37.5540682,30.454 C38.414317,28.844 38.0023132,26.8 36.5564847,25.7 C35.9365714,25.226 35.2174721,25 34.504095,25 C33.4206773,25 32.3506117,25.524 31.6677534,26.512 C30.5328352,28.15 30.8799867,30.45 32.4402607,31.64" id="Fill-22" fill="#FFFFFF" mask="url(#mask-2)"></path>
                    <path d="M33,34.0858986 C34.6425249,34.6504086 35.7758288,36.1894611 35.808373,37.9325763 C37.5427874,38.2758594 39.2733731,37.2803384 39.8266245,35.5829943 C40.4277351,33.7464298 39.4150361,31.7687378 37.5734173,31.1718066 C35.7279697,30.5748755 33.7427735,31.5837463 33.1435774,33.4184037 C33.0746602,33.6320021 33.0268011,33.8551361 33,34.0858986" id="Fill-23" fill="#FFFFFF" mask="url(#mask-2)"></path>
                    <path d="M24.0317441,31 C22.4330664,31.7739628 21.6213421,33.6798711 22.1720189,35.4597854 C22.4635537,36.3937405 23.079016,37.151704 23.9136058,37.5976825 C24.7443847,38.0436611 25.6933019,38.1216573 26.5812444,37.817672 C27.469187,37.5156865 28.1932603,36.8677177 28.6162716,35.9937597 C29.0411883,35.1198018 29.1155011,34.1238497 28.8277772,33.1918945 C28.7572754,32.9699052 28.6658135,32.7499158 28.5514861,32.537926 C26.8956447,33.0679005 25.0816504,32.4579298 24.0317441,31" id="Fill-24" fill="#FFFFFF" mask="url(#mask-2)"></path>
                    <path d="M29.8049781,34.0698424 C29.7724289,35.8009519 28.6523523,37.3490366 27,37.9190826 C27.208698,39.6654442 28.6925602,41 30.4846827,41 C32.4223195,41 34,39.4309437 34,37.4996508 C34,35.347203 32.0068381,33.6275325 29.8049781,34.0698424" id="Fill-25" fill="#FFFFFF" mask="url(#mask-2)"></path>
                    <path d="M201.73913,346 L30.2608696,346 C13.5488,346 0,332.568 0,316 C0,299.432 13.5488,286 30.2608696,286 L201.73913,286 C218.4512,286 232,299.432 232,316 C232,332.568 218.4512,346 201.73913,346" id="Fill-26" fill="#FFFFFF" mask="url(#mask-2)"></path>
                    <polygon id="Fill-27" fill="#FFFFFF" mask="url(#mask-2)" points="23.2549389 109 23.2549389 109 41 109 41 96 2 96 2 109"></polygon>
                    <path d="M43.9939138,188.043963 L43.9939138,146.61136 C43.9939138,142.324882 43.6924027,140.737819 42.9336329,138.517138 C40.6593203,131.054522 34.1378937,128.514015 27.1651988,128.514015 C20.3422611,128.514015 16.7041596,131.21343 14.5835978,133.118308 L14.5835978,111 L2.75677302,111 L2.75677302,152.484901 L13.976582,152.484901 L13.976582,150.105313 C13.976582,147.088083 14.4298471,145.50102 15.0368629,144.231771 C15.9453899,142.324882 18.0699452,140.263108 22.7683276,140.263108 C30.805297,140.263108 30.9570509,146.61136 30.9570509,149.626579 L30.9570509,185.662363 C30.9570509,189.156315 31.2585621,193.758597 27.9239686,196.140197 C26.406429,197.250537 24.2858672,197.72726 22.4668165,197.72726 C20.7975229,197.72726 18.980469,197.250537 17.6146834,196.140197 C15.1886168,194.394226 14.733355,191.535904 14.733355,188.677581 L14.733355,173.122755 L2,173.122755 L2,189.631026 C2,192.964059 2,195.822382 3.36179208,198.996508 C6.24312048,205.982401 13.824828,207.887279 15.6438787,208.364001 C18.8267183,208.99762 21.8598006,208.99762 23.0718355,208.99762 C25.80141,208.99762 39.1417808,209.474342 42.9336329,196.934734 C44.1456678,193.122967 43.9939138,189.472118 43.9939138,188.043963" id="Fill-28" fill="#FFFFFF" mask="url(#mask-2)"></path>
                    <path d="M78.1197657,324.151466 L78.1197657,321.657155 C78.7660097,321.593707 79.2311407,321.405345 79.5131006,321.088103 C79.8115254,320.755 80.0132193,320.20181 80.1181825,319.434483 L81.2707195,311.1525 L83.888625,311.1525 L82.7484366,319.420603 C82.5981952,320.523017 82.3965012,321.304224 82.1433547,321.766207 C81.6452941,322.723879 80.9187841,323.405948 79.9638249,323.812414 C79.5233911,323.992845 78.9080187,324.105862 78.1197657,324.151466 Z M60.2389773,311.1525 L62.8260112,311.1525 L63.8674107,318.87931 C64.0094198,319.890517 64.1905327,320.564655 64.4169239,320.897759 C64.7544526,321.405345 65.2751524,321.657155 65.9790232,321.657155 L65.9790232,324.165345 C64.6103855,324.084052 63.5010686,323.614138 62.6572469,322.755603 C61.9821895,322.069569 61.5417557,320.947328 61.3359455,319.394828 L60.2389773,311.1525 Z M59,328 L85,328 L85,325.452155 L59,325.452155 L59,328 Z M59,309.282759 L59,306.774569 L70.6632629,306.774569 L70.6632629,305 L73.2523549,305 L73.2523549,306.774569 L85,306.774569 L85,309.282759 L59,309.282759 Z" id="Fill-29" fill="#169194" mask="url(#mask-2)"></path>
                    <path d="M100.86338,328 L100.86338,307.952595 C100.86338,307.009516 100.968101,306.382785 101.179555,306.074394 C101.674964,305.360121 102.309328,305 103.080635,305 L109.454487,305 C111.150153,305 112,305.885381 112,307.652163 L112,323.008045 C112,324.068512 111.766393,324.81263 111.299178,325.238408 C110.82995,325.666176 110.3285,325.879066 109.798856,325.879066 L105.5174,325.879066 L105.5174,323.362197 L108.27034,323.362197 C108.775818,323.362197 109.096021,323.288581 109.232963,323.145329 C109.379974,323.000087 109.454487,322.649913 109.454487,322.096799 L109.454487,308.999135 C109.454487,308.282872 109.371919,307.849135 109.206783,307.693945 C109.077896,307.576557 108.765748,307.516869 108.27034,307.516869 L104.76019,307.516869 C104.133881,307.516869 103.749235,307.590484 103.602223,307.733737 C103.473337,307.861073 103.410907,308.282872 103.410907,308.999135 L103.410907,328 L100.86338,328 Z M89.547527,316.480104 L95.810617,316.480104 C96.2516514,316.480104 96.5497019,316.416436 96.7067827,316.2891 C96.8618495,316.161765 96.9403899,315.930969 96.9403899,315.596713 L96.9403899,313.229066 L89.547527,313.229066 L89.547527,316.480104 Z M89.547527,310.714187 L96.9403899,310.714187 L96.9403899,308.481834 C96.9403899,307.839187 96.6282423,307.516869 96.0039472,307.516869 L90.6350089,307.516869 C90.2141131,307.516869 89.9321734,307.576557 89.7952312,307.693945 C89.6300951,307.82128 89.547527,308.175433 89.547527,308.754412 L89.547527,310.714187 Z M89.547527,318.996972 L89.547527,323.770069 C89.547527,324.613668 89.6240535,325.111073 89.7811342,325.266263 C89.8999517,325.383651 90.3289029,325.447318 91.0619462,325.457266 L94.2700177,325.483131 C95.2326406,325.483131 95.8468664,325.379671 96.1147092,325.170761 C96.326164,325.007612 96.4711616,324.844464 96.5537297,324.681315 C96.6564363,324.454498 96.7067827,324.036678 96.7067827,323.429844 L96.7067827,320.831401 L99.2663928,320.831401 L99.2663928,323.620848 C99.2663928,324.926038 99.0911874,325.843253 98.7427904,326.368512 C98.0278718,327.456834 97.119623,328 96.0180441,328 L89.7811342,328 C88.8245529,328 88.1156758,327.769204 87.6484614,327.305623 C87.3987434,327.052941 87.2396488,326.816176 87.1651361,326.599308 C87.0563879,326.27301 87,325.783564 87,325.130969 L87,307.896886 C87,306.999567 87.1067343,306.396713 87.3161753,306.088322 C87.8135976,305.3641 88.4942807,305 89.3682939,305 L96.4449815,305 C97.3874658,305 98.037941,305.109429 98.386338,305.326298 C99.1193813,305.797837 99.485903,306.474308 99.485903,307.35372 L99.485903,315.948875 C99.485903,316.891955 99.3711133,317.550519 99.1435476,317.922578 C98.6944579,318.636851 97.9594007,318.996972 96.9403899,318.996972 L89.547527,318.996972 Z" id="Fill-30" fill="#169194" mask="url(#mask-2)"></path>
                    <path d="M128.949363,327.930113 L128.949363,325.05036 C130.504549,324.234327 131.635968,323.373073 132.337448,322.464543 C132.911385,321.714286 133.267268,320.933196 133.407152,320.117163 C133.53058,319.42446 133.590237,318.651593 133.590237,317.798561 L133.590237,313.149024 L136.276842,313.149024 L136.276842,317.967112 C136.276842,319.186023 136.387926,320.160329 136.61421,320.890031 C137.13672,322.614594 138.595221,324.028777 140.987657,325.134635 L140.987657,328 C138.391566,326.820144 136.365298,325.362795 134.910911,323.63001 C133.767149,325.167523 131.782024,326.600206 128.949363,327.930113 Z M128.934963,306.655704 L128.934963,304.057554 L141,304.057554 L141,306.655704 L136.276842,306.655704 L136.276842,308.863309 L138.117968,308.863309 C139.02516,308.863309 139.716354,309.101747 140.185379,309.578623 C140.635889,310.028777 140.860116,310.585817 140.860116,311.251799 L140.860116,321.64851 L138.272253,321.64851 L138.272253,312.234327 C138.272253,311.720452 137.978084,311.461459 137.387689,311.461459 L132.366247,311.461459 C132.152306,311.461459 131.973336,311.556012 131.831395,311.743063 C131.710025,311.903392 131.648311,312.065776 131.648311,312.234327 L131.648311,321.64851 L129.048105,321.64851 L129.048105,311.405961 C129.048105,310.637205 129.26616,310.028777 129.708442,309.578623 C130.158952,309.101747 130.774033,308.863309 131.551626,308.863309 L133.660179,308.863309 L133.660179,306.655704 L128.934963,306.655704 Z M115,316.758479 L115,314.160329 L119.597674,314.160329 L119.597674,311.519013 L122.284279,311.519013 L122.284279,314.160329 L124.168605,314.160329 C125.217739,314.160329 126.083788,314.526208 126.768811,315.25591 C127.398291,315.930113 127.710974,316.688592 127.710974,317.531346 L127.710974,322.478931 C127.710974,323.387461 127.361263,324.182939 126.657726,324.86742 C125.964475,325.549846 125.100483,325.893114 124.069863,325.893114 L121.482,325.893114 L121.482,323.292909 L123.56381,323.292909 C123.995807,323.292909 124.345518,323.157246 124.619115,322.88592 C124.927684,322.585817 125.081969,322.219938 125.081969,321.790339 L125.081969,318.065776 C125.081969,317.720452 124.960598,317.420349 124.7158,317.167523 C124.446317,316.894142 124.098663,316.758479 123.676952,316.758479 L120.426695,316.758479 L120.426695,327.915725 L117.78329,327.915725 L117.78329,316.758479 L115,316.758479 Z M115,311.658787 L115,309.171634 C115.619195,309.095581 116.036791,308.959918 116.250732,308.764645 C116.448216,308.596095 116.876098,307.780062 117.530263,306.318602 C117.896432,305.504625 118.242029,304.933196 118.571169,304.604317 C118.984651,304.203494 119.494818,304 120.103727,304 L122.438563,304 C123.068043,304 123.57821,304.215827 123.971121,304.647482 C124.287918,305.003083 124.779571,305.934224 125.433737,307.44296 C125.855447,308.417266 126.336815,308.966084 126.881953,309.087359 C126.929267,309.095581 127.178179,309.124358 127.626632,309.171634 L127.626632,311.658787 C126.48287,311.593011 125.672363,311.434738 125.19511,311.181912 C124.7734,310.966084 124.392832,310.563207 124.055463,309.973279 C123.866208,309.654676 123.574096,309.064748 123.168842,308.201439 C122.849988,307.508736 122.613419,307.083248 122.452963,306.922919 C122.292507,306.754368 122.095023,306.670092 121.862568,306.670092 L120.737321,306.670092 C120.391724,306.670092 120.126355,306.797533 119.949442,307.05036 C119.760187,307.311408 119.394019,308.006166 118.852995,309.130524 C118.346942,310.20555 117.840889,310.88592 117.334837,311.167523 C116.96044,311.373073 116.18079,311.537513 115,311.658787 Z" id="Fill-31" fill="#169194" mask="url(#mask-2)"></path>
                    <path d="M147.964079,323.574128 L154.009969,323.574128 L154.009969,319.811888 L147.964079,319.811888 L147.964079,323.574128 Z M147.964079,317.204089 L154.009969,317.204089 L154.009969,313.652122 L147.964079,313.652122 L147.964079,317.204089 Z M147.964079,311.060814 L154.009969,311.060814 L154.009969,307.651091 L147.964079,307.651091 L147.964079,311.060814 Z M144,326.181928 L144,323.574128 L145.320674,323.574128 L145.320674,307.649029 L144,307.649029 L144,305 L158.17359,305 L158.17359,307.649029 L156.612232,307.649029 L156.612232,323.574128 L158.17359,323.574128 L158.17359,326.181928 C159.889232,325.043979 161.358019,323.65865 162.575837,322.023879 C161.666588,320.154097 160.919851,318.055489 160.339742,315.723931 C160.039402,314.532383 159.679405,312.63374 159.257694,310.032125 L161.8723,310.032125 C162.462695,314.353032 163.246459,317.538052 164.221537,319.585123 C165.439354,317.012369 166.256033,314.724102 166.665401,312.722384 L167.18791,310.143446 C167.309281,309.401306 167.368937,308.978698 167.368937,308.875623 C167.368937,308.500429 167.111797,308.312833 166.597516,308.312833 L158.737242,308.312833 L158.737242,305.705033 L166.918427,305.705033 C167.971675,305.705033 168.747211,305.962721 169.253264,306.480158 C169.722288,306.95018 169.9568,307.564508 169.9568,308.325202 C169.9568,309.257001 169.718174,310.772204 169.240921,312.876997 C168.341957,316.814465 167.154996,319.914963 165.682095,322.178492 C166.805285,323.813262 168.245273,325.186222 170,326.293249 L170,328.956708 C167.815333,328.035217 165.850779,326.509706 164.108395,324.378114 C162.917319,325.711905 161.689216,326.796255 160.424084,327.633225 C159.870718,327.99811 159.06021,328.441333 157.990506,328.956708 L157.990506,326.181928 L156.612232,326.181928 L156.612232,329 L154.012026,329 L154.012026,326.181928 L144,326.181928 Z" id="Fill-32" fill="#169194" mask="url(#mask-2)"></path>
                    <path d="M99,197.332836 C89.767396,196.939152 90.3334585,189.481374 90.3334585,186.376321 L90.3334585,114.840999 C90.3334585,108.873161 92.8332238,105.146291 99,104.857589 L99,94 C85.519861,94.3533057 80.0844211,101.298287 78.0970044,107.350918 C77.4689642,109.581791 77,112.131649 77,117.069854 L77,182.074067 C77,188.926179 77,192.114006 78.0970044,195.61678 C81.8817729,208.378182 94.9838482,208.973754 99,209 L99,197.332836 Z" id="Fill-33" fill="#FFFFFF" mask="url(#mask-2)"></path>
                    <path d="M120.770663,107.196291 C118.972225,101.135368 114.077153,94.3332397 101,94 L101,104.861594 C107.948693,105.423052 108.777028,110.591296 108.777028,116.75926 L108.777028,187.208145 C108.777028,188.484554 109.238789,193.745702 104.93307,196.29448 C103.626772,197.033666 102.407561,197.29218 101,197.372965 L101,209 C106.350757,208.77784 111.810879,207.392371 116.003183,203.625753 C120.464847,199.481463 122,195.018071 122,183.70206 L122,117.876117 C122,112.138336 121.540264,110.066191 120.770663,107.196291" id="Fill-34" fill="#FFFFFF" mask="url(#mask-2)"></path>
                    <path d="M153,197.343544 C143.632812,197.056877 144.205729,189.504608 144.205729,186.377513 L144.205729,114.843939 C144.205729,108.807777 146.730655,105.056877 153,104.846924 L153,94 C139.49349,94.2846485 134.065104,101.271658 132.086496,107.354253 C131.466518,109.587027 131,112.134732 131,117.074695 L131,182.075485 C131,188.927236 131,192.114895 132.086496,195.617484 C135.90253,208.606337 149.284226,208.991925 153,209 L153,197.343544 Z" id="Fill-35" fill="#FFFFFF" mask="url(#mask-2)"></path>
                    <path d="M174.758449,107.191622 C172.948281,101.162378 168.047531,94.4019496 155,94 L155,104.872837 C161.82546,105.515149 162.643615,110.647581 162.643615,116.755598 L162.643615,187.211908 C162.643615,188.488452 163.109964,193.750154 158.761469,196.299201 C157.5056,197.002108 156.331548,197.270747 155,197.36568 L155,209 C160.332327,208.749539 165.764878,207.349785 169.943606,203.631246 C174.44755,199.48652 176,195.022657 176,183.705454 L176,117.872574 C176,112.134188 175.533652,110.061825 174.758449,107.191622" id="Fill-36" fill="#FFFFFF" mask="url(#mask-2)"></path>
                    <path d="M207,197.319492 C198.362226,196.782411 198.895718,189.449031 198.895718,186.375957 L198.895718,114.83108 C198.895718,108.95953 201.241484,105.264573 207,104.868829 L207,94 C194.168221,94.4442025 188.97117,101.331361 187.06099,107.342229 C186.455566,109.573337 186,112.123464 186,117.062188 L186,182.07325 C186,188.926083 186,192.114246 187.06099,195.617389 C190.633587,208.069194 202.8,208.939427 207,209 L207,197.319492 Z" id="Fill-37" fill="#FFFFFF" mask="url(#mask-2)"></path>
                    <path d="M228.78704,107.204302 C226.996574,101.101932 222.114759,94.2423178 209,94 L209,104.857858 C216.099914,105.304126 216.951185,110.520018 216.951185,116.765759 L216.951185,187.203512 C216.951185,188.479719 217.406794,193.740035 213.158436,196.288411 C211.785612,197.073924 210.502712,197.312204 209,197.374802 L209,209 C214.365401,208.814223 219.872681,207.451185 224.083072,203.618525 C228.4833,199.47489 230,195.012204 230,183.697981 L230,117.882441 C230,112.145566 229.544391,110.073749 228.78704,107.204302" id="Fill-38" fill="#FFFFFF" mask="url(#mask-2)"></path>
                    <path d="M285,197.366183 C284.946433,197.366183 284.896835,197.37022 284.843268,197.37022 C275.203264,197.37022 275.804401,189.567246 275.804401,186.380259 L275.804401,114.861751 C275.804401,108.649244 278.363694,104.824455 284.843268,104.824455 C284.896835,104.824455 284.946433,104.832529 285,104.832529 L285,94 C271.40202,94.050459 266.005681,101.185355 264.053476,107.373642 C263.45234,109.605946 263,112.153114 263,117.092037 L263,182.079137 C263,188.927427 263,192.114415 264.053476,195.618285 C267.820994,208.84055 281.228515,209 284.541708,209 C284.694472,209 284.847236,208.98789 285,208.985871 L285,197.366183 Z" id="Fill-39" fill="#FFFFFF" mask="url(#mask-2)"></path>
                    <path d="M305.777442,107.176347 C304.02719,101.251032 299.346425,94.6143573 287,94 L287,104.953343 C293.082578,105.878921 293.847936,110.852386 293.847936,116.745365 L293.847936,187.238819 C293.847936,188.516035 294.30715,193.780511 290.025176,196.330902 C289.01007,196.908883 288.037261,197.177665 287,197.315087 L287,209 C292.033233,208.662508 297.096677,207.22766 301.036254,203.666813 C305.471299,199.519902 307,195.053686 307,183.730516 L307,117.862929 C307,112.121518 306.540785,110.048063 305.777442,107.176347" id="Fill-40" fill="#FFFFFF" mask="url(#mask-2)"></path>
                    <path d="M359.78704,107.204302 C357.996574,101.101932 353.114759,94.2423178 340,94 L340,104.857858 C347.099914,105.304126 347.951185,110.520018 347.951185,116.765759 L347.951185,187.203512 C347.951185,188.479719 348.406794,193.740035 344.158436,196.288411 C342.785612,197.073924 341.502712,197.312204 340,197.374802 L340,209 C345.365401,208.814223 350.872681,207.451185 355.083072,203.618525 C359.4833,199.47489 361,195.012204 361,183.697981 L361,117.882441 C361,112.145566 360.544391,110.073749 359.78704,107.204302" id="Fill-41" fill="#FFFFFF" mask="url(#mask-2)"></path>
                    <path d="M338,197.319492 C329.362226,196.782411 329.895718,189.449031 329.895718,186.375957 L329.895718,114.83108 C329.895718,108.95953 332.241484,105.264573 338,104.868829 L338,94 C325.168221,94.4442025 319.97117,101.331361 318.06099,107.342229 C317.455566,109.573337 317,112.123464 317,117.062188 L317,182.07325 C317,188.926083 317,192.114246 318.06099,195.617389 C321.633587,208.069194 333.8,208.939427 338,209 L338,197.319492 Z" id="Fill-42" fill="#FFFFFF" mask="url(#mask-2)"></path>
                    <path d="M393,197.319492 C384.362226,196.782411 384.895718,189.449031 384.895718,186.375957 L384.895718,114.83108 C384.895718,108.95953 387.241484,105.264573 393,104.868829 L393,94 C380.168221,94.4442025 374.97117,101.331361 373.06099,107.342229 C372.455566,109.573337 372,112.123464 372,117.062188 L372,182.07325 C372,188.926083 372,192.114246 373.06099,195.617389 C376.633587,208.069194 388.8,208.939427 393,209 L393,197.319492 Z" id="Fill-43" fill="#FFFFFF" mask="url(#mask-2)"></path>
                    <path d="M414.78704,107.204302 C412.996574,101.101932 408.114759,94.2423178 395,94 L395,104.857858 C402.099914,105.304126 402.951185,110.520018 402.951185,116.765759 L402.951185,187.203512 C402.951185,188.479719 403.406794,193.740035 399.158436,196.288411 C397.785612,197.073924 396.502712,197.312204 395,197.374802 L395,209 C400.365401,208.814223 405.872681,207.451185 410.083072,203.618525 C414.4833,199.47489 416,195.012204 416,183.697981 L416,117.882441 C416,112.145566 415.544391,110.073749 414.78704,107.204302" id="Fill-44" fill="#FFFFFF" mask="url(#mask-2)"></path>
                </g>
            </g>
        </g>
    </g>
</svg>