<svg id="图层_1" data-name="图层 1" xmlns="http://www.w3.org/2000/svg" viewBox="0 0 30 30"><defs><style>.cls-1{fill:#808a9b;}</style></defs><title>Fill 1@1x</title><g id="Fill-1"><path class="cls-1" d="M30,16.13a15.45,15.45,0,0,1-8,12.93c-.57.33-1.2.55-1.79.82s-.9,0-.91-.6c0-1.13,0-2.25,0-3.38a4.65,4.65,0,0,0-.81-2.9c-.4-.54-.14-.72.36-.82a8.63,8.63,0,0,0,2.44-.94,7.18,7.18,0,0,0,2.33-10,2.19,2.19,0,0,1-.38-1.61c.14-1,.35-2.41-.46-3s-2,.1-2.86.65a3.26,3.26,0,0,1-2.56.39,12.63,12.63,0,0,0-5.3.11,1.57,1.57,0,0,1-1.4-.26A6.9,6.9,0,0,0,8.05,6.42c-.62-.14-1,0-1.15.71A6.64,6.64,0,0,0,6.83,9.9a1.21,1.21,0,0,1-.17,1c-2.81,4.62-1,9.56,4,11.16,1.09.35,1.07.34.59,1.37-.24.52-.32,1.13-1,1.2A2.75,2.75,0,0,1,7.77,24c-.37-.39-.67-.84-1-1.25a3,3,0,0,0-2-1.29.58.58,0,0,0-.64.28c-.13.28.14.39.31.51a5,5,0,0,1,1.71,2.31,3.24,3.24,0,0,0,3.44,2c1-.06,1.29.33,1.17,1.26a5,5,0,0,0,0,.67c0,1.69-.13,1.78-1.59,1.1A15.11,15.11,0,0,1,.31,18.37C-1.38,10.27,4,1.94,11.88.33S27,3.14,29.37,11A17.14,17.14,0,0,1,30,16.13" transform="translate(0 0)"/></g></svg>