<svg id="图层_1" data-name="图层 1" xmlns="http://www.w3.org/2000/svg" viewBox="0 0 30 30"><defs><style>.cls-1{fill:#808a9b;}</style></defs><title>2-1@1x</title><g id="_2-1" data-name="2-1"><path class="cls-1" d="M15.42,0A15,15,0,1,1,0,14.56,15,15,0,0,1,15.42,0ZM22.3,10.48c.27-1.34-.23-1.69-1.5-1.19l-10.47,4c-1.17.45-2.34.89-3.49,1.36-.38.16-.92.32-.56.92a14.55,14.55,0,0,0,4.25,1.3,3.57,3.57,0,0,0,.56-.33l6.74-4.25a3.83,3.83,0,0,1,1.55-.77c0,.37-.25.47-.42.63l-5.9,5.35a1.33,1.33,0,0,0-.59.92c-.06.94-.13,1.87-.2,2.81,0,.58.26.59.6.3a12.5,12.5,0,0,0,1.29-1.23c.4-.45.72-.55,1.25-.13,1,.78,2,1.5,3,2.19.76.51,1.26.33,1.46-.54C20.72,18.07,21.54,14.28,22.3,10.48Z" transform="translate(0 0)"/></g></svg>