<svg id="图层_1" data-name="图层 1" xmlns="http://www.w3.org/2000/svg" viewBox="0 0 30 30"><defs><style>.cls-1{fill:#808a9b;}</style></defs><title>4-1@1x</title><g id="_4-1" data-name="4-1"><path class="cls-1" d="M15,0A15,15,0,1,1,0,15,15,15,0,0,1,15,0Zm8.14,10.58A2.25,2.25,0,0,0,24,9.41c-.55,0-1,.32-1.48.2.31-.59,1.06-.87,1-1.71l-.75.28A2.16,2.16,0,0,1,20.57,8a3.73,3.73,0,0,0-5.75,3.08c0,.92-.34,1-1.1.92A11.36,11.36,0,0,1,7.59,8.82c-.2-.18-.32-.57-.61-.49s-.37.47-.44.77a4.22,4.22,0,0,0,1.27,4c-.28,0-.45.05-.58,0-.83-.36-.91,0-.71.7a3.78,3.78,0,0,0,2.27,2.57c.17.23-.08.24-.17.33-.76,0-.88.23-.47.87A5.09,5.09,0,0,0,11,19.4C9.57,20.69,7.83,20.81,5.88,21a11,11,0,0,0,8,1.32A10.85,10.85,0,0,0,22.45,12,1.69,1.69,0,0,1,23.14,10.58Z" transform="translate(0 0)"/></g></svg>