<svg id="图层_1" data-name="图层 1" xmlns="http://www.w3.org/2000/svg" viewBox="0 0 2282.46 500.01"><defs><style>.cls-1{fill:#fff;}</style></defs><title>ionctoken白色</title><path class="cls-1" d="M437.59,325.7l-10.8-18.84A21,21,0,0,0,410,273.39a22.11,22.11,0,0,0-2.3.23L265.14,24.94a49.63,49.63,0,0,0-86.1,0l-5.66,9.87a20.72,20.72,0,0,0-4-.41,21,21,0,0,0-15.69,34.78L6.58,325.7a49.63,49.63,0,0,0,43,74.31H65a20.79,20.79,0,0,0,38.69,0H394.54a49.63,49.63,0,0,0,43-74.31Zm-13.68,41.7a33.61,33.61,0,0,1-29.39,16.94H103.73a20.79,20.79,0,0,0-38.73,0H49.63a34,34,0,0,1-29.46-50.85L167.65,76.29c.57,0,1.12.18,1.71.18a21,21,0,0,0,17.12-33l6.15-10.71a34,34,0,0,1,58.92,0L394,281.15a20.77,20.77,0,0,0,19.49,34L424,333.53a33.61,33.61,0,0,1-.09,33.87Z" transform="translate(0 0)"/><path class="cls-1" d="M437.5,124.7A49.11,49.11,0,0,0,394.58,100H373.35a20.79,20.79,0,0,0-38.7,0h-285a49.61,49.61,0,0,0-43,74.28l9,15.69A21,21,0,0,0,33.2,222.3c.33,0,.63-.08,1-.09l145,252.85a49.6,49.6,0,0,0,86.07,0l12.39-21.61A20.88,20.88,0,0,0,296.85,420L437.76,174.24A49.13,49.13,0,0,0,437.5,124.7ZM424,166.45,283.24,412a20.89,20.89,0,0,0-19.33,33.72l-12.36,21.55a33.94,33.94,0,0,1-58.89,0L48.33,215.59A20.87,20.87,0,0,0,28.4,180.82l-8.24-14.37a33.93,33.93,0,0,1,29.44-50.8h285a20.79,20.79,0,0,0,38.73,0h21.21A33.93,33.93,0,0,1,424,166.47Z" transform="translate(0 0)"/><path class="cls-1" d="M218.71,194.29a28.06,28.06,0,1,0-1.65,39.65q.85-.8,1.65-1.65A33.22,33.22,0,0,1,218.71,194.29Z" transform="translate(0 0)"/><path class="cls-1" d="M229.48,235.91a28.12,28.12,0,0,0,4.76,2.74,33.23,33.23,0,0,1,36.11-11.76,27.94,27.94,0,1,0-40.82,9Z" transform="translate(0 0)"/><path class="cls-1" d="M232.91,255.31A33.22,33.22,0,0,1,255.24,286a27.94,27.94,0,1,0-21.19-36A26.88,26.88,0,0,0,232.91,255.31Z" transform="translate(0 0)"/><path class="cls-1" d="M171.78,233.29A27.93,27.93,0,1,0,210.11,250a28.54,28.54,0,0,0-2.2-5A33.25,33.25,0,0,1,171.78,233.29Z" transform="translate(0 0)"/><path class="cls-1" d="M216.66,259.24A33.24,33.24,0,0,1,194.36,290a27.94,27.94,0,1,0,24.41-31.08c-.71.09-1.41.2-2.11.34Z" transform="translate(0 0)"/><path class="cls-1" d="M629.68,142.08V370.57H592.24V142.08Z" transform="translate(0 0)"/><path class="cls-1" d="M858.48,171.52c19.2,21.45,28.8,49.93,28.8,85.13s-9.6,63.36-28.8,84.8q-30.24,33.6-82.56,33.6c-35.2,0-62.72-11.52-82.56-33.92-19.2-21.76-28.48-49.92-28.48-84.48,0-34.88,9.28-63,28.48-84.8,19.84-23,47.36-34.25,82.56-34.25C810.8,137.6,838.32,148.81,858.48,171.52Zm-137.6,23c-12.48,15.36-18.56,35.84-18.56,62.08,0,25.92,6.08,46.4,18.56,61.76,12.8,15.68,31.36,23.68,55,23.68s41.92-7.68,54.72-22.72c12.48-15,18.88-35.84,18.88-62.72s-6.4-48-18.88-63.36c-12.8-15.36-31-22.73-54.72-22.73s-41.88,8.06-55,24.06Z" transform="translate(0 0)"/><path class="cls-1" d="M959.92,142.08l113,164.81h1.28V142.08H1112V370.57h-36.48l-114.24-167H960v167H922.47V142.08Z" transform="translate(0 0)"/><path class="cls-1" d="M1322.48,158.73c16.64,13.44,26.56,32,30.08,55h-36.48c-3.84-15-10.88-25.92-21.44-33-10.24-7-23.36-10.25-39.36-10.25-24,0-41.93,8-54.09,24.65-11.2,14.72-16.64,35.2-16.64,61.44,0,26.88,5.44,47.68,16.32,62.08C1212.71,334,1231.28,342,1256.24,342c16.32,0,29.76-4.16,40-11.84,10.88-8.64,18.56-21.76,23-39h36.48c-5.12,26.88-17,47.68-35.84,62.72Q1293.48,375,1256.52,375c-38.09,0-66.57-12.16-85.13-35.84-16.32-20.48-24.32-48-24.32-82.56,0-33.92,8.32-61.76,25.28-82.88,19.2-24.33,47-36.17,83.53-36.17C1282.8,137.6,1305.2,144.65,1322.48,158.73Z" transform="translate(0 0)"/><path class="cls-1" d="M1560.55,142.08v32h-74.88V370.57h-37.44V174.09h-74.88v-32Z" transform="translate(0 0)"/><path class="cls-1" d="M1721.83,225.29c15,16.32,22.72,37.12,22.72,62.72,0,25.28-7.68,46.08-22.4,62.08-15.36,16.64-35.84,25-60.8,25-25.28,0-45.44-8.32-60.8-25-15-16-22.4-36.8-22.4-62.08,0-25.6,7.36-46.4,22.72-62.72,15-16.64,35.2-24.64,60.48-24.64C1686.31,200.65,1706.47,208.65,1721.83,225.29Zm-95.68,23c-7,10.24-10.56,23.68-10.56,39.68s3.52,29.12,10.56,39.36c8.32,11.84,19.84,17.92,35.2,17.92,15,0,26.88-6.08,35.2-17.92,7-10.56,10.88-23.68,10.88-39.36,0-16-3.84-29.44-10.88-39.68-8.32-12.16-20.16-17.92-35.2-17.92-15.35,0-26.88,5.8-35.2,18Z" transform="translate(0 0)"/><path class="cls-1" d="M1813,137.6V270.73l67.84-65.6h47l-73.28,68.48,79.68,97h-46.72L1829.67,297,1813,312.65v57.92h-36.49v-233Z" transform="translate(0 0)"/><path class="cls-1" d="M2086.31,228.17c13.12,16.64,19.84,40,19.84,69.76H1982.3c1.28,15.36,5.44,27.2,12.48,35.2s17.28,12.16,30.4,12.16c11.2,0,20.17-2.56,27.21-7.68,5.44-4.16,10.24-10.88,14.72-20.16h36.48a75.14,75.14,0,0,1-23,38.72c-14.72,12.48-33,18.88-55.05,18.88-24.64,0-44.16-7.68-58.56-22.72-15.36-15.68-23-37.12-23-64.64,0-24.64,7-45.12,21.76-61.76,14.08-17,33.6-25.28,58.24-25.28C2051.11,200.65,2071.91,209.61,2086.31,228.17Zm-89.93,12.48q-10.08,10.08-13.44,29.76h85.13c-3.2-26.88-17.6-40-43.2-40C2012.7,230.41,2003.42,233.61,1996.38,240.65Z" transform="translate(0 0)"/><path class="cls-1" d="M2282.46,268.49V370.57H2246V271.69c0-27.2-12.48-40.64-37.44-40.64a33.4,33.4,0,0,0-23.68,9.6c-7.68,7-12.16,17.28-13.44,30.4v99.52H2135V205.13h36.48v19.2c6.4-7.68,13.76-13.76,21.76-17.6a59.6,59.6,0,0,1,27.2-6.08C2261.66,200.65,2282.46,223.05,2282.46,268.49Z" transform="translate(0 0)"/></svg>