<svg id="图层_1" data-name="图层 1" xmlns="http://www.w3.org/2000/svg" viewBox="0 0 252 48"><defs><style>.cls-1{fill:#08aeb2;}.cls-2{fill:#fff;stroke:#979797;stroke-opacity:0.06;opacity:0.9;isolation:isolate;}.cls-3{fill:none;stroke:#08aeb2;stroke-width:3px;}</style></defs><title>视频-鼠标经过</title><g id="视频-鼠标经过"><path id="Rectangle-4-Copy-3" class="cls-1" d="M24,0H228a23.94,23.94,0,0,1,24,24h0a23.94,23.94,0,0,1-24,24H24A23.94,23.94,0,0,1,0,24H0A23.94,23.94,0,0,1,24,0Z"/><circle id="Oval-Copy-2" class="cls-2" cx="24" cy="24" r="22"/><path id="Triangle-Copy-2" class="cls-3" d="M28.6,22.5a2,2,0,0,1,0,3.5l-7.2,5c-1.4,1-2.5.4-2.5-1.3v-11c0-1.7,1.1-2.2,2.5-1.3Z"/></g></svg>